NotoSerifTamilSlanted-Medium.ufo
<glyph name="exclam" format="2">
  <advance width="350.1034482758621"/>
  <unicode hex="0021"/>
  <outline>
    <contour>
      <point x="129.44827586206895" y="208.44827586206895" type="line"/>
      <point x="186.75862068965517" y="208.44827586206895" type="line"/>
      <point x="334.7586206896552" y="714.0" type="line"/>
      <point x="202.75862068965517" y="714.0" type="line"/>
    </contour>
    <contour>
      <point x="127.58620689655173" y="-8.0" type="curve" smooth="yes"/>
      <point x="165.9655172413793" y="-8.0"/>
      <point x="203.72413793103448" y="16.448275862068964"/>
      <point x="203.72413793103448" y="77.65517241379311" type="curve" smooth="yes"/>
      <point x="203.72413793103448" y="115.79310344827586"/>
      <point x="177.41379310344828" y="135.89655172413794"/>
      <point x="140.82758620689654" y="135.89655172413794" type="curve" smooth="yes"/>
      <point x="102.3103448275862" y="135.89655172413794"/>
      <point x="64.6896551724138" y="107.86206896551724"/>
      <point x="64.6896551724138" y="51.689655172413794" type="curve" smooth="yes"/>
      <point x="64.6896551724138" y="12.827586206896552"/>
      <point x="90.44827586206897" y="-8.0"/>
    </contour>
  </outline>
</glyph>
<glyph name="quotedbl" format="2">
  <advance width="435.58620689655174"/>
  <unicode hex="0022"/>
  <outline>
    <contour>
      <point x="136.79310344827587" y="467.9655172413793" type="line"/>
      <point x="188.31034482758622" y="467.9655172413793" type="line"/>
      <point x="277.6896551724138" y="714.0" type="line"/>
      <point x="157.89655172413794" y="714.0" type="line"/>
    </contour>
    <contour>
      <point x="333.0689655172414" y="467.9655172413793" type="line"/>
      <point x="384.58620689655174" y="467.9655172413793" type="line"/>
      <point x="473.9655172413793" y="714.0" type="line"/>
      <point x="354.17241379310343" y="714.0" type="line"/>
    </contour>
  </outline>
</glyph>
<glyph name="numbersign" format="2">
  <advance width="559.0"/>
  <unicode hex="0023"/>
  <outline>
    <contour>
      <point x="59.58620689655172" y="0.0" type="line"/>
      <point x="122.62068965517241" y="0.0" type="line"/>
      <point x="181.6206896551724" y="202.17241379310346" type="line"/>
      <point x="310.9655172413793" y="202.17241379310346" type="line"/>
      <point x="252.24137931034483" y="0.0" type="line"/>
      <point x="315.2758620689655" y="0.0" type="line"/>
      <point x="374.0" y="202.17241379310346" type="line"/>
      <point x="496.1034482758621" y="202.17241379310346" type="line"/>
      <point x="503.1034482758621" y="263.9310344827586" type="line"/>
      <point x="393.55172413793105" y="263.9310344827586" type="line"/>
      <point x="449.44827586206895" y="455.7931034482759" type="line"/>
      <point x="554.1034482758621" y="455.7931034482759" type="line"/>
      <point x="560.6551724137931" y="517.8275862068965" type="line"/>
      <point x="467.55172413793105" y="517.8275862068965" type="line"/>
      <point x="525.2758620689655" y="714.0" type="line"/>
      <point x="462.2413793103448" y="714.0" type="line"/>
      <point x="404.51724137931035" y="517.8275862068965" type="line"/>
      <point x="275.17241379310343" y="517.8275862068965" type="line"/>
      <point x="332.62068965517244" y="714.0" type="line"/>
      <point x="268.58620689655174" y="714.0" type="line"/>
      <point x="212.13793103448276" y="517.8275862068965" type="line"/>
      <point x="89.65517241379311" y="517.8275862068965" type="line"/>
      <point x="83.10344827586206" y="455.7931034482759" type="line"/>
      <point x="194.0344827586207" y="455.7931034482759" type="line"/>
      <point x="137.13793103448276" y="263.9310344827586" type="line"/>
      <point x="31.379310344827587" y="263.9310344827586" type="line"/>
      <point x="24.379310344827587" y="202.17241379310346" type="line"/>
      <point x="118.58620689655173" y="202.17241379310346" type="line"/>
    </contour>
    <contour>
      <point x="200.89655172413794" y="263.9310344827586" type="line"/>
      <point x="257.0689655172414" y="455.7931034482759" type="line"/>
      <point x="386.6896551724138" y="455.7931034482759" type="line"/>
      <point x="330.51724137931035" y="263.9310344827586" type="line"/>
    </contour>
  </outline>
</glyph>
<glyph name="percent" format="2">
  <advance width="896.0"/>
  <unicode hex="0025"/>
  <outline>
    <contour>
      <point x="170.31034482758622" y="0.0" type="line"/>
      <point x="245.41379310344828" y="0.0" type="line"/>
      <point x="742.0344827586207" y="714.0" type="line"/>
      <point x="670.6551724137931" y="714.0" type="line"/>
    </contour>
    <contour>
      <point x="199.9655172413793" y="280.7241379310345" type="curve" smooth="yes"/>
      <point x="352.82758620689657" y="280.7241379310345"/>
      <point x="419.48275862068965" y="460.0"/>
      <point x="419.48275862068965" y="567.0344827586207" type="curve" smooth="yes"/>
      <point x="419.48275862068965" y="659.2758620689655"/>
      <point x="378.37931034482756" y="723.2758620689655"/>
      <point x="283.17241379310343" y="723.2758620689655" type="curve" smooth="yes"/>
      <point x="133.31034482758622" y="723.2758620689655"/>
      <point x="67.65517241379311" y="551.0"/>
      <point x="67.65517241379311" y="436.13793103448273" type="curve"/>
      <point x="67.65517241379311" y="331.7241379310345"/>
      <point x="119.0344827586207" y="280.7241379310345"/>
    </contour>
    <contour>
      <point x="205.89655172413794" y="324.48275862068965" type="curve" smooth="yes"/>
      <point x="168.10344827586206" y="324.48275862068965"/>
      <point x="154.6551724137931" y="361.37931034482756"/>
      <point x="154.6551724137931" y="423.0689655172414" type="curve" smooth="yes"/>
      <point x="154.6551724137931" y="508.58620689655174"/>
      <point x="197.10344827586206" y="679.9655172413793"/>
      <point x="279.44827586206895" y="679.9655172413793" type="curve" smooth="yes"/>
      <point x="317.51724137931035" y="679.9655172413793"/>
      <point x="330.6896551724138" y="643.3448275862069"/>
      <point x="330.6896551724138" y="581.6551724137931" type="curve" smooth="yes"/>
      <point x="330.6896551724138" y="495.86206896551727"/>
      <point x="288.2413793103448" y="324.48275862068965"/>
    </contour>
    <contour>
      <point x="634.5172413793103" y="-8.551724137931034" type="curve" smooth="yes"/>
      <point x="787.3793103448276" y="-8.551724137931034"/>
      <point x="854.0344827586207" y="170.72413793103448"/>
      <point x="854.0344827586207" y="277.7586206896552" type="curve" smooth="yes"/>
      <point x="854.0344827586207" y="370.0"/>
      <point x="812.9310344827586" y="434.0"/>
      <point x="717.7241379310345" y="434.0" type="curve" smooth="yes"/>
      <point x="567.8620689655172" y="434.0"/>
      <point x="502.2068965517241" y="261.7241379310345"/>
      <point x="502.2068965517241" y="146.86206896551724" type="curve"/>
      <point x="502.2068965517241" y="42.44827586206897"/>
      <point x="553.5862068965517" y="-8.551724137931034"/>
    </contour>
    <contour>
      <point x="640.448275862069" y="35.206896551724135" type="curve" smooth="yes"/>
      <point x="602.6551724137931" y="35.206896551724135"/>
      <point x="589.2068965517242" y="72.10344827586206"/>
      <point x="589.2068965517242" y="133.79310344827587" type="curve" smooth="yes"/>
      <point x="589.2068965517242" y="219.31034482758622"/>
      <point x="631.6551724137931" y="390.6896551724138"/>
      <point x="714.0" y="390.6896551724138" type="curve" smooth="yes"/>
      <point x="752.0689655172414" y="390.6896551724138"/>
      <point x="765.2413793103449" y="354.0689655172414"/>
      <point x="765.2413793103449" y="292.37931034482756" type="curve" smooth="yes"/>
      <point x="765.2413793103449" y="206.58620689655172"/>
      <point x="722.7931034482758" y="35.206896551724135"/>
    </contour>
  </outline>
</glyph>
<glyph name="quotesingle" format="2">
  <advance width="239.31034482758622"/>
  <unicode hex="0027"/>
  <outline>
    <contour>
      <point x="133.89655172413794" y="467.9655172413793" type="line"/>
      <point x="185.41379310344828" y="467.9655172413793" type="line"/>
      <point x="272.0344827586207" y="714.0" type="line"/>
      <point x="152.24137931034483" y="714.0" type="line"/>
    </contour>
  </outline>
</glyph>
<glyph name="parenleft" format="2">
  <advance width="360.8965517241379"/>
  <unicode hex="0028"/>
  <outline>
    <contour>
      <point x="233.0689655172414" y="-131.0344827586207" type="curve"/>
      <point x="243.89655172413794" y="-80.06896551724138" type="line"/>
      <point x="175.27586206896552" y="-31.620689655172413"/>
      <point x="152.55172413793105" y="54.827586206896555"/>
      <point x="152.55172413793105" y="139.0" type="curve" smooth="yes"/>
      <point x="152.55172413793105" y="276.7241379310345"/>
      <point x="203.0" y="599.6206896551724"/>
      <point x="412.62068965517244" y="713.3448275862069" type="curve"/>
      <point x="422.62068965517244" y="763.3103448275862" type="line"/>
      <point x="165.68965517241378" y="698.0344827586207"/>
      <point x="42.0" y="430.37931034482756"/>
      <point x="42.0" y="186.0" type="curve" smooth="yes"/>
      <point x="42.0" y="45.62068965517241"/>
      <point x="98.13793103448276" y="-76.48275862068965"/>
    </contour>
  </outline>
</glyph>
<glyph name="parenright" format="2">
  <advance width="360.8965517241379"/>
  <unicode hex="0029"/>
  <outline>
    <contour>
      <point x="-47.62068965517241" y="-136.55172413793105" type="line"/>
      <point x="209.31034482758622" y="-71.27586206896552"/>
      <point x="333.0" y="196.3793103448276"/>
      <point x="333.0" y="440.7586206896552" type="curve" smooth="yes"/>
      <point x="333.0" y="581.1379310344828"/>
      <point x="276.86206896551727" y="703.2413793103449"/>
      <point x="141.93103448275863" y="757.7931034482758" type="curve"/>
      <point x="131.10344827586206" y="706.8275862068965" type="line"/>
      <point x="199.72413793103448" y="658.3793103448276"/>
      <point x="222.44827586206895" y="571.9310344827586"/>
      <point x="222.44827586206895" y="487.7586206896552" type="curve" smooth="yes"/>
      <point x="222.44827586206895" y="350.0344827586207"/>
      <point x="172.0" y="27.13793103448276"/>
      <point x="-37.62068965517241" y="-86.58620689655173" type="curve"/>
    </contour>
  </outline>
</glyph>
<glyph name="asterisk" format="2">
  <advance width="532.551724137931"/>
  <unicode hex="002A"/>
  <outline>
    <contour>
      <point x="344.7931034482759" y="368.86206896551727" type="line"/>
      <point x="348.86206896551727" y="530.5172413793103" type="line"/>
      <point x="478.9310344827586" y="404.7586206896552" type="line"/>
      <point x="533.0689655172414" y="478.0" type="line"/>
      <point x="381.1034482758621" y="557.9655172413793" type="line"/>
      <point x="552.6896551724138" y="569.0344827586207" type="line"/>
      <point x="533.3103448275862" y="659.3793103448276" type="line"/>
      <point x="363.1379310344828" y="596.3448275862069" type="line"/>
      <point x="425.62068965517244" y="745.6206896551724" type="line"/>
      <point x="333.7241379310345" y="765.0" type="line"/>
      <point x="327.37931034482756" y="602.6206896551724" type="line"/>
      <point x="199.31034482758622" y="732.3793103448276" type="line"/>
      <point x="144.44827586206895" y="656.8620689655172" type="line"/>
      <point x="295.6896551724138" y="576.448275862069" type="line"/>
      <point x="124.55172413793103" y="564.1034482758621" type="line"/>
      <point x="144.20689655172413" y="474.0344827586207" type="line"/>
      <point x="313.37931034482756" y="538.3448275862069" type="line"/>
      <point x="253.17241379310346" y="388.2413793103448" type="line"/>
    </contour>
  </outline>
</glyph>
<glyph name="plus" format="2">
  <advance width="559.0"/>
  <unicode hex="002B"/>
  <outline>
    <contour>
      <point x="247.3448275862069" y="143.0" type="line"/>
      <point x="310.6551724137931" y="143.0" type="line"/>
      <point x="310.6551724137931" y="326.3448275862069" type="line"/>
      <point x="494.0" y="326.3448275862069" type="line"/>
      <point x="494.0" y="388.6551724137931" type="line"/>
      <point x="310.6551724137931" y="388.6551724137931" type="line"/>
      <point x="310.6551724137931" y="572.0" type="line"/>
      <point x="247.3448275862069" y="572.0" type="line"/>
      <point x="247.3448275862069" y="388.6551724137931" type="line"/>
      <point x="65.0" y="388.6551724137931" type="line"/>
      <point x="65.0" y="326.3448275862069" type="line"/>
      <point x="247.3448275862069" y="326.3448275862069" type="line"/>
    </contour>
  </outline>
</glyph>
<glyph name="comma" format="2">
  <advance width="264.8965517241379"/>
  <unicode hex="002C"/>
  <outline>
    <contour>
      <point x="-24.689655172413794" y="-147.3793103448276" type="line"/>
      <point x="105.37931034482759" y="-121.55172413793103"/>
      <point x="167.0689655172414" y="-43.62068965517241"/>
      <point x="167.0689655172414" y="50.41379310344828" type="curve" smooth="yes"/>
      <point x="167.0689655172414" y="104.06896551724138"/>
      <point x="130.24137931034483" y="134.89655172413794"/>
      <point x="86.58620689655173" y="134.89655172413794" type="curve" smooth="yes"/>
      <point x="50.93103448275862" y="134.89655172413794"/>
      <point x="21.0" y="113.24137931034483"/>
      <point x="21.0" y="73.13793103448276" type="curve" smooth="yes"/>
      <point x="21.0" y="18.758620689655174"/>
      <point x="83.51724137931035" y="19.03448275862069"/>
      <point x="83.51724137931035" y="-18.620689655172413" type="curve" smooth="yes"/>
      <point x="83.51724137931035" y="-58.3448275862069"/>
      <point x="48.51724137931035" y="-87.06896551724138"/>
      <point x="-18.75862068965517" y="-102.34482758620689" type="curve"/>
    </contour>
  </outline>
</glyph>
<glyph name="hyphen" format="2">
  <advance width="310.0"/>
  <unicode hex="002D"/>
  <outline>
    <contour>
      <point x="12.89655172413793" y="230.86206896551724" type="line"/>
      <point x="272.8965517241379" y="230.86206896551724" type="line"/>
      <point x="290.82758620689657" y="314.13793103448273" type="line"/>
      <point x="30.82758620689655" y="314.13793103448273" type="line"/>
    </contour>
  </outline>
</glyph>
<glyph name="period" format="2">
  <advance width="264.8965517241379"/>
  <unicode hex="002E"/>
  <outline>
    <contour>
      <point x="91.10344827586206" y="-8.0" type="curve" smooth="yes"/>
      <point x="129.48275862068965" y="-8.0"/>
      <point x="167.24137931034483" y="16.448275862068964"/>
      <point x="167.24137931034483" y="80.55172413793103" type="curve" smooth="yes"/>
      <point x="167.24137931034483" y="115.79310344827586"/>
      <point x="140.93103448275863" y="135.89655172413794"/>
      <point x="104.3448275862069" y="135.89655172413794" type="curve" smooth="yes"/>
      <point x="65.82758620689656" y="135.89655172413794"/>
      <point x="28.20689655172414" y="107.86206896551724"/>
      <point x="28.20689655172414" y="48.793103448275865" type="curve" smooth="yes"/>
      <point x="28.20689655172414" y="12.827586206896552"/>
      <point x="53.96551724137931" y="-8.0"/>
    </contour>
  </outline>
</glyph>
<glyph name="slash" format="2">
  <advance width="288.0"/>
  <unicode hex="002F"/>
  <outline>
    <contour>
      <point x="-95.75862068965517" y="-121.0" type="line"/>
      <point x="-28.620689655172413" y="-121.0" type="line"/>
      <point x="386.51724137931035" y="760.0" type="line"/>
      <point x="319.37931034482756" y="760.0" type="line"/>
    </contour>
  </outline>
</glyph>
<glyph name="zero" format="2">
  <advance width="559.0"/>
  <unicode hex="0030"/>
  <outline>
    <contour>
      <point x="236.31034482758622" y="-11.0" type="curve" smooth="yes"/>
      <point x="447.44827586206895" y="-11.0"/>
      <point x="539.3793103448276" y="294.0"/>
      <point x="539.3793103448276" y="496.0" type="curve" smooth="yes"/>
      <point x="539.3793103448276" y="655.0"/>
      <point x="453.7241379310345" y="725.0"/>
      <point x="345.51724137931035" y="725.0" type="curve" smooth="yes"/>
      <point x="135.10344827586206" y="725.0"/>
      <point x="39.172413793103445" y="438.0"/>
      <point x="39.172413793103445" y="231.0" type="curve" smooth="yes"/>
      <point x="39.172413793103445" y="73.0"/>
      <point x="118.82758620689656" y="-11.0"/>
    </contour>
    <contour>
      <point x="243.75862068965517" y="47.58620689655172" type="curve" smooth="yes"/>
      <point x="184.44827586206895" y="47.58620689655172"/>
      <point x="147.20689655172413" y="93.20689655172414"/>
      <point x="147.20689655172413" y="198.13793103448276" type="curve" smooth="yes"/>
      <point x="147.20689655172413" y="371.7586206896552"/>
      <point x="205.0689655172414" y="667.4137931034483"/>
      <point x="336.8965517241379" y="667.4137931034483" type="curve" smooth="yes"/>
      <point x="398.2068965517241" y="667.4137931034483"/>
      <point x="432.7241379310345" y="621.7931034482758"/>
      <point x="432.7241379310345" y="518.8620689655172" type="curve" smooth="yes"/>
      <point x="432.7241379310345" y="345.0689655172414"/>
      <point x="377.41379310344826" y="47.58620689655172"/>
    </contour>
  </outline>
</glyph>
<glyph name="one" format="2">
  <advance width="559.0"/>
  <unicode hex="0031"/>
  <outline>
    <contour>
      <point x="38.55172413793103" y="0.0" type="line"/>
      <point x="421.86206896551727" y="0.0" type="line"/>
      <point x="431.41379310344826" y="45.03448275862069" type="line"/>
      <point x="378.7931034482759" y="45.03448275862069" type="line" smooth="yes"/>
      <point x="336.51724137931035" y="45.03448275862069"/>
      <point x="305.9655172413793" y="50.48275862068966"/>
      <point x="305.9655172413793" y="83.10344827586206" type="curve" smooth="yes"/>
      <point x="305.9655172413793" y="89.65517241379311"/>
      <point x="308.51724137931035" y="105.0344827586207"/>
      <point x="310.51724137931035" y="113.0344827586207" type="curve" smooth="yes"/>
      <point x="438.9655172413793" y="718.0" type="line"/>
      <point x="361.7241379310345" y="718.0" type="line"/>
      <point x="280.7241379310345" y="666.0" type="line" smooth="yes"/>
      <point x="204.72413793103448" y="617.0"/>
      <point x="161.06896551724137" y="601.0"/>
      <point x="115.06896551724138" y="589.0" type="curve"/>
      <point x="115.06896551724138" y="553.5862068965517"/>
      <point x="129.27586206896552" y="529.4827586206897"/>
      <point x="157.27586206896552" y="529.4827586206897" type="curve" smooth="yes"/>
      <point x="200.27586206896552" y="529.4827586206897"/>
      <point x="240.72413793103448" y="568.4827586206897"/>
      <point x="306.62068965517244" y="633.4827586206897" type="curve"/>
      <point x="310.62068965517244" y="633.4827586206897" type="line"/>
      <point x="297.8965517241379" y="583.1379310344828"/>
      <point x="285.44827586206895" y="532.3448275862069"/>
      <point x="274.7241379310345" y="482.0" type="curve" smooth="yes"/>
      <point x="197.0" y="115.10344827586206" type="line" smooth="yes"/>
      <point x="184.82758620689654" y="56.241379310344826"/>
      <point x="147.58620689655172" y="45.03448275862069"/>
      <point x="102.0344827586207" y="45.03448275862069" type="curve" smooth="yes"/>
      <point x="47.37931034482759" y="45.03448275862069" type="line"/>
    </contour>
  </outline>
</glyph>
<glyph name="two" format="2">
  <advance width="559.0"/>
  <unicode hex="0032"/>
  <outline>
    <contour>
      <point x="-16.17241379310345" y="0.0" type="line"/>
      <point x="427.86206896551727" y="0.0" type="line"/>
      <point x="470.3448275862069" y="181.75862068965517" type="line"/>
      <point x="423.6551724137931" y="181.75862068965517" type="line"/>
      <point x="416.6551724137931" y="165.20689655172413" type="line" smooth="yes"/>
      <point x="399.9310344827586" y="126.37931034482759"/>
      <point x="378.1034482758621" y="88.27586206896552"/>
      <point x="316.2758620689655" y="88.27586206896552" type="curve" smooth="yes"/>
      <point x="84.0" y="88.27586206896552" type="line"/>
      <point x="313.1379310344828" y="287.7931034482759" type="line" smooth="yes"/>
      <point x="450.3448275862069" y="407.86206896551727"/>
      <point x="523.3448275862069" y="488.0344827586207"/>
      <point x="523.3448275862069" y="579.9310344827586" type="curve" smooth="yes"/>
      <point x="523.3448275862069" y="668.8275862068965"/>
      <point x="456.3103448275862" y="724.0"/>
      <point x="328.0" y="724.0" type="curve" smooth="yes"/>
      <point x="185.68965517241378" y="724.0"/>
      <point x="105.58620689655173" y="656.551724137931"/>
      <point x="105.58620689655173" y="584.7931034482758" type="curve" smooth="yes"/>
      <point x="105.58620689655173" y="535.9310344827586"/>
      <point x="140.82758620689654" y="514.7241379310345"/>
      <point x="188.72413793103448" y="514.7241379310345" type="curve"/>
      <point x="199.79310344827587" y="598.8620689655172"/>
      <point x="241.13793103448276" y="670.6896551724138"/>
      <point x="321.62068965517244" y="670.6896551724138" type="curve" smooth="yes"/>
      <point x="376.7586206896552" y="670.6896551724138"/>
      <point x="407.55172413793105" y="630.2413793103449"/>
      <point x="407.55172413793105" y="571.6206896551724" type="curve" smooth="yes"/>
      <point x="407.55172413793105" y="486.17241379310343"/>
      <point x="374.55172413793105" y="414.2758620689655"/>
      <point x="239.27586206896552" y="294.9310344827586" type="curve" smooth="yes"/>
      <point x="4.827586206896552" y="87.06896551724138" type="line"/>
    </contour>
  </outline>
</glyph>
<glyph name="three" format="2">
  <advance width="559.0"/>
  <unicode hex="0033"/>
  <outline>
    <contour>
      <point x="196.24137931034483" y="-10.0" type="curve" smooth="yes"/>
      <point x="323.2758620689655" y="-10.0"/>
      <point x="477.86206896551727" y="48.0"/>
      <point x="477.86206896551727" y="225.0" type="curve" smooth="yes"/>
      <point x="477.86206896551727" y="311.0"/>
      <point x="419.86206896551727" y="364.8965517241379"/>
      <point x="327.86206896551727" y="374.8965517241379" type="curve"/>
      <point x="461.86206896551727" y="398.8965517241379"/>
      <point x="528.8620689655172" y="488.0"/>
      <point x="528.8620689655172" y="581.0" type="curve" smooth="yes"/>
      <point x="528.8620689655172" y="672.0"/>
      <point x="452.6551724137931" y="724.0"/>
      <point x="339.0689655172414" y="724.0" type="curve" smooth="yes"/>
      <point x="213.20689655172413" y="724.0"/>
      <point x="112.17241379310344" y="667.9655172413793"/>
      <point x="112.17241379310344" y="585.9655172413793" type="curve" smooth="yes"/>
      <point x="112.17241379310344" y="536.9655172413793"/>
      <point x="148.86206896551724" y="521.9655172413793"/>
      <point x="196.93103448275863" y="521.9655172413793" type="curve"/>
      <point x="213.10344827586206" y="600.9655172413793"/>
      <point x="245.17241379310346" y="670.9655172413793"/>
      <point x="331.2068965517241" y="670.9655172413793" type="curve" smooth="yes"/>
      <point x="387.17241379310343" y="670.9655172413793"/>
      <point x="411.7931034482759" y="633.5172413793103"/>
      <point x="411.7931034482759" y="581.3448275862069" type="curve" smooth="yes"/>
      <point x="411.7931034482759" y="470.2758620689655"/>
      <point x="328.7931034482759" y="396.37931034482756"/>
      <point x="216.79310344827587" y="396.37931034482756" type="curve" smooth="yes"/>
      <point x="184.79310344827587" y="396.37931034482756" type="line"/>
      <point x="174.79310344827587" y="342.3448275862069" type="line"/>
      <point x="217.79310344827587" y="342.3448275862069" type="line" smooth="yes"/>
      <point x="306.7931034482759" y="342.3448275862069"/>
      <point x="358.7931034482759" y="295.44827586206895"/>
      <point x="358.7931034482759" y="215.10344827586206" type="curve" smooth="yes"/>
      <point x="358.7931034482759" y="105.3103448275862"/>
      <point x="287.82758620689657" y="49.41379310344828"/>
      <point x="204.89655172413794" y="49.41379310344828" type="curve" smooth="yes"/>
      <point x="118.20689655172414" y="49.41379310344828"/>
      <point x="82.93103448275862" y="110.75862068965517"/>
      <point x="82.93103448275862" y="176.44827586206895" type="curve"/>
      <point x="33.48275862068966" y="176.44827586206895"/>
      <point x="-2.4482758620689653" y="147.79310344827587"/>
      <point x="-2.4482758620689653" y="99.41379310344827" type="curve" smooth="yes"/>
      <point x="-2.4482758620689653" y="44.13793103448276"/>
      <point x="49.6551724137931" y="-10.0"/>
    </contour>
  </outline>
</glyph>
<glyph name="four" format="2">
  <advance width="559.0"/>
  <unicode hex="0034"/>
  <outline>
    <contour>
      <point x="128.27586206896552" y="0.0" type="line"/>
      <point x="461.8965517241379" y="0.0" type="line"/>
      <point x="471.44827586206895" y="45.03448275862069" type="line"/>
      <point x="449.82758620689657" y="45.03448275862069" type="line" smooth="yes"/>
      <point x="408.37931034482756" y="45.03448275862069"/>
      <point x="379.48275862068965" y="51.03448275862069"/>
      <point x="379.48275862068965" y="85.0344827586207" type="curve" smooth="yes"/>
      <point x="379.48275862068965" y="91.0344827586207"/>
      <point x="381.48275862068965" y="105.86206896551724"/>
      <point x="383.48275862068965" y="113.86206896551724" type="curve" smooth="yes"/>
      <point x="510.9310344827586" y="714.0" type="line"/>
      <point x="402.7931034482759" y="714.0" type="line"/>
      <point x="0.2413793103448283" y="240.0344827586207" type="line"/>
      <point x="-10.137931034482758" y="193.24137931034483" type="line"/>
      <point x="517.8620689655172" y="193.24137931034483" type="line"/>
      <point x="530.4137931034483" y="252.0" type="line"/>
      <point x="39.51724137931035" y="252.0" type="line"/>
      <point x="54.793103448275865" y="219.20689655172413" type="line"/>
      <point x="295.7931034482759" y="504.48275862068965" type="line" smooth="yes"/>
      <point x="319.0" y="531.5172413793103"/>
      <point x="365.37931034482756" y="592.1034482758621"/>
      <point x="389.3103448275862" y="629.1379310344828" type="curve"/>
      <point x="370.3103448275862" y="567.1379310344828"/>
      <point x="352.3103448275862" y="492.3103448275862"/>
      <point x="340.58620689655174" y="435.6896551724138" type="curve" smooth="yes"/>
      <point x="274.41379310344826" y="117.0344827586207" type="line" smooth="yes"/>
      <point x="261.13793103448273" y="52.6551724137931"/>
      <point x="220.0344827586207" y="45.03448275862069"/>
      <point x="176.68965517241378" y="45.03448275862069" type="curve" smooth="yes"/>
      <point x="136.82758620689654" y="45.03448275862069" type="line"/>
    </contour>
  </outline>
</glyph>
<glyph name="five" format="2">
  <advance width="559.0"/>
  <unicode hex="0035"/>
  <outline>
    <contour>
      <point x="187.41379310344828" y="-10.0" type="curve" smooth="yes"/>
      <point x="368.2758620689655" y="-10.0"/>
      <point x="477.48275862068965" y="99.55172413793103"/>
      <point x="477.48275862068965" y="244.10344827586206" type="curve" smooth="yes"/>
      <point x="477.48275862068965" y="363.6551724137931"/>
      <point x="393.55172413793105" y="428.9310344827586"/>
      <point x="262.7931034482759" y="428.9310344827586" type="curve" smooth="yes"/>
      <point x="216.68965517241378" y="428.9310344827586"/>
      <point x="187.13793103448276" y="419.9310344827586"/>
      <point x="164.58620689655172" y="412.9310344827586" type="curve"/>
      <point x="228.10344827586206" y="626.0" type="line"/>
      <point x="424.58620689655174" y="626.0" type="line" smooth="yes"/>
      <point x="461.13793103448273" y="626.0"/>
      <point x="471.41379310344826" y="616.0"/>
      <point x="471.41379310344826" y="601.7241379310345" type="curve" smooth="yes"/>
      <point x="471.41379310344826" y="593.7241379310345"/>
      <point x="469.41379310344826" y="571.448275862069"/>
      <point x="468.41379310344826" y="554.448275862069" type="curve"/>
      <point x="515.6551724137931" y="554.448275862069" type="line"/>
      <point x="543.2068965517242" y="714.0" type="line"/>
      <point x="197.06896551724137" y="714.0" type="line"/>
      <point x="91.44827586206897" y="359.7586206896552" type="line"/>
      <point x="127.65517241379311" y="348.8965517241379" type="line"/>
      <point x="155.10344827586206" y="359.8965517241379"/>
      <point x="184.82758620689654" y="370.8965517241379"/>
      <point x="235.0" y="370.8965517241379" type="curve" smooth="yes"/>
      <point x="306.8965517241379" y="370.8965517241379"/>
      <point x="361.0689655172414" y="326.7241379310345"/>
      <point x="361.0689655172414" y="237.10344827586206" type="curve" smooth="yes"/>
      <point x="361.0689655172414" y="112.0344827586207"/>
      <point x="295.37931034482756" y="49.13793103448276"/>
      <point x="197.51724137931035" y="49.13793103448276" type="curve" smooth="yes"/>
      <point x="110.96551724137932" y="49.13793103448276"/>
      <point x="89.51724137931035" y="109.0"/>
      <point x="88.51724137931035" y="161.6551724137931" type="curve"/>
      <point x="33.206896551724135" y="161.6551724137931"/>
      <point x="8.551724137931034" y="133.6206896551724"/>
      <point x="8.551724137931034" y="94.6896551724138" type="curve" smooth="yes"/>
      <point x="8.551724137931034" y="37.206896551724135"/>
      <point x="55.6551724137931" y="-10.0"/>
    </contour>
  </outline>
</glyph>
<glyph name="six" format="2">
  <advance width="559.0"/>
  <unicode hex="0036"/>
  <outline>
    <contour>
      <point x="251.0344827586207" y="-10.0" type="curve" smooth="yes"/>
      <point x="420.7241379310345" y="-10.0"/>
      <point x="501.9310344827586" y="120.27586206896552"/>
      <point x="501.9310344827586" y="259.55172413793105" type="curve" smooth="yes"/>
      <point x="501.9310344827586" y="354.82758620689657"/>
      <point x="448.9310344827586" y="435.1034482758621"/>
      <point x="332.9310344827586" y="435.1034482758621" type="curve" smooth="yes"/>
      <point x="267.82758620689657" y="435.1034482758621"/>
      <point x="216.20689655172413" y="405.2068965517241"/>
      <point x="186.20689655172413" y="383.6551724137931" type="curve"/>
      <point x="232.27586206896552" y="574.7241379310345"/>
      <point x="305.2413793103448" y="672.9655172413793"/>
      <point x="401.37931034482756" y="672.9655172413793" type="curve" smooth="yes"/>
      <point x="460.17241379310343" y="672.9655172413793"/>
      <point x="466.8965517241379" y="613.3103448275862"/>
      <point x="466.8965517241379" y="552.6551724137931" type="curve"/>
      <point x="528.5172413793103" y="552.6551724137931"/>
      <point x="564.3793103448276" y="581.7586206896551"/>
      <point x="564.3793103448276" y="630.4137931034483" type="curve" smooth="yes"/>
      <point x="564.3793103448276" y="680.3448275862069"/>
      <point x="511.0" y="724.0"/>
      <point x="407.7931034482759" y="724.0" type="curve" smooth="yes"/>
      <point x="190.55172413793105" y="724.0"/>
      <point x="57.51724137931034" y="481.0"/>
      <point x="57.51724137931034" y="232.0" type="curve" smooth="yes"/>
      <point x="57.51724137931034" y="70.0"/>
      <point x="144.0" y="-10.0"/>
    </contour>
    <contour>
      <point x="259.2413793103448" y="47.758620689655174" type="curve" smooth="yes"/>
      <point x="199.27586206896552" y="47.758620689655174"/>
      <point x="161.20689655172413" y="93.20689655172414"/>
      <point x="161.20689655172413" y="196.3793103448276" type="curve" smooth="yes"/>
      <point x="161.20689655172413" y="233.82758620689654"/>
      <point x="165.93103448275863" y="274.55172413793105"/>
      <point x="174.6551724137931" y="325.0" type="curve"/>
      <point x="206.0" y="352.17241379310343"/>
      <point x="256.2413793103448" y="381.3448275862069"/>
      <point x="305.7586206896552" y="381.3448275862069" type="curve" smooth="yes"/>
      <point x="362.0" y="381.3448275862069"/>
      <point x="391.3448275862069" y="335.8965517241379"/>
      <point x="391.3448275862069" y="253.0" type="curve" smooth="yes"/>
      <point x="391.3448275862069" y="136.6551724137931"/>
      <point x="338.1034482758621" y="47.758620689655174"/>
    </contour>
  </outline>
</glyph>
<glyph name="seven" format="2">
  <advance width="559.0"/>
  <unicode hex="0037"/>
  <outline>
    <contour>
      <point x="106.89655172413794" y="0.0" type="line"/>
      <point x="184.6551724137931" y="0.0" type="line"/>
      <point x="582.551724137931" y="676.7241379310345" type="line"/>
      <point x="589.9310344827586" y="714.0" type="line"/>
      <point x="134.6551724137931" y="714.0" type="line"/>
      <point x="92.20689655172414" y="525.0" type="line"/>
      <point x="139.44827586206895" y="525.0" type="line"/>
      <point x="153.44827586206895" y="575.0" type="line" smooth="yes"/>
      <point x="162.44827586206895" y="608.0"/>
      <point x="186.44827586206895" y="626.0"/>
      <point x="222.44827586206895" y="626.0" type="curve" smooth="yes"/>
      <point x="483.7931034482759" y="626.0" type="line"/>
    </contour>
  </outline>
</glyph>
<glyph name="eight" format="2">
  <advance width="559.0"/>
  <unicode hex="0038"/>
  <outline>
    <contour>
      <point x="236.13793103448276" y="-10.0" type="curve" smooth="yes"/>
      <point x="381.6551724137931" y="-10.0"/>
      <point x="495.37931034482756" y="56.0"/>
      <point x="495.37931034482756" y="202.0" type="curve" smooth="yes"/>
      <point x="495.37931034482756" y="283.0"/>
      <point x="443.37931034482756" y="337.55172413793105"/>
      <point x="370.0344827586207" y="381.55172413793105" type="curve"/>
      <point x="474.1034482758621" y="425.55172413793105"/>
      <point x="542.3793103448276" y="477.0"/>
      <point x="542.3793103448276" y="578.0" type="curve" smooth="yes"/>
      <point x="542.3793103448276" y="662.0"/>
      <point x="474.17241379310343" y="724.0"/>
      <point x="353.9655172413793" y="724.0" type="curve" smooth="yes"/>
      <point x="180.6551724137931" y="724.0"/>
      <point x="111.10344827586206" y="639.0"/>
      <point x="111.10344827586206" y="533.2068965517242" type="curve" smooth="yes"/>
      <point x="111.10344827586206" y="468.0"/>
      <point x="148.6551724137931" y="407.17241379310343"/>
      <point x="208.55172413793105" y="364.17241379310343" type="curve"/>
      <point x="93.65517241379311" y="321.17241379310343"/>
      <point x="10.827586206896552" y="274.0"/>
      <point x="10.827586206896552" y="162.0" type="curve" smooth="yes"/>
      <point x="10.827586206896552" y="62.0"/>
      <point x="95.41379310344827" y="-10.0"/>
    </contour>
    <contour>
      <point x="240.51724137931035" y="41.48275862068966" type="curve" smooth="yes"/>
      <point x="163.3793103448276" y="41.48275862068966"/>
      <point x="117.58620689655173" y="87.10344827586206"/>
      <point x="117.58620689655173" y="159.44827586206895" type="curve" smooth="yes"/>
      <point x="117.58620689655173" y="247.9655172413793"/>
      <point x="171.55172413793105" y="301.6896551724138"/>
      <point x="258.41379310344826" y="334.86206896551727" type="curve"/>
      <point x="345.0" y="289.9655172413793"/>
      <point x="389.0689655172414" y="246.9655172413793"/>
      <point x="389.0689655172414" y="176.89655172413794" type="curve" smooth="yes"/>
      <point x="389.0689655172414" y="86.37931034482759"/>
      <point x="321.37931034482756" y="41.48275862068966"/>
    </contour>
    <contour>
      <point x="318.17241379310343" y="407.48275862068965" type="curve"/>
      <point x="251.31034482758622" y="444.37931034482756"/>
      <point x="218.6896551724138" y="486.9310344827586"/>
      <point x="218.6896551724138" y="542.551724137931" type="curve" smooth="yes"/>
      <point x="218.6896551724138" y="621.8965517241379"/>
      <point x="271.0344827586207" y="671.7931034482758"/>
      <point x="346.7931034482759" y="671.7931034482758" type="curve" smooth="yes"/>
      <point x="412.37931034482756" y="671.7931034482758"/>
      <point x="443.17241379310343" y="628.6206896551724"/>
      <point x="443.17241379310343" y="571.0" type="curve" smooth="yes"/>
      <point x="443.17241379310343" y="502.6551724137931"/>
      <point x="411.82758620689657" y="449.6551724137931"/>
    </contour>
  </outline>
</glyph>
<glyph name="nine" format="2">
  <advance width="559.0"/>
  <unicode hex="0039"/>
  <outline>
    <contour>
      <point x="176.3793103448276" y="-10.0" type="curve" smooth="yes"/>
      <point x="437.3448275862069" y="-10.0"/>
      <point x="529.9310344827586" y="339.51724137931035"/>
      <point x="529.9310344827586" y="527.0" type="curve" smooth="yes"/>
      <point x="529.9310344827586" y="653.0"/>
      <point x="457.55172413793105" y="724.0"/>
      <point x="343.3448275862069" y="724.0" type="curve" smooth="yes"/>
      <point x="197.86206896551724" y="724.0"/>
      <point x="74.37931034482759" y="608.0"/>
      <point x="74.37931034482759" y="441.0" type="curve" smooth="yes"/>
      <point x="74.37931034482759" y="344.0"/>
      <point x="135.10344827586206" y="275.0"/>
      <point x="242.82758620689654" y="275.0" type="curve" smooth="yes"/>
      <point x="312.55172413793105" y="275.0"/>
      <point x="361.2758620689655" y="308.0"/>
      <point x="395.2758620689655" y="343.0" type="curve"/>
      <point x="342.82758620689657" y="150.20689655172413"/>
      <point x="285.37931034482756" y="42.86206896551724"/>
      <point x="185.20689655172413" y="42.86206896551724" type="curve" smooth="yes"/>
      <point x="123.0344827586207" y="42.86206896551724"/>
      <point x="98.3103448275862" y="97.24137931034483"/>
      <point x="97.3103448275862" y="144.6206896551724" type="curve"/>
      <point x="57.0" y="144.6206896551724"/>
      <point x="33.06896551724138" y="119.62068965517241"/>
      <point x="33.06896551724138" y="83.58620689655173" type="curve" smooth="yes"/>
      <point x="33.06896551724138" y="36.275862068965516"/>
      <point x="68.65517241379311" y="-10.0"/>
    </contour>
    <contour>
      <point x="275.0" y="334.6896551724138" type="curve" smooth="yes"/>
      <point x="221.31034482758622" y="334.6896551724138"/>
      <point x="186.51724137931035" y="370.86206896551727"/>
      <point x="186.51724137931035" y="440.2068965517241" type="curve" smooth="yes"/>
      <point x="186.51724137931035" y="550.448275862069"/>
      <point x="249.93103448275863" y="665.6896551724138"/>
      <point x="338.6896551724138" y="665.6896551724138" type="curve" smooth="yes"/>
      <point x="389.6551724137931" y="665.6896551724138"/>
      <point x="426.44827586206895" y="627.5172413793103"/>
      <point x="426.44827586206895" y="533.0" type="curve" smooth="yes"/>
      <point x="426.44827586206895" y="504.55172413793105"/>
      <point x="419.44827586206895" y="451.9310344827586"/>
      <point x="410.7241379310345" y="417.7586206896552" type="curve"/>
      <point x="382.37931034482756" y="377.58620689655174"/>
      <point x="336.41379310344826" y="334.6896551724138"/>
    </contour>
  </outline>
</glyph>
<glyph name="colon" format="2">
  <advance width="305.86206896551727"/>
  <unicode hex="003A"/>
  <outline>
    <contour>
      <point x="187.6551724137931" y="396.37931034482756" type="curve" smooth="yes"/>
      <point x="226.0344827586207" y="396.37931034482756"/>
      <point x="263.7931034482759" y="420.82758620689657"/>
      <point x="263.7931034482759" y="482.0344827586207" type="curve" smooth="yes"/>
      <point x="263.7931034482759" y="520.1724137931035"/>
      <point x="237.48275862068965" y="540.2758620689655"/>
      <point x="200.89655172413794" y="540.2758620689655" type="curve" smooth="yes"/>
      <point x="162.3793103448276" y="540.2758620689655"/>
      <point x="124.75862068965517" y="512.2413793103449"/>
      <point x="124.75862068965517" y="456.0689655172414" type="curve" smooth="yes"/>
      <point x="124.75862068965517" y="417.2068965517241"/>
      <point x="150.51724137931035" y="396.37931034482756"/>
    </contour>
    <contour>
      <point x="98.20689655172414" y="-8.0" type="curve" smooth="yes"/>
      <point x="136.58620689655172" y="-8.0"/>
      <point x="174.3448275862069" y="16.448275862068964"/>
      <point x="174.3448275862069" y="77.65517241379311" type="curve" smooth="yes"/>
      <point x="174.3448275862069" y="115.79310344827586"/>
      <point x="148.0344827586207" y="135.89655172413794"/>
      <point x="111.44827586206897" y="135.89655172413794" type="curve" smooth="yes"/>
      <point x="72.93103448275862" y="135.89655172413794"/>
      <point x="35.310344827586206" y="107.86206896551724"/>
      <point x="35.310344827586206" y="51.689655172413794" type="curve" smooth="yes"/>
      <point x="35.310344827586206" y="12.827586206896552"/>
      <point x="61.06896551724138" y="-8.0"/>
    </contour>
  </outline>
</glyph>
<glyph name="semicolon" format="2">
  <advance width="305.86206896551727"/>
  <unicode hex="003B"/>
  <outline>
    <contour>
      <point x="-8.827586206896552" y="-147.3793103448276" type="line"/>
      <point x="121.24137931034483" y="-121.55172413793103"/>
      <point x="182.93103448275863" y="-43.62068965517241"/>
      <point x="182.93103448275863" y="50.41379310344828" type="curve" smooth="yes"/>
      <point x="182.93103448275863" y="104.06896551724138"/>
      <point x="146.10344827586206" y="134.89655172413794"/>
      <point x="102.44827586206897" y="134.89655172413794" type="curve" smooth="yes"/>
      <point x="66.79310344827586" y="134.89655172413794"/>
      <point x="36.86206896551724" y="113.24137931034483"/>
      <point x="36.86206896551724" y="73.13793103448276" type="curve" smooth="yes"/>
      <point x="36.86206896551724" y="18.758620689655174"/>
      <point x="99.37931034482759" y="19.03448275862069"/>
      <point x="99.37931034482759" y="-18.620689655172413" type="curve" smooth="yes"/>
      <point x="99.37931034482759" y="-58.3448275862069"/>
      <point x="64.37931034482759" y="-87.06896551724138"/>
      <point x="-2.8965517241379306" y="-102.34482758620689" type="curve"/>
    </contour>
    <contour>
      <point x="187.6551724137931" y="396.37931034482756" type="curve" smooth="yes"/>
      <point x="226.0344827586207" y="396.37931034482756"/>
      <point x="263.7931034482759" y="420.82758620689657"/>
      <point x="263.7931034482759" y="482.0344827586207" type="curve" smooth="yes"/>
      <point x="263.7931034482759" y="520.1724137931035"/>
      <point x="237.48275862068965" y="540.2758620689655"/>
      <point x="200.89655172413794" y="540.2758620689655" type="curve" smooth="yes"/>
      <point x="162.3793103448276" y="540.2758620689655"/>
      <point x="124.75862068965517" y="512.2413793103449"/>
      <point x="124.75862068965517" y="456.0689655172414" type="curve" smooth="yes"/>
      <point x="124.75862068965517" y="417.2068965517241"/>
      <point x="150.51724137931035" y="396.37931034482756"/>
    </contour>
  </outline>
</glyph>
<glyph name="less" format="2">
  <advance width="559.0"/>
  <unicode hex="003C"/>
  <outline>
    <contour>
      <point x="494.0" y="108.34482758620689" type="line"/>
      <point x="494.0" y="178.6551724137931" type="line"/>
      <point x="161.86206896551724" y="357.0" type="line"/>
      <point x="494.0" y="537.3448275862069" type="line"/>
      <point x="494.0" y="607.6551724137931" type="line"/>
      <point x="65.0" y="375.82758620689657" type="line"/>
      <point x="65.0" y="339.17241379310343" type="line"/>
    </contour>
  </outline>
</glyph>
<glyph name="equal" format="2">
  <advance width="559.0"/>
  <unicode hex="003D"/>
  <outline>
    <contour>
      <point x="64.44827586206897" y="424.0689655172414" type="line"/>
      <point x="494.55172413793105" y="424.0689655172414" type="line"/>
      <point x="494.55172413793105" y="486.1034482758621" type="line"/>
      <point x="64.44827586206897" y="486.1034482758621" type="line"/>
    </contour>
    <contour>
      <point x="64.44827586206897" y="227.89655172413794" type="line"/>
      <point x="494.55172413793105" y="227.89655172413794" type="line"/>
      <point x="494.55172413793105" y="289.9310344827586" type="line"/>
      <point x="64.44827586206897" y="289.9310344827586" type="line"/>
    </contour>
  </outline>
</glyph>
<glyph name="greater" format="2">
  <advance width="559.0"/>
  <unicode hex="003E"/>
  <outline>
    <contour>
      <point x="65.0" y="108.34482758620689" type="line"/>
      <point x="494.0" y="339.17241379310343" type="line"/>
      <point x="494.0" y="375.82758620689657" type="line"/>
      <point x="65.0" y="607.6551724137931" type="line"/>
      <point x="65.0" y="537.3448275862069" type="line"/>
      <point x="397.13793103448273" y="357.0" type="line"/>
      <point x="65.0" y="178.6551724137931" type="line"/>
    </contour>
  </outline>
</glyph>
<glyph name="question" format="2">
  <advance width="509.6551724137931"/>
  <unicode hex="003F"/>
  <outline>
    <contour>
      <point x="194.6551724137931" y="208.44827586206895" type="line"/>
      <point x="252.68965517241378" y="208.44827586206895" type="line"/>
      <point x="282.3448275862069" y="317.0" type="line"/>
      <point x="422.8965517241379" y="368.0"/>
      <point x="529.1724137931035" y="442.0"/>
      <point x="529.1724137931035" y="558.0" type="curve" smooth="yes"/>
      <point x="529.1724137931035" y="673.0"/>
      <point x="453.41379310344826" y="724.0"/>
      <point x="332.7241379310345" y="724.0" type="curve" smooth="yes"/>
      <point x="201.58620689655172" y="724.0"/>
      <point x="122.72413793103448" y="663.1034482758621"/>
      <point x="122.72413793103448" y="592.551724137931" type="curve" smooth="yes"/>
      <point x="122.72413793103448" y="550.9655172413793"/>
      <point x="152.13793103448276" y="527.8620689655172"/>
      <point x="208.79310344827587" y="527.8620689655172" type="curve"/>
      <point x="219.9655172413793" y="603.8620689655172"/>
      <point x="246.86206896551724" y="670.9655172413793"/>
      <point x="325.0689655172414" y="670.9655172413793" type="curve" smooth="yes"/>
      <point x="376.9310344827586" y="670.9655172413793"/>
      <point x="415.17241379310343" y="632.5172413793103"/>
      <point x="415.17241379310343" y="564.3448275862069" type="curve" smooth="yes"/>
      <point x="415.17241379310343" y="457.51724137931035"/>
      <point x="335.2758620689655" y="394.2758620689655"/>
      <point x="214.3793103448276" y="349.82758620689657" type="curve"/>
    </contour>
    <contour>
      <point x="196.13793103448276" y="-8.0" type="curve" smooth="yes"/>
      <point x="234.51724137931035" y="-8.0"/>
      <point x="272.2758620689655" y="16.448275862068964"/>
      <point x="272.2758620689655" y="77.65517241379311" type="curve" smooth="yes"/>
      <point x="272.2758620689655" y="115.79310344827586"/>
      <point x="245.9655172413793" y="135.89655172413794"/>
      <point x="209.3793103448276" y="135.89655172413794" type="curve" smooth="yes"/>
      <point x="170.86206896551724" y="135.89655172413794"/>
      <point x="133.24137931034483" y="107.86206896551724"/>
      <point x="133.24137931034483" y="51.689655172413794" type="curve" smooth="yes"/>
      <point x="133.24137931034483" y="12.827586206896552"/>
      <point x="159.0" y="-8.0"/>
    </contour>
  </outline>
</glyph>
<glyph name="bracketleft" format="2">
  <advance width="374.8965517241379"/>
  <unicode hex="005B"/>
  <outline>
    <contour>
      <point x="9.413793103448278" y="-128.0" type="line"/>
      <point x="247.31034482758622" y="-128.0" type="line"/>
      <point x="256.86206896551727" y="-82.9655172413793" type="line"/>
      <point x="213.86206896551724" y="-82.9655172413793" type="line" smooth="yes"/>
      <point x="172.9655172413793" y="-82.9655172413793"/>
      <point x="142.6896551724138" y="-76.9655172413793"/>
      <point x="142.6896551724138" y="-41.03448275862069" type="curve" smooth="yes"/>
      <point x="142.6896551724138" y="-34.758620689655174"/>
      <point x="144.41379310344828" y="-22.413793103448274"/>
      <point x="146.41379310344828" y="-13.86206896551724" type="curve"/>
      <point x="286.48275862068965" y="642.9655172413793" type="line"/>
      <point x="299.48275862068965" y="705.9655172413793"/>
      <point x="339.0344827586207" y="714.9655172413793"/>
      <point x="383.7586206896552" y="714.9655172413793" type="curve" smooth="yes"/>
      <point x="426.7586206896552" y="714.9655172413793" type="line"/>
      <point x="436.3103448275862" y="760.0" type="line"/>
      <point x="198.41379310344828" y="760.0" type="line"/>
    </contour>
  </outline>
</glyph>
<glyph name="backslash" format="2">
  <advance width="288.0"/>
  <unicode hex="005C"/>
  <outline>
    <contour>
      <point x="156.93103448275863" y="-121.0" type="line"/>
      <point x="218.9655172413793" y="-121.0" type="line"/>
      <point x="172.93103448275863" y="760.0" type="line"/>
      <point x="111.62068965517241" y="760.0" type="line"/>
    </contour>
  </outline>
</glyph>
<glyph name="bracketright" format="2">
  <advance width="374.8965517241379"/>
  <unicode hex="005D"/>
  <outline>
    <contour>
      <point x="-48.6551724137931" y="-128.0" type="line"/>
      <point x="188.24137931034483" y="-128.0" type="line"/>
      <point x="377.2413793103448" y="760.0" type="line"/>
      <point x="139.3448275862069" y="760.0" type="line"/>
      <point x="129.79310344827587" y="714.9655172413793" type="line"/>
      <point x="172.79310344827587" y="714.9655172413793" type="line" smooth="yes"/>
      <point x="213.68965517241378" y="714.9655172413793"/>
      <point x="243.9655172413793" y="708.9655172413793"/>
      <point x="243.9655172413793" y="673.0344827586207" type="curve" smooth="yes"/>
      <point x="243.9655172413793" y="666.7586206896551"/>
      <point x="242.24137931034483" y="654.4137931034483"/>
      <point x="240.24137931034483" y="645.8620689655172" type="curve" smooth="yes"/>
      <point x="100.17241379310344" y="-10.96551724137931" type="line"/>
      <point x="87.17241379310344" y="-73.9655172413793"/>
      <point x="47.89655172413793" y="-82.9655172413793"/>
      <point x="3.8965517241379306" y="-82.9655172413793" type="curve" smooth="yes"/>
      <point x="-39.10344827586207" y="-82.9655172413793" type="line"/>
    </contour>
  </outline>
</glyph>
<glyph name="asciicircum" format="2">
  <advance width="559.0"/>
  <unicode hex="005E"/>
  <outline>
    <contour>
      <point x="49.62068965517241" y="264.8965517241379" type="line"/>
      <point x="119.65517241379311" y="264.8965517241379" type="line"/>
      <point x="278.0" y="617.3103448275862" type="line"/>
      <point x="438.3448275862069" y="264.8965517241379" type="line"/>
      <point x="508.37931034482756" y="264.8965517241379" type="line"/>
      <point x="297.1034482758621" y="714.0" type="line"/>
      <point x="259.8965517241379" y="714.0" type="line"/>
    </contour>
  </outline>
</glyph>
<glyph name="underscore" format="2">
  <advance width="459.0"/>
  <unicode hex="005F"/>
  <outline>
    <contour>
      <point x="-91.0" y="-142.0" type="line"/>
      <point x="377.0" y="-142.0" type="line"/>
      <point x="390.0" y="-83.0" type="line"/>
      <point x="-78.0" y="-83.0" type="line"/>
    </contour>
  </outline>
</glyph>
<glyph name="braceleft" format="2">
  <advance width="431.86206896551727"/>
  <unicode hex="007B"/>
  <outline>
    <contour>
      <point x="233.6551724137931" y="-127.17241379310344" type="curve" smooth="yes"/>
      <point x="307.6551724137931" y="-127.17241379310344" type="line"/>
      <point x="317.48275862068965" y="-81.41379310344827" type="line"/>
      <point x="285.0" y="-81.41379310344827" type="line" smooth="yes"/>
      <point x="241.10344827586206" y="-81.41379310344827"/>
      <point x="222.48275862068965" y="-60.241379310344826"/>
      <point x="222.48275862068965" y="-21.17241379310345" type="curve" smooth="yes"/>
      <point x="222.48275862068965" y="-8.89655172413793"/>
      <point x="224.20689655172413" y="5.379310344827586"/>
      <point x="227.48275862068965" y="21.655172413793103" type="curve" smooth="yes"/>
      <point x="264.48275862068965" y="193.3793103448276" type="line" smooth="yes"/>
      <point x="266.48275862068965" y="204.10344827586206"/>
      <point x="268.2068965517241" y="213.82758620689654"/>
      <point x="268.2068965517241" y="223.55172413793105" type="curve" smooth="yes"/>
      <point x="268.2068965517241" y="270.44827586206895"/>
      <point x="238.75862068965517" y="302.62068965517244"/>
      <point x="179.48275862068965" y="314.2758620689655" type="curve"/>
      <point x="180.0344827586207" y="319.37931034482756" type="line"/>
      <point x="259.58620689655174" y="333.7586206896552"/>
      <point x="302.48275862068965" y="375.6551724137931"/>
      <point x="316.2068965517241" y="440.0" type="curve" smooth="yes"/>
      <point x="353.2068965517241" y="611.448275862069" type="line" smooth="yes"/>
      <point x="367.9310344827586" y="678.0689655172414"/>
      <point x="395.8965517241379" y="714.2413793103449"/>
      <point x="454.3448275862069" y="714.2413793103449" type="curve" smooth="yes"/>
      <point x="486.82758620689657" y="714.2413793103449" type="line"/>
      <point x="496.37931034482756" y="760.0" type="line"/>
      <point x="422.37931034482756" y="760.0" type="line" smooth="yes"/>
      <point x="295.1034482758621" y="760.0"/>
      <point x="259.48275862068965" y="706.7586206896551"/>
      <point x="239.9310344827586" y="615.448275862069" type="curve" smooth="yes"/>
      <point x="203.20689655172413" y="442.7241379310345" type="line" smooth="yes"/>
      <point x="185.75862068965517" y="362.6551724137931"/>
      <point x="130.31034482758622" y="343.7586206896552"/>
      <point x="64.3103448275862" y="341.0344827586207" type="curve"/>
      <point x="54.206896551724135" y="293.7931034482759" type="line"/>
      <point x="110.20689655172414" y="291.7931034482759"/>
      <point x="153.20689655172413" y="276.17241379310343"/>
      <point x="153.20689655172413" y="221.72413793103448" type="curve" smooth="yes"/>
      <point x="153.20689655172413" y="212.27586206896552"/>
      <point x="152.20689655172413" y="202.55172413793105"/>
      <point x="149.48275862068965" y="191.10344827586206" type="curve" smooth="yes"/>
      <point x="114.41379310344827" y="25.758620689655174" type="line" smooth="yes"/>
      <point x="109.75862068965517" y="2.758620689655173"/>
      <point x="108.03448275862068" y="-11.241379310344827"/>
      <point x="108.03448275862068" y="-23.96551724137931" type="curve" smooth="yes"/>
      <point x="108.03448275862068" y="-89.79310344827586"/>
      <point x="150.9655172413793" y="-127.17241379310344"/>
    </contour>
  </outline>
</glyph>
<glyph name="braceright" format="2">
  <advance width="431.86206896551727"/>
  <unicode hex="007D"/>
  <outline>
    <contour>
      <point x="-51.10344827586207" y="-126.89655172413794" type="line"/>
      <point x="22.896551724137932" y="-126.89655172413794" type="line" smooth="yes"/>
      <point x="150.17241379310346" y="-126.89655172413794"/>
      <point x="185.79310344827587" y="-73.65517241379311"/>
      <point x="205.3448275862069" y="17.655172413793103" type="curve" smooth="yes"/>
      <point x="242.0689655172414" y="191.10344827586206" type="line" smooth="yes"/>
      <point x="258.7931034482759" y="271.17241379310343"/>
      <point x="314.9655172413793" y="290.7931034482759"/>
      <point x="380.9655172413793" y="293.51724137931035" type="curve"/>
      <point x="391.0689655172414" y="340.7586206896552" type="line"/>
      <point x="335.0689655172414" y="342.7586206896552"/>
      <point x="292.0689655172414" y="357.6551724137931"/>
      <point x="292.0689655172414" y="412.1034482758621" type="curve" smooth="yes"/>
      <point x="292.0689655172414" y="421.55172413793105"/>
      <point x="293.0689655172414" y="431.2758620689655"/>
      <point x="295.7931034482759" y="442.7241379310345" type="curve" smooth="yes"/>
      <point x="330.86206896551727" y="607.3448275862069" type="line" smooth="yes"/>
      <point x="335.51724137931035" y="630.3448275862069"/>
      <point x="337.2413793103448" y="644.3448275862069"/>
      <point x="337.2413793103448" y="657.0689655172414" type="curve" smooth="yes"/>
      <point x="337.2413793103448" y="722.8965517241379"/>
      <point x="294.3103448275862" y="760.2758620689655"/>
      <point x="211.6206896551724" y="760.2758620689655" type="curve" smooth="yes"/>
      <point x="137.6206896551724" y="760.2758620689655" type="line"/>
      <point x="127.79310344827586" y="714.5172413793103" type="line"/>
      <point x="160.27586206896552" y="714.5172413793103" type="line" smooth="yes"/>
      <point x="204.17241379310346" y="714.5172413793103"/>
      <point x="222.79310344827587" y="693.3448275862069"/>
      <point x="222.79310344827587" y="654.2758620689655" type="curve" smooth="yes"/>
      <point x="222.79310344827587" y="642.0"/>
      <point x="221.06896551724137" y="627.7241379310345"/>
      <point x="217.79310344827587" y="611.448275862069" type="curve" smooth="yes"/>
      <point x="180.79310344827587" y="440.44827586206895" type="line" smooth="yes"/>
      <point x="178.79310344827587" y="429.7241379310345"/>
      <point x="177.06896551724137" y="420.0"/>
      <point x="177.06896551724137" y="410.2758620689655" type="curve" smooth="yes"/>
      <point x="177.06896551724137" y="363.37931034482756"/>
      <point x="206.51724137931035" y="331.9310344827586"/>
      <point x="265.7931034482759" y="320.2758620689655" type="curve"/>
      <point x="265.2413793103448" y="315.17241379310343" type="line"/>
      <point x="185.68965517241378" y="300.7931034482759"/>
      <point x="142.79310344827587" y="258.17241379310343"/>
      <point x="129.06896551724137" y="193.82758620689654" type="curve" smooth="yes"/>
      <point x="92.06896551724138" y="21.655172413793103" type="line" smooth="yes"/>
      <point x="77.34482758620689" y="-44.96551724137931"/>
      <point x="49.37931034482759" y="-81.13793103448276"/>
      <point x="-9.068965517241379" y="-81.13793103448276" type="curve" smooth="yes"/>
      <point x="-41.55172413793103" y="-81.13793103448276" type="line"/>
    </contour>
  </outline>
</glyph>
<glyph name="asciitilde" format="2">
  <advance width="559.0"/>
  <unicode hex="007E"/>
  <outline>
    <contour>
      <point x="51.793103448275865" y="267.0689655172414" type="curve"/>
      <point x="114.65517241379311" y="267.0689655172414" type="line"/>
      <point x="120.0" y="345.8965517241379"/>
      <point x="137.82758620689654" y="383.0689655172414"/>
      <point x="177.10344827586206" y="383.0689655172414" type="curve" smooth="yes"/>
      <point x="205.06896551724137" y="383.0689655172414"/>
      <point x="225.20689655172413" y="363.9310344827586"/>
      <point x="260.3448275862069" y="330.62068965517244" type="curve" smooth="yes"/>
      <point x="301.48275862068965" y="291.3103448275862"/>
      <point x="336.37931034482756" y="267.0689655172414"/>
      <point x="382.2758620689655" y="267.0689655172414" type="curve" smooth="yes"/>
      <point x="476.2758620689655" y="267.0689655172414"/>
      <point x="499.3103448275862" y="366.7241379310345"/>
      <point x="506.2068965517241" y="445.9310344827586" type="curve"/>
      <point x="442.3448275862069" y="445.9310344827586" type="line"/>
      <point x="435.0" y="370.82758620689657"/>
      <point x="418.8965517241379" y="329.9310344827586"/>
      <point x="382.44827586206895" y="329.9310344827586" type="curve" smooth="yes"/>
      <point x="356.6551724137931" y="329.9310344827586"/>
      <point x="333.9655172413793" y="351.17241379310343"/>
      <point x="302.37931034482756" y="379.6551724137931" type="curve" smooth="yes"/>
      <point x="253.17241379310346" y="423.7586206896552"/>
      <point x="223.10344827586206" y="445.9310344827586"/>
      <point x="176.55172413793105" y="445.9310344827586" type="curve" smooth="yes"/>
      <point x="79.62068965517241" y="445.9310344827586"/>
      <point x="56.86206896551724" y="349.58620689655174"/>
    </contour>
  </outline>
</glyph>
<glyph name="twosuperior" format="2">
  <advance width="400.0"/>
  <unicode hex="00B2"/>
  <outline>
    <contour>
      <point x="57.55172413793103" y="386.0" type="line"/>
      <point x="365.51724137931035" y="386.0" type="line"/>
      <point x="393.51724137931035" y="510.7931034482759" type="line"/>
      <point x="358.13793103448273" y="510.7931034482759" type="line"/>
      <point x="350.13793103448273" y="489.7931034482759" type="line" smooth="yes"/>
      <point x="342.13793103448273" y="467.7931034482759"/>
      <point x="328.13793103448273" y="448.7931034482759"/>
      <point x="297.13793103448273" y="448.7931034482759" type="curve" smooth="yes"/>
      <point x="156.6551724137931" y="448.7931034482759" type="line"/>
      <point x="278.0344827586207" y="542.4137931034483" type="line" smooth="yes"/>
      <point x="387.41379310344826" y="627.0344827586207"/>
      <point x="418.7931034482759" y="672.2068965517242"/>
      <point x="418.7931034482759" y="730.3793103448276" type="curve" smooth="yes"/>
      <point x="418.7931034482759" y="786.551724137931"/>
      <point x="367.2413793103448" y="824.0"/>
      <point x="286.41379310344826" y="824.0" type="curve" smooth="yes"/>
      <point x="190.86206896551724" y="824.0"/>
      <point x="133.31034482758622" y="786.448275862069"/>
      <point x="133.31034482758622" y="735.3448275862069" type="curve" smooth="yes"/>
      <point x="133.31034482758622" y="706.7931034482758"/>
      <point x="158.68965517241378" y="686.5172413793103"/>
      <point x="200.6206896551724" y="686.5172413793103" type="curve"/>
      <point x="207.3448275862069" y="737.0689655172414"/>
      <point x="234.9655172413793" y="782.6206896551724"/>
      <point x="277.7586206896552" y="782.6206896551724" type="curve" smooth="yes"/>
      <point x="313.1034482758621" y="782.6206896551724"/>
      <point x="325.55172413793105" y="754.7241379310345"/>
      <point x="325.55172413793105" y="726.551724137931" type="curve" smooth="yes"/>
      <point x="325.55172413793105" y="664.0344827586207"/>
      <point x="300.55172413793105" y="616.3103448275862"/>
      <point x="218.10344827586206" y="550.0689655172414" type="curve" smooth="yes"/>
      <point x="65.0344827586207" y="427.58620689655174" type="line"/>
    </contour>
  </outline>
</glyph>
<glyph name="threesuperior" format="2">
  <advance width="400.0"/>
  <unicode hex="00B3"/>
  <outline>
    <contour>
      <point x="211.10344827586206" y="380.0" type="curve" smooth="yes"/>
      <point x="325.37931034482756" y="380.0"/>
      <point x="406.7586206896552" y="428.0"/>
      <point x="406.7586206896552" y="518.0" type="curve" smooth="yes"/>
      <point x="406.7586206896552" y="573.0"/>
      <point x="366.7586206896552" y="603.0"/>
      <point x="305.7586206896552" y="610.0" type="curve"/>
      <point x="306.7586206896552" y="615.0" type="line"/>
      <point x="379.7586206896552" y="630.0"/>
      <point x="434.2068965517241" y="663.0"/>
      <point x="434.2068965517241" y="733.0" type="curve" smooth="yes"/>
      <point x="434.2068965517241" y="783.0"/>
      <point x="390.9310344827586" y="824.0"/>
      <point x="298.1034482758621" y="824.0" type="curve" smooth="yes"/>
      <point x="201.55172413793105" y="824.0"/>
      <point x="144.0" y="785.7241379310345"/>
      <point x="144.0" y="738.7241379310345" type="curve" smooth="yes"/>
      <point x="144.0" y="706.7241379310345"/>
      <point x="171.6551724137931" y="695.6206896551724"/>
      <point x="214.13793103448276" y="695.6206896551724" type="curve"/>
      <point x="222.58620689655172" y="741.6206896551724"/>
      <point x="245.48275862068965" y="782.6206896551724"/>
      <point x="294.2758620689655" y="782.6206896551724" type="curve" smooth="yes"/>
      <point x="324.62068965517244" y="782.6206896551724"/>
      <point x="338.0689655172414" y="762.8965517241379"/>
      <point x="338.0689655172414" y="736.1724137931035" type="curve" smooth="yes"/>
      <point x="338.0689655172414" y="668.7241379310345"/>
      <point x="285.44827586206895" y="630.0"/>
      <point x="228.72413793103448" y="630.0" type="curve" smooth="yes"/>
      <point x="195.44827586206895" y="630.0" type="line"/>
      <point x="187.44827586206895" y="587.3448275862069" type="line"/>
      <point x="220.44827586206895" y="587.3448275862069" type="line" smooth="yes"/>
      <point x="283.44827586206895" y="587.3448275862069"/>
      <point x="311.44827586206895" y="553.1724137931035"/>
      <point x="311.44827586206895" y="514.0" type="curve" smooth="yes"/>
      <point x="311.44827586206895" y="451.37931034482756"/>
      <point x="271.0" y="426.9310344827586"/>
      <point x="218.6551724137931" y="426.9310344827586" type="curve" smooth="yes"/>
      <point x="160.10344827586206" y="426.9310344827586"/>
      <point x="137.3793103448276" y="474.2068965517241"/>
      <point x="137.3793103448276" y="512.9310344827586" type="curve"/>
      <point x="102.62068965517241" y="512.9310344827586"/>
      <point x="75.6896551724138" y="494.1034482758621"/>
      <point x="75.6896551724138" y="458.1034482758621" type="curve" smooth="yes"/>
      <point x="75.6896551724138" y="410.2758620689655"/>
      <point x="123.51724137931035" y="380.0"/>
    </contour>
  </outline>
</glyph>
<glyph name="multiply" format="2">
  <advance width="559.0"/>
  <unicode hex="00D7"/>
  <outline>
    <contour>
      <point x="118.24137931034483" y="152.75862068965517" type="line"/>
      <point x="279.0" y="313.7931034482759" type="line"/>
      <point x="440.0344827586207" y="152.75862068965517" type="line"/>
      <point x="484.2413793103448" y="196.9655172413793" type="line"/>
      <point x="323.2068965517241" y="358.0" type="line"/>
      <point x="484.2413793103448" y="519.0344827586207" type="line"/>
      <point x="439.7586206896552" y="564.2413793103449" type="line"/>
      <point x="279.0" y="402.48275862068965" type="line"/>
      <point x="118.24137931034483" y="563.2413793103449" type="line"/>
      <point x="73.75862068965517" y="519.0344827586207" type="line"/>
      <point x="234.51724137931035" y="359.0" type="line"/>
      <point x="73.75862068965517" y="197.9655172413793" type="line"/>
    </contour>
  </outline>
</glyph>
<glyph name="divide" format="2">
  <advance width="559.0"/>
  <unicode hex="00F7"/>
  <outline>
    <contour>
      <point x="65.0" y="326.3448275862069" type="line"/>
      <point x="494.0" y="326.3448275862069" type="line"/>
      <point x="494.0" y="388.6551724137931" type="line"/>
      <point x="65.0" y="388.6551724137931" type="line"/>
    </contour>
    <contour>
      <point x="280.0" y="111.34482758620689" type="curve" smooth="yes"/>
      <point x="308.82758620689657" y="111.34482758620689"/>
      <point x="332.37931034482756" y="125.89655172413794"/>
      <point x="332.37931034482756" y="168.0" type="curve" smooth="yes"/>
      <point x="332.37931034482756" y="211.10344827586206"/>
      <point x="308.82758620689657" y="224.6551724137931"/>
      <point x="280.0" y="224.6551724137931" type="curve" smooth="yes"/>
      <point x="250.17241379310346" y="224.6551724137931"/>
      <point x="227.6206896551724" y="211.10344827586206"/>
      <point x="227.6206896551724" y="168.0" type="curve" smooth="yes"/>
      <point x="227.6206896551724" y="125.89655172413794"/>
      <point x="250.17241379310346" y="111.34482758620689"/>
    </contour>
    <contour>
      <point x="280.0" y="490.3448275862069" type="curve" smooth="yes"/>
      <point x="308.82758620689657" y="490.3448275862069"/>
      <point x="332.37931034482756" y="504.8965517241379"/>
      <point x="332.37931034482756" y="547.0" type="curve" smooth="yes"/>
      <point x="332.37931034482756" y="590.1034482758621"/>
      <point x="308.82758620689657" y="603.6551724137931"/>
      <point x="280.0" y="603.6551724137931" type="curve" smooth="yes"/>
      <point x="250.17241379310346" y="603.6551724137931"/>
      <point x="227.6206896551724" y="590.1034482758621"/>
      <point x="227.6206896551724" y="547.0" type="curve" smooth="yes"/>
      <point x="227.6206896551724" y="504.8965517241379"/>
      <point x="250.17241379310346" y="490.3448275862069"/>
    </contour>
  </outline>
</glyph>
<glyph name="udatta-deva" format="2">
  <unicode hex="0951"/>
  <anchor x="59.55172413793103" y="556.4827586206897" name="_vedic"/>
  <outline>
    <contour>
      <point x="106.51724137931035" y="916.9655172413793" type="line"/>
      <point x="166.41379310344828" y="916.9655172413793" type="line"/>
      <point x="208.24137931034483" y="1114.7241379310344" type="line"/>
      <point x="148.06896551724137" y="1114.7241379310344" type="line"/>
    </contour>
  </outline>
</glyph>
<glyph name="anudatta-deva" format="2">
  <unicode hex="0952"/>
  <anchor x="-59.0" y="0.0" name="_bottom"/>
  <outline>
    <contour>
      <point x="-380.13793103448273" y="-560.7931034482758" type="line"/>
      <point x="24.344827586206897" y="-560.7931034482758" type="line"/>
      <point x="39.72413793103448" y="-487.17241379310343" type="line"/>
      <point x="-364.7586206896552" y="-487.17241379310343" type="line"/>
    </contour>
  </outline>
</glyph>
<glyph name="danda-deva" format="2">
  <advance width="311.41379310344826"/>
  <unicode hex="0964"/>
  <outline>
    <contour>
      <point x="40.41379310344828" y="0.0" type="line"/>
      <point x="152.44827586206895" y="0.0" type="line"/>
      <point x="271.0" y="556.4827586206897" type="line"/>
      <point x="158.9655172413793" y="556.4827586206897" type="line"/>
    </contour>
  </outline>
</glyph>
<glyph name="dbldanda-deva" format="2">
  <advance width="561.2068965517242"/>
  <unicode hex="0965"/>
  <outline>
    <contour>
      <point x="290.48275862068965" y="0.0" type="line"/>
      <point x="402.2413793103448" y="0.0" type="line"/>
      <point x="520.7931034482758" y="556.4827586206897" type="line"/>
      <point x="408.7586206896552" y="556.4827586206897" type="line"/>
    </contour>
    <contour>
      <point x="40.41379310344828" y="0.0" type="line"/>
      <point x="152.44827586206895" y="0.0" type="line"/>
      <point x="271.0" y="556.4827586206897" type="line"/>
      <point x="158.9655172413793" y="556.4827586206897" type="line"/>
    </contour>
  </outline>
</glyph>
<glyph name="anusvara-tamil" format="2">
  <unicode hex="0B82"/>
  <note>
uni0B82
</note>
  <anchor x="59.55172413793103" y="556.4827586206897" name="_top"/>
  <outline>
    <contour>
      <point x="101.55172413793103" y="629.4137931034483" type="curve" smooth="yes"/>
      <point x="174.0344827586207" y="629.4137931034483"/>
      <point x="228.6206896551724" y="681.0"/>
      <point x="228.6206896551724" y="754.3103448275862" type="curve" smooth="yes"/>
      <point x="228.6206896551724" y="828.3448275862069"/>
      <point x="174.0344827586207" y="879.9310344827586"/>
      <point x="101.55172413793103" y="879.9310344827586" type="curve" smooth="yes"/>
      <point x="29.06896551724138" y="879.9310344827586"/>
      <point x="-25.517241379310345" y="828.3448275862069"/>
      <point x="-25.517241379310345" y="754.3103448275862" type="curve" smooth="yes"/>
      <point x="-25.517241379310345" y="681.0"/>
      <point x="29.06896551724138" y="629.4137931034483"/>
    </contour>
    <contour>
      <point x="101.55172413793103" y="689.7586206896551" type="curve" smooth="yes"/>
      <point x="65.37931034482759" y="689.7586206896551"/>
      <point x="38.55172413793103" y="716.5862068965517"/>
      <point x="38.55172413793103" y="754.3103448275862" type="curve" smooth="yes"/>
      <point x="38.55172413793103" y="792.4827586206897"/>
      <point x="65.37931034482759" y="819.3103448275862"/>
      <point x="101.55172413793103" y="819.3103448275862" type="curve" smooth="yes"/>
      <point x="137.72413793103448" y="819.3103448275862"/>
      <point x="164.55172413793105" y="792.4827586206897"/>
      <point x="164.55172413793105" y="754.3103448275862" type="curve" smooth="yes"/>
      <point x="164.55172413793105" y="716.5862068965517"/>
      <point x="137.72413793103448" y="689.7586206896551"/>
    </contour>
  </outline>
</glyph>
<glyph name="visarga-tamil" format="2">
  <advance width="894.4827586206897"/>
  <unicode hex="0B83"/>
  <note>
uni0B83
</note>
  <outline>
    <contour>
      <point x="178.82758620689654" y="-1.3793103448275865" type="curve" smooth="yes"/>
      <point x="288.17241379310343" y="-1.3793103448275865"/>
      <point x="382.2413793103448" y="80.55172413793103"/>
      <point x="382.2413793103448" y="213.17241379310346" type="curve" smooth="yes"/>
      <point x="382.2413793103448" y="319.62068965517244"/>
      <point x="314.3448275862069" y="370.1034482758621"/>
      <point x="224.10344827586206" y="370.1034482758621" type="curve" smooth="yes"/>
      <point x="108.82758620689656" y="370.1034482758621"/>
      <point x="31.06896551724138" y="268.51724137931035"/>
      <point x="31.06896551724138" y="158.6206896551724" type="curve" smooth="yes"/>
      <point x="31.06896551724138" y="69.72413793103448"/>
      <point x="80.51724137931035" y="-1.3793103448275865"/>
    </contour>
    <contour>
      <point x="169.17241379310346" y="49.827586206896555" type="curve" smooth="yes"/>
      <point x="111.82758620689656" y="49.827586206896555"/>
      <point x="84.0344827586207" y="95.82758620689656"/>
      <point x="84.0344827586207" y="160.6206896551724" type="curve" smooth="yes"/>
      <point x="84.0344827586207" y="239.6551724137931"/>
      <point x="131.0344827586207" y="319.62068965517244"/>
      <point x="210.6206896551724" y="319.62068965517244" type="curve" smooth="yes"/>
      <point x="263.51724137931035" y="319.62068965517244"/>
      <point x="297.48275862068965" y="288.8965517241379"/>
      <point x="297.48275862068965" y="220.72413793103448" type="curve" smooth="yes"/>
      <point x="297.48275862068965" y="120.27586206896552"/>
      <point x="246.51724137931035" y="49.827586206896555"/>
    </contour>
    <contour>
      <point x="620.3793103448276" y="-1.3793103448275865" type="curve" smooth="yes"/>
      <point x="729.7241379310345" y="-1.3793103448275865"/>
      <point x="823.7931034482758" y="80.55172413793103"/>
      <point x="823.7931034482758" y="213.17241379310346" type="curve" smooth="yes"/>
      <point x="823.7931034482758" y="319.62068965517244"/>
      <point x="755.8965517241379" y="370.1034482758621"/>
      <point x="665.6551724137931" y="370.1034482758621" type="curve" smooth="yes"/>
      <point x="550.3793103448276" y="370.1034482758621"/>
      <point x="472.62068965517244" y="268.51724137931035"/>
      <point x="472.62068965517244" y="158.6206896551724" type="curve" smooth="yes"/>
      <point x="472.62068965517244" y="69.72413793103448"/>
      <point x="522.0689655172414" y="-1.3793103448275865"/>
    </contour>
    <contour>
      <point x="610.7241379310345" y="49.827586206896555" type="curve" smooth="yes"/>
      <point x="553.3793103448276" y="49.827586206896555"/>
      <point x="525.5862068965517" y="95.82758620689656"/>
      <point x="525.5862068965517" y="160.6206896551724" type="curve" smooth="yes"/>
      <point x="525.5862068965517" y="239.6551724137931"/>
      <point x="572.5862068965517" y="319.62068965517244"/>
      <point x="652.1724137931035" y="319.62068965517244" type="curve" smooth="yes"/>
      <point x="705.0689655172414" y="319.62068965517244"/>
      <point x="739.0344827586207" y="288.8965517241379"/>
      <point x="739.0344827586207" y="220.72413793103448" type="curve" smooth="yes"/>
      <point x="739.0344827586207" y="120.27586206896552"/>
      <point x="688.0689655172414" y="49.827586206896555"/>
    </contour>
    <contour>
      <point x="484.2413793103448" y="419.17241379310343" type="curve" smooth="yes"/>
      <point x="593.5862068965517" y="419.17241379310343"/>
      <point x="687.6551724137931" y="501.1034482758621"/>
      <point x="687.6551724137931" y="633.7241379310345" type="curve" smooth="yes"/>
      <point x="687.6551724137931" y="740.1724137931035"/>
      <point x="619.7586206896551" y="790.6551724137931"/>
      <point x="529.5172413793103" y="790.6551724137931" type="curve" smooth="yes"/>
      <point x="414.2413793103448" y="790.6551724137931"/>
      <point x="336.48275862068965" y="689.0689655172414"/>
      <point x="336.48275862068965" y="579.1724137931035" type="curve" smooth="yes"/>
      <point x="336.48275862068965" y="490.2758620689655"/>
      <point x="385.9310344827586" y="419.17241379310343"/>
    </contour>
    <contour>
      <point x="474.58620689655174" y="470.37931034482756" type="curve" smooth="yes"/>
      <point x="417.2413793103448" y="470.37931034482756"/>
      <point x="389.44827586206895" y="516.3793103448276"/>
      <point x="389.44827586206895" y="581.1724137931035" type="curve" smooth="yes"/>
      <point x="389.44827586206895" y="660.2068965517242"/>
      <point x="436.44827586206895" y="740.1724137931035"/>
      <point x="516.0344827586207" y="740.1724137931035" type="curve" smooth="yes"/>
      <point x="568.9310344827586" y="740.1724137931035"/>
      <point x="602.8965517241379" y="709.448275862069"/>
      <point x="602.8965517241379" y="641.2758620689655" type="curve" smooth="yes"/>
      <point x="602.8965517241379" y="540.8275862068965"/>
      <point x="551.9310344827586" y="470.37931034482756"/>
    </contour>
  </outline>
</glyph>
<glyph name="a-tamil" format="2">
  <advance width="1310.344827586207"/>
  <unicode hex="0B85"/>
  <note>
uni0B85
</note>
  <anchor x="567.1379310344828" y="0.0" name="bottom"/>
  <anchor x="363.2068965517241" y="-130.0" name="nukta"/>
  <anchor x="692.1034482758621" y="556.4827586206897" name="top"/>
  <anchor x="692.1034482758621" y="556.4827586206897" name="vedic"/>
  <outline>
    <contour>
      <point x="1001.5172413793103" y="-207.0" type="line"/>
      <point x="1112.1724137931035" y="-207.0" type="line"/>
      <point x="1274.3793103448277" y="556.4827586206897" type="line"/>
      <point x="1163.7241379310344" y="556.4827586206897" type="line"/>
      <point x="1081.896551724138" y="169.3448275862069" type="line"/>
      <point x="96.89655172413794" y="169.3448275862069" type="line" smooth="yes"/>
      <point x="30.413793103448274" y="169.3448275862069"/>
      <point x="-6.13793103448276" y="132.0344827586207"/>
      <point x="-6.13793103448276" y="73.93103448275862" type="curve" smooth="yes"/>
      <point x="-6.13793103448276" y="-20.827586206896555"/>
      <point x="145.44827586206895" y="-130.0"/>
      <point x="384.8965517241379" y="-130.0" type="curve" smooth="yes"/>
      <point x="697.6896551724138" y="-130.0"/>
      <point x="952.1724137931035" y="-3.4137931034482767"/>
      <point x="952.1724137931035" y="288.2068965517241" type="curve" smooth="yes"/>
      <point x="952.1724137931035" y="471.8965517241379"/>
      <point x="815.2068965517242" y="561.4827586206897"/>
      <point x="649.0689655172414" y="561.4827586206897" type="curve" smooth="yes"/>
      <point x="507.7241379310345" y="561.4827586206897"/>
      <point x="395.7931034482759" y="482.7241379310345"/>
      <point x="395.7931034482759" y="367.41379310344826" type="curve" smooth="yes"/>
      <point x="395.7931034482759" y="298.9310344827586"/>
      <point x="446.0" y="239.27586206896552"/>
      <point x="541.9310344827586" y="239.27586206896552" type="curve" smooth="yes"/>
      <point x="638.0689655172414" y="239.27586206896552"/>
      <point x="705.0" y="292.3103448275862"/>
      <point x="705.0" y="386.9310344827586" type="curve" smooth="yes"/>
      <point x="705.0" y="452.9655172413793"/>
      <point x="658.448275862069" y="501.7931034482759"/>
      <point x="599.7241379310345" y="518.448275862069" type="curve"/>
      <point x="543.3448275862069" y="514.8965517241379" type="line"/>
      <point x="587.4137931034483" y="494.7241379310345"/>
      <point x="611.3793103448276" y="450.2758620689655"/>
      <point x="611.3793103448276" y="402.51724137931035" type="curve" smooth="yes"/>
      <point x="611.3793103448276" y="340.2758620689655"/>
      <point x="579.6551724137931" y="302.1034482758621"/>
      <point x="524.6551724137931" y="302.1034482758621" type="curve" smooth="yes"/>
      <point x="485.41379310344826" y="302.1034482758621"/>
      <point x="457.7586206896552" y="328.0689655172414"/>
      <point x="457.7586206896552" y="367.8965517241379" type="curve" smooth="yes"/>
      <point x="457.7586206896552" y="451.62068965517244"/>
      <point x="537.3793103448276" y="505.2758620689655"/>
      <point x="637.4137931034483" y="505.2758620689655" type="curve" smooth="yes"/>
      <point x="749.8275862068965" y="505.2758620689655"/>
      <point x="841.7241379310345" y="428.7586206896552"/>
      <point x="841.7241379310345" y="293.41379310344826" type="curve" smooth="yes"/>
      <point x="841.7241379310345" y="39.689655172413794"/>
      <point x="638.7931034482758" y="-73.79310344827586"/>
      <point x="386.13793103448273" y="-73.79310344827586" type="curve" smooth="yes"/>
      <point x="188.9310344827586" y="-73.79310344827586"/>
      <point x="54.62068965517241" y="10.172413793103447"/>
      <point x="54.62068965517241" y="75.48275862068965" type="curve" smooth="yes"/>
      <point x="54.62068965517241" y="98.58620689655173"/>
      <point x="62.89655172413793" y="113.41379310344827"/>
      <point x="94.72413793103448" y="113.41379310344827" type="curve" smooth="yes"/>
      <point x="1070.344827586207" y="113.41379310344827" type="line"/>
    </contour>
  </outline>
</glyph>
<glyph name="aa-tamil" format="2">
  <advance width="1488.896551724138"/>
  <unicode hex="0B86"/>
  <note>
uni0B86
</note>
  <anchor x="672.4827586206897" y="0.0" name="bottom"/>
  <anchor x="363.2068965517241" y="-130.0" name="nukta"/>
  <anchor x="797.8965517241379" y="556.4827586206897" name="top"/>
  <anchor x="797.448275862069" y="556.4827586206897" name="vedic"/>
  <outline>
    <contour>
      <point x="897.3103448275862" y="-447.6896551724138" type="curve" smooth="yes"/>
      <point x="1145.1379310344828" y="-447.6896551724138"/>
      <point x="1383.103448275862" y="-300.9310344827586"/>
      <point x="1383.103448275862" y="-73.86206896551724" type="curve" smooth="yes"/>
      <point x="1383.103448275862" y="16.448275862068968"/>
      <point x="1330.0" y="55.758620689655174"/>
      <point x="1266.3103448275863" y="55.758620689655174" type="curve" smooth="yes"/>
      <point x="1196.344827586207" y="55.758620689655174"/>
      <point x="1133.1379310344828" y="-2.965517241379308"/>
      <point x="1105.7241379310344" y="-103.89655172413794" type="curve"/>
      <point x="1129.3793103448277" y="-114.51724137931035" type="line"/>
      <point x="1141.655172413793" y="-57.13793103448276"/>
      <point x="1179.7586206896551" y="-32.96551724137931"/>
      <point x="1213.2068965517242" y="-32.96551724137931" type="curve" smooth="yes"/>
      <point x="1249.4827586206898" y="-32.96551724137931"/>
      <point x="1272.7586206896551" y="-53.793103448275865"/>
      <point x="1272.7586206896551" y="-100.24137931034483" type="curve" smooth="yes"/>
      <point x="1272.7586206896551" y="-260.0689655172414"/>
      <point x="1079.896551724138" y="-391.7586206896552"/>
      <point x="893.6896551724138" y="-391.7586206896552" type="curve" smooth="yes"/>
      <point x="781.7241379310345" y="-391.7586206896552"/>
      <point x="719.1379310344828" y="-353.41379310344826"/>
      <point x="719.1379310344828" y="-289.37931034482756" type="curve" smooth="yes"/>
      <point x="719.1379310344828" y="-235.72413793103448"/>
      <point x="770.0689655172414" y="-204.17241379310346"/>
      <point x="845.0689655172414" y="-191.89655172413794" type="curve"/>
      <point x="838.5172413793103" y="-136.9655172413793" type="line"/>
      <point x="732.4137931034483" y="-155.51724137931035"/>
      <point x="661.9310344827586" y="-208.72413793103448"/>
      <point x="661.9310344827586" y="-296.2068965517241" type="curve" smooth="yes"/>
      <point x="661.9310344827586" y="-385.7931034482759"/>
      <point x="746.7931034482758" y="-447.6896551724138"/>
    </contour>
    <component base="a-tamil"/>
  </outline>
</glyph>
<glyph name="i-tamil" format="2">
  <advance width="1017.0689655172414"/>
  <unicode hex="0B87"/>
  <note>
uni0B87
</note>
  <anchor x="424.2068965517241" y="0.0" name="bottom"/>
  <anchor x="371.62068965517244" y="-264.0689655172414" name="nukta"/>
  <anchor x="571.448275862069" y="838.3793103448276" name="top"/>
  <anchor x="533.2758620689655" y="556.4827586206897" name="vedic"/>
  <outline>
    <contour>
      <point x="128.3448275862069" y="-304.7241379310345" type="curve" smooth="yes"/>
      <point x="467.0689655172414" y="-304.7241379310345"/>
      <point x="777.2758620689655" y="-0.4827586206896566"/>
      <point x="777.2758620689655" y="320.0344827586207" type="curve" smooth="yes"/>
      <point x="777.2758620689655" y="482.3103448275862"/>
      <point x="673.0" y="561.4827586206897"/>
      <point x="519.9655172413793" y="561.4827586206897" type="curve" smooth="yes"/>
      <point x="388.7241379310345" y="561.4827586206897"/>
      <point x="277.13793103448273" y="480.86206896551727"/>
      <point x="277.13793103448273" y="363.44827586206895" type="curve" smooth="yes"/>
      <point x="277.13793103448273" y="291.2758620689655"/>
      <point x="333.0344827586207" y="242.75862068965517"/>
      <point x="410.7241379310345" y="242.75862068965517" type="curve" smooth="yes"/>
      <point x="506.9310344827586" y="242.75862068965517"/>
      <point x="577.1379310344828" y="295.58620689655174"/>
      <point x="577.1379310344828" y="389.41379310344826" type="curve" smooth="yes"/>
      <point x="577.1379310344828" y="445.6551724137931"/>
      <point x="542.2413793103449" y="504.7586206896552"/>
      <point x="467.0689655172414" y="519.7586206896551" type="curve"/>
      <point x="417.37931034482756" y="515.9310344827586" type="line"/>
      <point x="462.2758620689655" y="493.1034482758621"/>
      <point x="483.9655172413793" y="456.7241379310345"/>
      <point x="483.9655172413793" y="406.62068965517244" type="curve" smooth="yes"/>
      <point x="483.9655172413793" y="352.44827586206895"/>
      <point x="455.2413793103448" y="305.0344827586207"/>
      <point x="397.62068965517244" y="305.0344827586207" type="curve" smooth="yes"/>
      <point x="361.3448275862069" y="305.0344827586207"/>
      <point x="337.3448275862069" y="329.7586206896552"/>
      <point x="337.3448275862069" y="369.6551724137931" type="curve" smooth="yes"/>
      <point x="337.3448275862069" y="450.6551724137931"/>
      <point x="413.2758620689655" y="505.55172413793105"/>
      <point x="507.0344827586207" y="505.55172413793105" type="curve" smooth="yes"/>
      <point x="607.5862068965517" y="505.55172413793105"/>
      <point x="668.0689655172414" y="437.7931034482759"/>
      <point x="668.0689655172414" y="327.7586206896552" type="curve" smooth="yes"/>
      <point x="668.0689655172414" y="31.137931034482758"/>
      <point x="430.7241379310345" y="-248.51724137931035"/>
      <point x="143.51724137931035" y="-248.51724137931035" type="curve" smooth="yes"/>
      <point x="72.51724137931035" y="-248.51724137931035"/>
      <point x="23.241379310344826" y="-217.6206896551724"/>
      <point x="23.241379310344826" y="-155.9655172413793" type="curve" smooth="yes"/>
      <point x="23.241379310344826" y="-16.20689655172414"/>
      <point x="245.20689655172413" y="53.96551724137931"/>
      <point x="417.55172413793105" y="53.96551724137931" type="curve" smooth="yes"/>
      <point x="578.2758620689655" y="53.96551724137931"/>
      <point x="765.3103448275862" y="-1.0689655172413808"/>
      <point x="765.3103448275862" y="-126.17241379310344" type="curve" smooth="yes"/>
      <point x="765.3103448275862" y="-215.3448275862069"/>
      <point x="697.1379310344828" y="-248.51724137931035"/>
      <point x="600.4137931034483" y="-248.51724137931035" type="curve" smooth="yes"/>
      <point x="369.48275862068965" y="-248.51724137931035"/>
      <point x="140.89655172413794" y="21.0"/>
      <point x="140.89655172413794" y="289.48275862068965" type="curve" smooth="yes"/>
      <point x="140.89655172413794" y="548.3793103448276"/>
      <point x="287.17241379310343" y="739.551724137931"/>
      <point x="557.1724137931035" y="739.551724137931" type="curve" smooth="yes"/>
      <point x="810.6551724137931" y="739.551724137931"/>
      <point x="950.7241379310345" y="568.8275862068965"/>
      <point x="891.3448275862069" y="299.37931034482756" type="curve" smooth="yes"/>
      <point x="845.1034482758621" y="90.96551724137932" type="line"/>
      <point x="905.4137931034483" y="90.96551724137932" type="line"/>
      <point x="952.2068965517242" y="302.13793103448273" type="line" smooth="yes"/>
      <point x="1024.5862068965516" y="630.3103448275862"/>
      <point x="875.9655172413793" y="838.3793103448276"/>
      <point x="571.448275862069" y="838.3793103448276" type="curve" smooth="yes"/>
      <point x="260.7586206896552" y="838.3793103448276"/>
      <point x="77.44827586206897" y="611.6551724137931"/>
      <point x="77.44827586206897" y="304.13793103448273" type="curve" smooth="yes"/>
      <point x="77.44827586206897" y="-10.482758620689655"/>
      <point x="327.8965517241379" y="-304.44827586206895"/>
      <point x="616.8620689655172" y="-304.44827586206895" type="curve" smooth="yes"/>
      <point x="735.6896551724138" y="-304.44827586206895"/>
      <point x="831.8620689655172" y="-248.89655172413794"/>
      <point x="831.8620689655172" y="-126.51724137931035" type="curve" smooth="yes"/>
      <point x="831.8620689655172" y="36.86206896551724"/>
      <point x="625.3793103448276" y="109.17241379310344"/>
      <point x="424.6551724137931" y="109.17241379310344" type="curve" smooth="yes"/>
      <point x="199.31034482758622" y="109.17241379310344"/>
      <point x="-45.58620689655172" y="19.0"/>
      <point x="-45.58620689655172" y="-170.24137931034483" type="curve" smooth="yes"/>
      <point x="-45.58620689655172" y="-255.89655172413794"/>
      <point x="23.517241379310345" y="-304.7241379310345"/>
    </contour>
  </outline>
</glyph>
<glyph name="ii-tamil" format="2">
  <advance width="786.2758620689656"/>
  <unicode hex="0B88"/>
  <note>
uni0B88
</note>
  <anchor x="347.58620689655174" y="0.0" name="bottom"/>
  <anchor x="347.58620689655174" y="0.0" name="nukta"/>
  <anchor x="467.86206896551727" y="556.4827586206897" name="top"/>
  <anchor x="468.1379310344828" y="556.4827586206897" name="vedic"/>
  <outline>
    <contour>
      <point x="36.241379310344826" y="0.0" type="line"/>
      <point x="98.72413793103448" y="0.0" type="line"/>
      <point x="205.0" y="500.55172413793105" type="line"/>
      <point x="479.0" y="500.55172413793105" type="line"/>
      <point x="372.0" y="0.0" type="line"/>
      <point x="482.9310344827586" y="0.0" type="line"/>
      <point x="589.2068965517242" y="500.55172413793105" type="line"/>
      <point x="782.3793103448276" y="500.55172413793105" type="line"/>
      <point x="794.3793103448276" y="556.4827586206897" type="line"/>
      <point x="154.79310344827587" y="556.4827586206897" type="line"/>
    </contour>
    <contour>
      <point x="289.41379310344826" y="203.82758620689654" type="curve" smooth="yes"/>
      <point x="323.82758620689657" y="203.82758620689654"/>
      <point x="350.6896551724138" y="232.13793103448276"/>
      <point x="350.6896551724138" y="264.55172413793105" type="curve" smooth="yes"/>
      <point x="350.6896551724138" y="296.6896551724138"/>
      <point x="323.82758620689657" y="324.2758620689655"/>
      <point x="289.41379310344826" y="324.2758620689655" type="curve" smooth="yes"/>
      <point x="255.0" y="324.2758620689655"/>
      <point x="228.13793103448276" y="296.6896551724138"/>
      <point x="228.13793103448276" y="264.55172413793105" type="curve" smooth="yes"/>
      <point x="228.13793103448276" y="232.13793103448276"/>
      <point x="255.0" y="203.82758620689654"/>
    </contour>
    <contour>
      <point x="672.6206896551724" y="203.82758620689654" type="curve" smooth="yes"/>
      <point x="707.0344827586207" y="203.82758620689654"/>
      <point x="733.8965517241379" y="232.13793103448276"/>
      <point x="733.8965517241379" y="264.55172413793105" type="curve" smooth="yes"/>
      <point x="733.8965517241379" y="296.6896551724138"/>
      <point x="707.0344827586207" y="324.2758620689655"/>
      <point x="672.6206896551724" y="324.2758620689655" type="curve" smooth="yes"/>
      <point x="638.2068965517242" y="324.2758620689655"/>
      <point x="611.3448275862069" y="296.6896551724138"/>
      <point x="611.3448275862069" y="264.55172413793105" type="curve" smooth="yes"/>
      <point x="611.3448275862069" y="232.13793103448276"/>
      <point x="638.2068965517242" y="203.82758620689654"/>
    </contour>
  </outline>
</glyph>
<glyph name="u-tamil" format="2">
  <advance width="1001.4827586206897"/>
  <unicode hex="0B89"/>
  <note>
uni0B89
</note>
  <anchor x="468.0" y="0.0" name="bottom"/>
  <anchor x="468.0" y="0.0" name="nukta"/>
  <anchor x="588.8275862068965" y="556.4827586206897" name="top"/>
  <anchor x="589.2758620689655" y="556.4827586206897" name="vedic"/>
  <outline>
    <contour>
      <point x="94.6896551724138" y="0.0" type="curve" smooth="yes"/>
      <point x="926.2413793103449" y="0.0" type="line"/>
      <point x="938.5172413793103" y="55.93103448275862" type="line"/>
      <point x="99.89655172413794" y="55.93103448275862" type="line" smooth="yes"/>
      <point x="80.72413793103448" y="55.93103448275862"/>
      <point x="64.17241379310344" y="66.65517241379311"/>
      <point x="64.17241379310344" y="91.27586206896552" type="curve" smooth="yes"/>
      <point x="64.17241379310344" y="117.34482758620689"/>
      <point x="86.24137931034483" y="133.3448275862069"/>
      <point x="113.41379310344827" y="133.3448275862069" type="curve" smooth="yes"/>
      <point x="366.58620689655174" y="133.3448275862069" type="line" smooth="yes"/>
      <point x="539.9310344827586" y="133.3448275862069"/>
      <point x="676.448275862069" y="205.51724137931035"/>
      <point x="676.448275862069" y="361.6551724137931" type="curve" smooth="yes"/>
      <point x="676.448275862069" y="496.1034482758621"/>
      <point x="561.5862068965517" y="561.4827586206897"/>
      <point x="416.41379310344826" y="561.4827586206897" type="curve" smooth="yes"/>
      <point x="271.1034482758621" y="561.4827586206897"/>
      <point x="151.31034482758622" y="482.62068965517244"/>
      <point x="151.31034482758622" y="372.7931034482759" type="curve" smooth="yes"/>
      <point x="151.31034482758622" y="307.41379310344826"/>
      <point x="195.79310344827587" y="243.9655172413793"/>
      <point x="294.41379310344826" y="243.9655172413793" type="curve" smooth="yes"/>
      <point x="395.86206896551727" y="243.9655172413793"/>
      <point x="460.82758620689657" y="300.9310344827586"/>
      <point x="460.82758620689657" y="383.8965517241379" type="curve" smooth="yes"/>
      <point x="460.82758620689657" y="446.62068965517244"/>
      <point x="415.7241379310345" y="499.6551724137931"/>
      <point x="360.2758620689655" y="518.448275862069" type="curve"/>
      <point x="307.82758620689657" y="514.8965517241379" type="line"/>
      <point x="346.2068965517241" y="486.1034482758621"/>
      <point x="369.13793103448273" y="447.82758620689657"/>
      <point x="369.13793103448273" y="402.0" type="curve" smooth="yes"/>
      <point x="369.13793103448273" y="340.9310344827586"/>
      <point x="336.7586206896552" y="304.0344827586207"/>
      <point x="281.0689655172414" y="304.0344827586207" type="curve" smooth="yes"/>
      <point x="234.3793103448276" y="304.0344827586207"/>
      <point x="213.27586206896552" y="339.9310344827586"/>
      <point x="213.27586206896552" y="378.1034482758621" type="curve" smooth="yes"/>
      <point x="213.27586206896552" y="446.48275862068965"/>
      <point x="292.2068965517241" y="505.2758620689655"/>
      <point x="401.3103448275862" y="505.2758620689655" type="curve" smooth="yes"/>
      <point x="496.82758620689657" y="505.2758620689655"/>
      <point x="566.0689655172414" y="459.82758620689657"/>
      <point x="566.0689655172414" y="362.41379310344826" type="curve" smooth="yes"/>
      <point x="566.0689655172414" y="250.31034482758622"/>
      <point x="484.0" y="188.0"/>
      <point x="361.0" y="188.0" type="curve" smooth="yes"/>
      <point x="123.06896551724138" y="188.0" type="line" smooth="yes"/>
      <point x="50.241379310344826" y="188.0"/>
      <point x="4.241379310344827" y="145.82758620689654"/>
      <point x="4.241379310344827" y="84.10344827586206" type="curve" smooth="yes"/>
      <point x="4.241379310344827" y="35.10344827586207"/>
      <point x="41.58620689655172" y="0.0"/>
    </contour>
  </outline>
</glyph>
<glyph name="uu-tamil" format="2">
  <advance width="1719.7931034482758"/>
  <unicode hex="0B8A"/>
  <note>
uni0B8A
</note>
  <anchor x="834.5172413793103" y="0.0" name="bottom"/>
  <anchor x="835.2413793103449" y="0.0" name="nukta"/>
  <anchor x="956.5172413793103" y="556.4827586206897" name="top"/>
  <anchor x="955.7931034482758" y="556.4827586206897" name="vedic"/>
  <outline>
    <contour>
      <point x="94.6896551724138" y="0.0" type="curve" smooth="yes"/>
      <point x="1627.4137931034484" y="0.0" type="line"/>
      <point x="1639.6896551724137" y="55.93103448275862" type="line"/>
      <point x="99.89655172413794" y="55.93103448275862" type="line" smooth="yes"/>
      <point x="80.72413793103448" y="55.93103448275862"/>
      <point x="64.17241379310344" y="66.65517241379311"/>
      <point x="64.17241379310344" y="91.27586206896552" type="curve" smooth="yes"/>
      <point x="64.17241379310344" y="117.34482758620689"/>
      <point x="86.24137931034483" y="133.3448275862069"/>
      <point x="113.41379310344827" y="133.3448275862069" type="curve" smooth="yes"/>
      <point x="366.58620689655174" y="133.3448275862069" type="line" smooth="yes"/>
      <point x="539.9310344827586" y="133.3448275862069"/>
      <point x="676.448275862069" y="205.51724137931035"/>
      <point x="676.448275862069" y="361.6551724137931" type="curve" smooth="yes"/>
      <point x="676.448275862069" y="496.1034482758621"/>
      <point x="561.5862068965517" y="561.4827586206897"/>
      <point x="416.41379310344826" y="561.4827586206897" type="curve" smooth="yes"/>
      <point x="271.1034482758621" y="561.4827586206897"/>
      <point x="151.31034482758622" y="482.62068965517244"/>
      <point x="151.31034482758622" y="372.7931034482759" type="curve" smooth="yes"/>
      <point x="151.31034482758622" y="307.41379310344826"/>
      <point x="195.79310344827587" y="243.9655172413793"/>
      <point x="294.41379310344826" y="243.9655172413793" type="curve" smooth="yes"/>
      <point x="395.86206896551727" y="243.9655172413793"/>
      <point x="460.82758620689657" y="300.9310344827586"/>
      <point x="460.82758620689657" y="383.8965517241379" type="curve" smooth="yes"/>
      <point x="460.82758620689657" y="446.62068965517244"/>
      <point x="415.7241379310345" y="499.6551724137931"/>
      <point x="360.2758620689655" y="518.448275862069" type="curve"/>
      <point x="307.82758620689657" y="514.8965517241379" type="line"/>
      <point x="346.2068965517241" y="486.1034482758621"/>
      <point x="369.13793103448273" y="447.82758620689657"/>
      <point x="369.13793103448273" y="402.0" type="curve" smooth="yes"/>
      <point x="369.13793103448273" y="340.9310344827586"/>
      <point x="336.7586206896552" y="304.0344827586207"/>
      <point x="281.0689655172414" y="304.0344827586207" type="curve" smooth="yes"/>
      <point x="234.3793103448276" y="304.0344827586207"/>
      <point x="213.27586206896552" y="339.9310344827586"/>
      <point x="213.27586206896552" y="378.1034482758621" type="curve" smooth="yes"/>
      <point x="213.27586206896552" y="446.48275862068965"/>
      <point x="292.2068965517241" y="505.2758620689655"/>
      <point x="401.3103448275862" y="505.2758620689655" type="curve" smooth="yes"/>
      <point x="496.82758620689657" y="505.2758620689655"/>
      <point x="566.0689655172414" y="459.82758620689657"/>
      <point x="566.0689655172414" y="362.41379310344826" type="curve" smooth="yes"/>
      <point x="566.0689655172414" y="250.31034482758622"/>
      <point x="484.0" y="188.0"/>
      <point x="361.0" y="188.0" type="curve" smooth="yes"/>
      <point x="123.06896551724138" y="188.0" type="line" smooth="yes"/>
      <point x="50.241379310344826" y="188.0"/>
      <point x="4.241379310344827" y="145.82758620689654"/>
      <point x="4.241379310344827" y="84.10344827586206" type="curve" smooth="yes"/>
      <point x="4.241379310344827" y="35.10344827586207"/>
      <point x="41.58620689655172" y="0.0"/>
    </contour>
    <contour>
      <point x="926.9310344827586" y="108.79310344827586" type="curve" smooth="yes"/>
      <point x="1028.5862068965516" y="108.79310344827586"/>
      <point x="1102.9310344827586" y="163.79310344827587"/>
      <point x="1102.9310344827586" y="265.9310344827586" type="curve" smooth="yes"/>
      <point x="1102.9310344827586" y="344.37931034482756"/>
      <point x="1048.551724137931" y="390.2758620689655"/>
      <point x="973.1034482758621" y="390.2758620689655" type="curve" smooth="yes"/>
      <point x="885.1379310344828" y="390.2758620689655"/>
      <point x="826.1379310344828" y="323.7241379310345"/>
      <point x="794.6896551724138" y="236.48275862068965" type="curve"/>
      <point x="814.6551724137931" y="207.17241379310346" type="line"/>
      <point x="840.8275862068965" y="270.7241379310345"/>
      <point x="877.6206896551724" y="327.82758620689657"/>
      <point x="936.448275862069" y="327.82758620689657" type="curve" smooth="yes"/>
      <point x="979.9655172413793" y="327.82758620689657"/>
      <point x="1006.6896551724138" y="299.0344827586207"/>
      <point x="1006.6896551724138" y="255.58620689655172" type="curve" smooth="yes"/>
      <point x="1006.6896551724138" y="202.24137931034483"/>
      <point x="970.6896551724138" y="164.55172413793105"/>
      <point x="913.3448275862069" y="164.55172413793105" type="curve" smooth="yes"/>
      <point x="853.1724137931035" y="164.55172413793105"/>
      <point x="811.7931034482758" y="214.89655172413794"/>
      <point x="811.7931034482758" y="285.44827586206895" type="curve" smooth="yes"/>
      <point x="811.7931034482758" y="418.58620689655174"/>
      <point x="908.1724137931035" y="505.55172413793105"/>
      <point x="1035.0689655172414" y="505.55172413793105" type="curve" smooth="yes"/>
      <point x="1152.4827586206898" y="505.55172413793105"/>
      <point x="1230.5862068965516" y="426.0689655172414"/>
      <point x="1204.2413793103449" y="299.55172413793105" type="curve"/>
      <point x="1252.4137931034484" y="299.55172413793105" type="line"/>
      <point x="1282.4827586206898" y="464.9655172413793"/>
      <point x="1184.103448275862" y="561.4827586206897"/>
      <point x="1030.7586206896551" y="561.4827586206897" type="curve" smooth="yes"/>
      <point x="873.9310344827586" y="561.4827586206897"/>
      <point x="752.0344827586207" y="447.0689655172414"/>
      <point x="752.0344827586207" y="285.7241379310345" type="curve" smooth="yes"/>
      <point x="752.0344827586207" y="187.51724137931035"/>
      <point x="823.5172413793103" y="108.79310344827586"/>
    </contour>
    <contour>
      <point x="1164.4137931034484" y="111.96551724137932" type="line"/>
      <point x="1267.896551724138" y="111.96551724137932" type="line"/>
      <point x="1351.0689655172414" y="502.0" type="line"/>
      <point x="1527.551724137931" y="502.0" type="line"/>
      <point x="1444.655172413793" y="111.96551724137932" type="line"/>
      <point x="1548.4137931034484" y="111.96551724137932" type="line"/>
      <point x="1631.3103448275863" y="502.0" type="line"/>
      <point x="1734.4137931034484" y="502.0" type="line"/>
      <point x="1745.9655172413793" y="556.4827586206897" type="line"/>
      <point x="1270.8620689655172" y="556.4827586206897" type="line"/>
      <point x="1232.4827586206898" y="375.41379310344826" type="line"/>
      <point x="1219.7586206896551" y="372.51724137931035" type="line"/>
    </contour>
  </outline>
</glyph>
<glyph name="e-tamil" format="2">
  <advance width="928.7241379310345"/>
  <unicode hex="0B8E"/>
  <note>
uni0B8E
</note>
  <anchor x="443.44827586206895" y="0.0" name="bottom"/>
  <anchor x="444.44827586206895" y="0.0" name="nukta"/>
  <anchor x="563.0" y="556.4827586206897" name="top"/>
  <anchor x="564.7241379310345" y="556.4827586206897" name="vedic"/>
  <outline>
    <contour>
      <point x="257.0689655172414" y="-5.0" type="curve" smooth="yes"/>
      <point x="360.82758620689657" y="-5.0"/>
      <point x="446.41379310344826" y="56.37931034482759"/>
      <point x="446.41379310344826" y="170.41379310344828" type="curve" smooth="yes"/>
      <point x="446.41379310344826" y="247.82758620689654"/>
      <point x="389.55172413793105" y="308.51724137931035"/>
      <point x="299.7586206896552" y="308.51724137931035" type="curve" smooth="yes"/>
      <point x="202.27586206896552" y="308.51724137931035"/>
      <point x="129.17241379310346" y="235.6206896551724"/>
      <point x="99.93103448275862" y="118.3103448275862" type="curve"/>
      <point x="129.24137931034483" y="93.51724137931035" type="line"/>
      <point x="150.89655172413794" y="186.75862068965517"/>
      <point x="204.17241379310346" y="238.20689655172413"/>
      <point x="263.6896551724138" y="238.20689655172413" type="curve" smooth="yes"/>
      <point x="317.6896551724138" y="238.20689655172413"/>
      <point x="342.48275862068965" y="200.10344827586206"/>
      <point x="342.48275862068965" y="157.31034482758622" type="curve" smooth="yes"/>
      <point x="342.48275862068965" y="98.06896551724138"/>
      <point x="307.9655172413793" y="52.310344827586206"/>
      <point x="241.93103448275863" y="52.310344827586206" type="curve" smooth="yes"/>
      <point x="167.27586206896552" y="52.310344827586206"/>
      <point x="110.48275862068965" y="118.10344827586206"/>
      <point x="110.48275862068965" y="220.48275862068965" type="curve" smooth="yes"/>
      <point x="110.48275862068965" y="394.7586206896552"/>
      <point x="237.0" y="500.55172413793105"/>
      <point x="440.82758620689657" y="500.55172413793105" type="curve" smooth="yes"/>
      <point x="685.5862068965517" y="500.55172413793105" type="line"/>
      <point x="579.3103448275862" y="0.0" type="line"/>
      <point x="690.2413793103449" y="0.0" type="line"/>
      <point x="796.2413793103449" y="500.55172413793105" type="line"/>
      <point x="958.2758620689655" y="500.55172413793105" type="line"/>
      <point x="969.8275862068965" y="556.4827586206897" type="line"/>
      <point x="440.48275862068965" y="556.4827586206897" type="line" smooth="yes"/>
      <point x="200.93103448275863" y="556.4827586206897"/>
      <point x="51.37931034482759" y="421.13793103448273"/>
      <point x="51.37931034482759" y="215.75862068965517" type="curve" smooth="yes"/>
      <point x="51.37931034482759" y="87.06896551724138"/>
      <point x="136.3448275862069" y="-5.0"/>
    </contour>
  </outline>
</glyph>
<glyph name="ee-tamil" format="2">
  <advance width="928.0"/>
  <unicode hex="0B8F"/>
  <note>
uni0B8F
</note>
  <anchor x="442.7241379310345" y="0.0" name="bottom"/>
  <anchor x="401.0689655172414" y="-201.89655172413794" name="nukta"/>
  <anchor x="564.0" y="556.4827586206897" name="top"/>
  <anchor x="564.0" y="556.4827586206897" name="vedic"/>
  <outline>
    <contour>
      <point x="371.2068965517241" y="-251.0344827586207" type="line"/>
      <point x="693.6206896551724" y="18.689655172413794" type="line"/>
      <point x="796.5172413793103" y="500.55172413793105" type="line"/>
      <point x="957.551724137931" y="500.55172413793105" type="line"/>
      <point x="969.8275862068965" y="556.4827586206897" type="line"/>
      <point x="440.48275862068965" y="556.4827586206897" type="line" smooth="yes"/>
      <point x="200.93103448275863" y="556.4827586206897"/>
      <point x="51.37931034482759" y="421.13793103448273"/>
      <point x="51.37931034482759" y="215.75862068965517" type="curve" smooth="yes"/>
      <point x="51.37931034482759" y="87.06896551724138"/>
      <point x="136.3448275862069" y="-5.0"/>
      <point x="257.0689655172414" y="-5.0" type="curve" smooth="yes"/>
      <point x="360.82758620689657" y="-5.0"/>
      <point x="446.41379310344826" y="56.37931034482759"/>
      <point x="446.41379310344826" y="170.41379310344828" type="curve" smooth="yes"/>
      <point x="446.41379310344826" y="247.82758620689654"/>
      <point x="389.55172413793105" y="308.51724137931035"/>
      <point x="299.7586206896552" y="308.51724137931035" type="curve" smooth="yes"/>
      <point x="202.27586206896552" y="308.51724137931035"/>
      <point x="129.17241379310346" y="235.6206896551724"/>
      <point x="99.93103448275862" y="118.3103448275862" type="curve"/>
      <point x="129.24137931034483" y="93.51724137931035" type="line"/>
      <point x="150.89655172413794" y="186.75862068965517"/>
      <point x="204.17241379310346" y="238.20689655172413"/>
      <point x="263.6896551724138" y="238.20689655172413" type="curve" smooth="yes"/>
      <point x="317.6896551724138" y="238.20689655172413"/>
      <point x="342.48275862068965" y="200.10344827586206"/>
      <point x="342.48275862068965" y="157.31034482758622" type="curve" smooth="yes"/>
      <point x="342.48275862068965" y="98.06896551724138"/>
      <point x="307.9655172413793" y="52.310344827586206"/>
      <point x="241.93103448275863" y="52.310344827586206" type="curve" smooth="yes"/>
      <point x="167.27586206896552" y="52.310344827586206"/>
      <point x="110.48275862068965" y="118.10344827586206"/>
      <point x="110.48275862068965" y="220.48275862068965" type="curve" smooth="yes"/>
      <point x="110.48275862068965" y="394.7586206896552"/>
      <point x="237.0" y="500.55172413793105"/>
      <point x="440.82758620689657" y="500.55172413793105" type="curve" smooth="yes"/>
      <point x="685.5862068965517" y="500.55172413793105" type="line"/>
      <point x="580.4827586206897" y="2.7586206896551717" type="line"/>
      <point x="334.2068965517241" y="-204.55172413793105" type="line"/>
    </contour>
  </outline>
</glyph>
<glyph name="ai-tamil" format="2">
  <advance width="999.0"/>
  <unicode hex="0B90"/>
  <note>
uni0B90
</note>
  <anchor x="442.0" y="0.0" name="bottom"/>
  <anchor x="370.82758620689657" y="-303.7241379310345" name="nukta"/>
  <anchor x="569.7586206896551" y="556.4827586206897" name="top"/>
  <anchor x="569.3103448275862" y="556.4827586206897" name="vedic"/>
  <outline>
    <contour>
      <point x="190.27586206896552" y="-303.7241379310345" type="curve" smooth="yes"/>
      <point x="291.6896551724138" y="-303.7241379310345"/>
      <point x="382.3103448275862" y="-262.7241379310345"/>
      <point x="425.2068965517241" y="-176.10344827586206" type="curve"/>
      <point x="433.2413793103448" y="-243.3793103448276"/>
      <point x="499.0" y="-303.7241379310345"/>
      <point x="621.2068965517242" y="-303.7241379310345" type="curve" smooth="yes"/>
      <point x="766.9655172413793" y="-303.7241379310345"/>
      <point x="868.2758620689656" y="-221.58620689655172"/>
      <point x="868.2758620689656" y="-74.3103448275862" type="curve" smooth="yes"/>
      <point x="868.2758620689656" y="-20.758620689655174"/>
      <point x="853.6551724137931" y="26.482758620689655"/>
      <point x="829.7586206896552" y="71.58620689655173" type="curve"/>
      <point x="779.551724137931" y="43.13793103448276" type="line"/>
      <point x="799.1724137931035" y="7.034482758620689"/>
      <point x="809.6206896551724" y="-34.37931034482759"/>
      <point x="809.6206896551724" y="-73.65517241379311" type="curve" smooth="yes"/>
      <point x="809.6206896551724" y="-186.31034482758622"/>
      <point x="727.1379310344828" y="-242.72413793103448"/>
      <point x="619.9310344827586" y="-242.72413793103448" type="curve" smooth="yes"/>
      <point x="524.2758620689656" y="-242.72413793103448"/>
      <point x="485.2068965517241" y="-180.0"/>
      <point x="504.7586206896552" y="-79.24137931034483" type="curve" smooth="yes"/>
      <point x="512.7586206896552" y="-37.96551724137931" type="line"/>
      <point x="401.7241379310345" y="-37.96551724137931" type="line"/>
      <point x="391.3448275862069" y="-84.6896551724138" type="line" smooth="yes"/>
      <point x="367.51724137931035" y="-192.31034482758622"/>
      <point x="293.7241379310345" y="-247.0689655172414"/>
      <point x="204.51724137931035" y="-247.0689655172414" type="curve" smooth="yes"/>
      <point x="131.72413793103448" y="-247.0689655172414"/>
      <point x="85.93103448275862" y="-205.79310344827587"/>
      <point x="85.93103448275862" y="-127.44827586206897" type="curve" smooth="yes"/>
      <point x="85.93103448275862" y="40.96551724137931"/>
      <point x="259.0689655172414" y="56.44827586206897"/>
      <point x="495.7931034482759" y="78.27586206896552" type="curve" smooth="yes"/>
      <point x="739.1724137931035" y="100.75862068965517"/>
      <point x="954.6896551724138" y="160.20689655172413"/>
      <point x="954.6896551724138" y="385.9310344827586" type="curve" smooth="yes"/>
      <point x="954.6896551724138" y="506.82758620689657"/>
      <point x="864.9655172413793" y="561.7586206896551"/>
      <point x="760.8620689655172" y="561.7586206896551" type="curve" smooth="yes"/>
      <point x="668.1379310344828" y="561.7586206896551"/>
      <point x="594.4827586206897" y="517.1034482758621"/>
      <point x="550.4827586206897" y="434.51724137931035" type="curve"/>
      <point x="527.2068965517242" y="520.0"/>
      <point x="445.0" y="561.7586206896551"/>
      <point x="342.3448275862069" y="561.7586206896551" type="curve" smooth="yes"/>
      <point x="189.6206896551724" y="561.7586206896551"/>
      <point x="69.65517241379311" y="464.3448275862069"/>
      <point x="69.65517241379311" y="315.41379310344826" type="curve" smooth="yes"/>
      <point x="69.65517241379311" y="227.55172413793105"/>
      <point x="129.41379310344828" y="156.82758620689654"/>
      <point x="221.27586206896552" y="156.82758620689654" type="curve" smooth="yes"/>
      <point x="305.9310344827586" y="156.82758620689654"/>
      <point x="385.9655172413793" y="203.72413793103448"/>
      <point x="385.9655172413793" y="298.0" type="curve" smooth="yes"/>
      <point x="385.9655172413793" y="367.55172413793105"/>
      <point x="335.6896551724138" y="411.44827586206895"/>
      <point x="267.48275862068965" y="411.44827586206895" type="curve" smooth="yes"/>
      <point x="201.0689655172414" y="411.44827586206895"/>
      <point x="134.13793103448276" y="375.7931034482759"/>
      <point x="98.3103448275862" y="255.9310344827586" type="curve"/>
      <point x="121.27586206896552" y="223.72413793103448" type="line"/>
      <point x="149.3448275862069" y="318.9655172413793"/>
      <point x="191.72413793103448" y="351.7241379310345"/>
      <point x="230.6551724137931" y="351.7241379310345" type="curve" smooth="yes"/>
      <point x="268.48275862068965" y="351.7241379310345"/>
      <point x="290.6551724137931" y="327.7241379310345"/>
      <point x="290.6551724137931" y="291.55172413793105" type="curve" smooth="yes"/>
      <point x="290.6551724137931" y="244.27586206896552"/>
      <point x="260.17241379310343" y="213.0344827586207"/>
      <point x="211.72413793103448" y="213.0344827586207" type="curve" smooth="yes"/>
      <point x="166.9655172413793" y="213.0344827586207"/>
      <point x="127.58620689655173" y="249.9655172413793"/>
      <point x="127.58620689655173" y="314.8965517241379" type="curve" smooth="yes"/>
      <point x="127.58620689655173" y="428.62068965517244"/>
      <point x="218.24137931034483" y="505.55172413793105"/>
      <point x="335.2413793103448" y="505.55172413793105" type="curve" smooth="yes"/>
      <point x="444.7931034482759" y="505.55172413793105"/>
      <point x="495.6551724137931" y="437.86206896551727"/>
      <point x="473.2068965517241" y="331.7241379310345" type="curve" smooth="yes"/>
      <point x="448.55172413793105" y="215.55172413793105" type="line"/>
      <point x="559.5862068965517" y="215.55172413793105" type="line"/>
      <point x="591.2413793103449" y="369.51724137931035" type="line" smooth="yes"/>
      <point x="607.0689655172414" y="447.7241379310345"/>
      <point x="658.5862068965517" y="505.55172413793105"/>
      <point x="737.5172413793103" y="505.55172413793105" type="curve" smooth="yes"/>
      <point x="812.448275862069" y="505.55172413793105"/>
      <point x="844.2068965517242" y="457.0689655172414"/>
      <point x="844.2068965517242" y="390.2413793103448" type="curve" smooth="yes"/>
      <point x="844.2068965517242" y="184.58620689655172"/>
      <point x="677.3103448275862" y="143.9655172413793"/>
      <point x="426.8965517241379" y="121.10344827586206" type="curve" smooth="yes"/>
      <point x="175.44827586206895" y="98.44827586206897"/>
      <point x="-23.82758620689655" y="68.58620689655173"/>
      <point x="-23.82758620689655" y="-124.41379310344827" type="curve" smooth="yes"/>
      <point x="-23.82758620689655" y="-237.13793103448276"/>
      <point x="65.0344827586207" y="-303.7241379310345"/>
    </contour>
  </outline>
</glyph>
<glyph name="o-tamil" format="2">
  <advance width="1013.2413793103449"/>
  <unicode hex="0B92"/>
  <note>
uni0B92
</note>
  <anchor x="458.6551724137931" y="0.0" name="bottom"/>
  <anchor x="385.6551724137931" y="-335.0" name="nukta"/>
  <anchor x="547.448275862069" y="556.4827586206897" name="top"/>
  <anchor x="551.7931034482758" y="556.4827586206897" name="vedic"/>
  <outline>
    <contour>
      <point x="251.13793103448276" y="-349.58620689655174" type="curve" smooth="yes"/>
      <point x="459.8965517241379" y="-349.58620689655174"/>
      <point x="523.4827586206897" y="-150.41379310344828"/>
      <point x="698.2413793103449" y="-150.41379310344828" type="curve" smooth="yes"/>
      <point x="738.7931034482758" y="-150.41379310344828" type="line"/>
      <point x="750.6206896551724" y="-93.82758620689656" type="line"/>
      <point x="702.0689655172414" y="-93.82758620689656" type="line" smooth="yes"/>
      <point x="529.7241379310345" y="-93.82758620689656"/>
      <point x="475.17241379310343" y="87.79310344827586"/>
      <point x="607.4827586206897" y="213.79310344827587" type="curve"/>
      <point x="611.7586206896551" y="210.0689655172414" type="line"/>
      <point x="544.8275862068965" y="106.89655172413794"/>
      <point x="581.7586206896551" y="-5.0"/>
      <point x="708.9310344827586" y="-5.0" type="curve" smooth="yes"/>
      <point x="846.2413793103449" y="-5.0"/>
      <point x="948.6206896551724" y="88.20689655172414"/>
      <point x="948.6206896551724" y="237.75862068965517" type="curve" smooth="yes"/>
      <point x="948.6206896551724" y="464.7586206896552"/>
      <point x="733.6551724137931" y="561.4827586206897"/>
      <point x="516.7586206896551" y="561.4827586206897" type="curve" smooth="yes"/>
      <point x="257.6551724137931" y="561.4827586206897"/>
      <point x="48.55172413793103" y="415.2758620689655"/>
      <point x="48.55172413793103" y="213.0" type="curve" smooth="yes"/>
      <point x="48.55172413793103" y="84.3103448275862"/>
      <point x="130.75862068965517" y="-5.0"/>
      <point x="251.48275862068965" y="-5.0" type="curve" smooth="yes"/>
      <point x="355.2413793103448" y="-5.0"/>
      <point x="441.37931034482756" y="56.37931034482759"/>
      <point x="441.37931034482756" y="170.41379310344828" type="curve" smooth="yes"/>
      <point x="441.37931034482756" y="247.82758620689654"/>
      <point x="385.0689655172414" y="308.51724137931035"/>
      <point x="295.2758620689655" y="308.51724137931035" type="curve" smooth="yes"/>
      <point x="197.79310344827587" y="308.51724137931035"/>
      <point x="123.86206896551724" y="235.6206896551724"/>
      <point x="94.62068965517241" y="118.3103448275862" type="curve"/>
      <point x="123.93103448275862" y="93.51724137931035" type="line"/>
      <point x="145.58620689655172" y="186.75862068965517"/>
      <point x="199.68965517241378" y="238.20689655172413"/>
      <point x="259.2068965517241" y="238.20689655172413" type="curve" smooth="yes"/>
      <point x="313.2068965517241" y="238.20689655172413"/>
      <point x="337.44827586206895" y="200.10344827586206"/>
      <point x="337.44827586206895" y="157.31034482758622" type="curve" smooth="yes"/>
      <point x="337.44827586206895" y="98.06896551724138"/>
      <point x="302.37931034482756" y="52.310344827586206"/>
      <point x="236.3448275862069" y="52.310344827586206" type="curve" smooth="yes"/>
      <point x="161.68965517241378" y="52.310344827586206"/>
      <point x="107.65517241379311" y="115.3448275862069"/>
      <point x="107.65517241379311" y="217.72413793103448" type="curve" smooth="yes"/>
      <point x="107.65517241379311" y="386.2758620689655"/>
      <point x="288.0689655172414" y="505.55172413793105"/>
      <point x="507.37931034482756" y="505.55172413793105" type="curve" smooth="yes"/>
      <point x="684.6551724137931" y="505.55172413793105"/>
      <point x="842.7241379310345" y="415.41379310344826"/>
      <point x="842.7241379310345" y="249.13793103448276" type="curve" smooth="yes"/>
      <point x="842.7241379310345" y="141.48275862068965"/>
      <point x="790.3793103448276" y="52.310344827586206"/>
      <point x="700.2068965517242" y="52.310344827586206" type="curve" smooth="yes"/>
      <point x="604.6896551724138" y="52.310344827586206"/>
      <point x="619.2413793103449" y="178.41379310344828"/>
      <point x="699.9310344827586" y="264.41379310344826" type="curve"/>
      <point x="653.2758620689655" y="308.9655172413793" type="line"/>
      <point x="471.1379310344828" y="198.27586206896552"/>
      <point x="420.17241379310343" y="-27.103448275862068"/>
      <point x="572.2758620689655" y="-113.55172413793103" type="curve"/>
      <point x="571.2758620689655" y="-118.55172413793103" type="line"/>
      <point x="432.44827586206895" y="-134.10344827586206"/>
      <point x="361.86206896551727" y="-283.0344827586207"/>
      <point x="234.06896551724137" y="-283.0344827586207" type="curve" smooth="yes"/>
      <point x="184.48275862068965" y="-283.0344827586207"/>
      <point x="156.75862068965517" y="-250.3793103448276"/>
      <point x="156.75862068965517" y="-210.10344827586206" type="curve" smooth="yes"/>
      <point x="156.75862068965517" y="-160.3793103448276"/>
      <point x="183.31034482758622" y="-137.0"/>
      <point x="231.79310344827587" y="-102.55172413793103" type="curve"/>
      <point x="202.17241379310346" y="-62.17241379310345" type="line"/>
      <point x="138.9655172413793" y="-107.06896551724138"/>
      <point x="98.86206896551724" y="-146.0"/>
      <point x="98.86206896551724" y="-219.0" type="curve" smooth="yes"/>
      <point x="98.86206896551724" y="-291.2758620689655"/>
      <point x="154.79310344827587" y="-349.58620689655174"/>
    </contour>
  </outline>
</glyph>
<glyph name="nga-tamil" format="2">
  <advance width="1022.0344827586207"/>
  <unicode hex="0B99"/>
  <note>
uni0B99
</note>
  <anchor x="451.1034482758621" y="0.0" name="bottom"/>
  <anchor x="617.0344827586207" y="556.4827586206897" name="imatra"/>
  <anchor x="451.37931034482756" y="0.0" name="nukta"/>
  <anchor x="568.8275862068965" y="556.4827586206897" name="top"/>
  <anchor x="569.9310344827586" y="556.4827586206897" name="vedic"/>
  <outline>
    <contour>
      <point x="36.241379310344826" y="0.0" type="line"/>
      <point x="96.79310344827586" y="0.0" type="line"/>
      <point x="203.06896551724137" y="500.55172413793105" type="line"/>
      <point x="366.62068965517244" y="500.55172413793105" type="line"/>
      <point x="300.2413793103448" y="190.20689655172413" type="line"/>
      <point x="407.58620689655174" y="190.20689655172413" type="line"/>
      <point x="414.13793103448273" y="219.9655172413793" type="line" smooth="yes"/>
      <point x="423.86206896551727" y="265.86206896551727"/>
      <point x="459.7241379310345" y="306.3448275862069"/>
      <point x="506.13793103448273" y="306.3448275862069" type="curve" smooth="yes"/>
      <point x="546.3793103448276" y="306.3448275862069"/>
      <point x="577.1724137931035" y="281.0"/>
      <point x="577.1724137931035" y="229.86206896551724" type="curve" smooth="yes"/>
      <point x="577.1724137931035" y="127.0"/>
      <point x="489.2413793103448" y="55.93103448275862"/>
      <point x="390.9655172413793" y="55.93103448275862" type="curve" smooth="yes"/>
      <point x="271.8965517241379" y="55.93103448275862" type="line"/>
      <point x="259.62068965517244" y="0.0" type="line"/>
      <point x="867.5172413793103" y="0.0" type="line"/>
      <point x="985.3448275862069" y="556.4827586206897" type="line"/>
      <point x="873.3103448275862" y="556.4827586206897" type="line"/>
      <point x="767.0344827586207" y="55.93103448275862" type="line"/>
      <point x="524.0" y="55.93103448275862" type="line"/>
      <point x="609.6551724137931" y="83.82758620689656"/>
      <point x="688.7241379310345" y="148.3793103448276"/>
      <point x="688.7241379310345" y="251.55172413793105" type="curve" smooth="yes"/>
      <point x="688.7241379310345" y="337.0"/>
      <point x="629.8275862068965" y="380.1034482758621"/>
      <point x="559.3448275862069" y="380.1034482758621" type="curve" smooth="yes"/>
      <point x="498.0" y="380.1034482758621"/>
      <point x="458.8965517241379" y="347.6551724137931"/>
      <point x="435.8965517241379" y="315.3103448275862" type="curve"/>
      <point x="475.62068965517244" y="500.55172413793105" type="line"/>
      <point x="631.9310344827586" y="500.55172413793105" type="line"/>
      <point x="644.2068965517242" y="556.4827586206897" type="line"/>
      <point x="154.79310344827587" y="556.4827586206897" type="line"/>
    </contour>
  </outline>
</glyph>
<glyph name="ja-tamil" format="2">
  <advance width="997.5862068965517"/>
  <unicode hex="0B9C"/>
  <note>
uni0B9C
</note>
  <anchor x="443.7241379310345" y="0.0" name="bottom"/>
  <anchor x="372.55172413793105" y="-303.7241379310345" name="nukta"/>
  <anchor x="561.6206896551724" y="556.4827586206897" name="top"/>
  <anchor x="559.5172413793103" y="556.4827586206897" name="vedic"/>
  <outline>
    <contour>
      <point x="166.10344827586206" y="-303.7241379310345" type="curve" smooth="yes"/>
      <point x="387.9310344827586" y="-303.7241379310345"/>
      <point x="461.51724137931035" y="-18.103448275862068"/>
      <point x="649.1034482758621" y="-18.103448275862068" type="curve" smooth="yes"/>
      <point x="715.1034482758621" y="-18.103448275862068"/>
      <point x="749.6551724137931" y="-59.10344827586207"/>
      <point x="749.6551724137931" y="-115.0344827586207" type="curve" smooth="yes"/>
      <point x="749.6551724137931" y="-193.0344827586207"/>
      <point x="701.0" y="-250.0344827586207"/>
      <point x="618.0" y="-250.0344827586207" type="curve" smooth="yes"/>
      <point x="588.8965517241379" y="-250.0344827586207"/>
      <point x="555.5172413793103" y="-241.48275862068965"/>
      <point x="521.1379310344828" y="-219.55172413793105" type="curve"/>
      <point x="494.0344827586207" y="-258.82758620689657" type="line"/>
      <point x="538.551724137931" y="-290.8965517241379"/>
      <point x="586.5862068965517" y="-303.7241379310345"/>
      <point x="641.3793103448276" y="-303.7241379310345" type="curve" smooth="yes"/>
      <point x="756.6206896551724" y="-303.7241379310345"/>
      <point x="860.5862068965517" y="-239.51724137931035"/>
      <point x="860.5862068965517" y="-115.0344827586207" type="curve" smooth="yes"/>
      <point x="860.5862068965517" y="-6.758620689655173"/>
      <point x="777.4827586206897" y="38.6551724137931"/>
      <point x="674.3793103448276" y="38.6551724137931" type="curve" smooth="yes"/>
      <point x="434.9310344827586" y="38.6551724137931"/>
      <point x="352.55172413793105" y="-248.51724137931035"/>
      <point x="188.27586206896552" y="-248.51724137931035" type="curve" smooth="yes"/>
      <point x="118.58620689655173" y="-248.51724137931035"/>
      <point x="87.3103448275862" y="-201.89655172413794"/>
      <point x="87.3103448275862" y="-122.17241379310344" type="curve" smooth="yes"/>
      <point x="87.3103448275862" y="36.10344827586207"/>
      <point x="247.55172413793105" y="57.724137931034484"/>
      <point x="491.17241379310343" y="81.37931034482759" type="curve" smooth="yes"/>
      <point x="743.9655172413793" y="105.86206896551724"/>
      <point x="955.8620689655172" y="161.6551724137931"/>
      <point x="955.8620689655172" y="385.9310344827586" type="curve" smooth="yes"/>
      <point x="955.8620689655172" y="506.82758620689657"/>
      <point x="866.1379310344828" y="561.7586206896551"/>
      <point x="762.0344827586207" y="561.7586206896551" type="curve" smooth="yes"/>
      <point x="669.3103448275862" y="561.7586206896551"/>
      <point x="595.6551724137931" y="517.1034482758621"/>
      <point x="551.6551724137931" y="434.51724137931035" type="curve"/>
      <point x="528.3793103448276" y="520.0"/>
      <point x="446.17241379310343" y="561.7586206896551"/>
      <point x="343.51724137931035" y="561.7586206896551" type="curve" smooth="yes"/>
      <point x="190.79310344827587" y="561.7586206896551"/>
      <point x="70.82758620689656" y="464.3448275862069"/>
      <point x="70.82758620689656" y="315.41379310344826" type="curve" smooth="yes"/>
      <point x="70.82758620689656" y="227.55172413793105"/>
      <point x="130.58620689655172" y="156.82758620689654"/>
      <point x="222.44827586206895" y="156.82758620689654" type="curve" smooth="yes"/>
      <point x="307.1034482758621" y="156.82758620689654"/>
      <point x="387.1379310344828" y="203.72413793103448"/>
      <point x="387.1379310344828" y="298.0" type="curve" smooth="yes"/>
      <point x="387.1379310344828" y="367.55172413793105"/>
      <point x="336.86206896551727" y="411.44827586206895"/>
      <point x="268.6551724137931" y="411.44827586206895" type="curve" smooth="yes"/>
      <point x="202.24137931034483" y="411.44827586206895"/>
      <point x="135.31034482758622" y="375.7931034482759"/>
      <point x="99.48275862068965" y="255.9310344827586" type="curve"/>
      <point x="122.44827586206897" y="223.72413793103448" type="line"/>
      <point x="150.51724137931035" y="318.9655172413793"/>
      <point x="192.89655172413794" y="351.7241379310345"/>
      <point x="231.82758620689654" y="351.7241379310345" type="curve" smooth="yes"/>
      <point x="269.6551724137931" y="351.7241379310345"/>
      <point x="291.82758620689657" y="327.7241379310345"/>
      <point x="291.82758620689657" y="291.55172413793105" type="curve" smooth="yes"/>
      <point x="291.82758620689657" y="244.27586206896552"/>
      <point x="261.3448275862069" y="213.0344827586207"/>
      <point x="212.89655172413794" y="213.0344827586207" type="curve" smooth="yes"/>
      <point x="168.13793103448276" y="213.0344827586207"/>
      <point x="128.75862068965517" y="249.9655172413793"/>
      <point x="128.75862068965517" y="314.8965517241379" type="curve" smooth="yes"/>
      <point x="128.75862068965517" y="428.62068965517244"/>
      <point x="219.41379310344828" y="505.55172413793105"/>
      <point x="336.41379310344826" y="505.55172413793105" type="curve" smooth="yes"/>
      <point x="445.9655172413793" y="505.55172413793105"/>
      <point x="496.82758620689657" y="437.86206896551727"/>
      <point x="474.37931034482756" y="331.7241379310345" type="curve" smooth="yes"/>
      <point x="449.7241379310345" y="215.55172413793105" type="line"/>
      <point x="560.7586206896552" y="215.55172413793105" type="line"/>
      <point x="592.4137931034483" y="369.51724137931035" type="line" smooth="yes"/>
      <point x="608.2413793103449" y="447.7241379310345"/>
      <point x="660.0344827586207" y="505.55172413793105"/>
      <point x="738.9655172413793" y="505.55172413793105" type="curve" smooth="yes"/>
      <point x="813.8965517241379" y="505.55172413793105"/>
      <point x="845.3793103448276" y="457.0689655172414"/>
      <point x="845.3793103448276" y="390.2413793103448" type="curve" smooth="yes"/>
      <point x="845.3793103448276" y="186.0344827586207"/>
      <point x="682.1034482758621" y="145.75862068965517"/>
      <point x="422.2758620689655" y="121.44827586206897" type="curve" smooth="yes"/>
      <point x="170.82758620689654" y="98.06896551724138"/>
      <point x="-22.448275862068964" y="63.724137931034484"/>
      <point x="-22.448275862068964" y="-119.13793103448276" type="curve" smooth="yes"/>
      <point x="-22.448275862068964" y="-233.24137931034483"/>
      <point x="43.86206896551724" y="-303.7241379310345"/>
    </contour>
  </outline>
</glyph>
<glyph name="nya-tamil" format="2">
  <advance width="1311.8275862068965"/>
  <unicode hex="0B9E"/>
  <note>
uni0B9E
</note>
  <anchor x="631.1034482758621" y="0.0" name="bottom"/>
  <anchor x="1103.7931034482758" y="556.4827586206897" name="imatra"/>
  <anchor x="563.5862068965517" y="-357.1034482758621" name="nukta"/>
  <anchor x="747.8275862068965" y="556.4827586206897" name="top"/>
  <anchor x="717.9310344827586" y="556.4827586206897" name="vedic"/>
  <outline>
    <contour>
      <point x="563.5862068965517" y="-357.1034482758621" type="curve" smooth="yes"/>
      <point x="944.6551724137931" y="-357.1034482758621"/>
      <point x="1228.8275862068965" y="-128.44827586206895"/>
      <point x="1228.8275862068965" y="167.41379310344828" type="curve" smooth="yes"/>
      <point x="1228.8275862068965" y="278.8965517241379"/>
      <point x="1175.0" y="343.8965517241379"/>
      <point x="1079.5172413793102" y="343.8965517241379" type="curve" smooth="yes"/>
      <point x="986.2413793103449" y="343.8965517241379"/>
      <point x="930.551724137931" y="276.13793103448273"/>
      <point x="911.1034482758621" y="185.55172413793105" type="curve" smooth="yes"/>
      <point x="901.6551724137931" y="141.86206896551724" type="line"/>
      <point x="929.2068965517242" y="141.86206896551724" type="line"/>
      <point x="938.3793103448276" y="188.0" type="line" smooth="yes"/>
      <point x="948.2758620689656" y="236.58620689655172"/>
      <point x="975.1034482758621" y="276.62068965517244"/>
      <point x="1031.9310344827586" y="276.62068965517244" type="curve" smooth="yes"/>
      <point x="1083.1724137931035" y="276.62068965517244"/>
      <point x="1113.7931034482758" y="240.44827586206895"/>
      <point x="1113.7931034482758" y="165.10344827586206" type="curve" smooth="yes"/>
      <point x="1113.7931034482758" y="-86.96551724137932"/>
      <point x="892.8620689655172" y="-301.17241379310343"/>
      <point x="567.3103448275862" y="-301.17241379310343" type="curve" smooth="yes"/>
      <point x="294.2413793103448" y="-301.17241379310343"/>
      <point x="95.55172413793103" y="-131.24137931034483"/>
      <point x="95.55172413793103" y="147.0344827586207" type="curve" smooth="yes"/>
      <point x="95.55172413793103" y="353.6551724137931"/>
      <point x="203.27586206896552" y="508.17241379310343"/>
      <point x="374.2413793103448" y="630.8620689655172" type="curve"/>
      <point x="341.2068965517241" y="675.8620689655172" type="line"/>
      <point x="157.06896551724137" y="542.551724137931"/>
      <point x="36.06896551724138" y="369.8965517241379"/>
      <point x="36.06896551724138" y="140.75862068965517" type="curve" smooth="yes"/>
      <point x="36.06896551724138" y="-162.79310344827587"/>
      <point x="262.58620689655174" y="-357.1034482758621"/>
    </contour>
    <component base="e-tamil" xOffset="213.48275862068965"/>
  </outline>
</glyph>
<glyph name="tta-tamil" format="2">
  <advance width="901.5172413793103"/>
  <unicode hex="0B9F"/>
  <note>
uni0B9F
</note>
  <anchor x="422.3103448275862" y="0.0" name="bottom"/>
  <anchor x="422.3103448275862" y="0.0" name="nukta"/>
  <anchor x="551.0689655172414" y="556.4827586206897" name="top"/>
  <anchor x="551.6206896551724" y="556.4827586206897" name="vedic"/>
  <outline>
    <contour>
      <point x="36.241379310344826" y="0.0" type="line"/>
      <point x="829.6206896551724" y="0.0" type="line"/>
      <point x="841.8965517241379" y="55.93103448275862" type="line"/>
      <point x="159.82758620689657" y="55.93103448275862" type="line"/>
      <point x="266.1034482758621" y="556.4827586206897" type="line"/>
      <point x="154.79310344827587" y="556.4827586206897" type="line"/>
    </contour>
  </outline>
</glyph>
<glyph name="nna-tamil" format="2">
  <advance width="1757.7586206896551"/>
  <unicode hex="0BA3"/>
  <note>
uni0BA3
</note>
  <anchor x="884.3793103448276" y="0.0" name="bottom"/>
  <anchor x="1658.896551724138" y="556.4827586206897" name="imatra"/>
  <anchor x="884.3793103448276" y="0.0" name="nukta"/>
  <anchor x="998.448275862069" y="556.4827586206897" name="top"/>
  <anchor x="958.9655172413793" y="556.4827586206897" name="vedic"/>
  <outline>
    <contour>
      <point x="677.4137931034483" y="-5.0" type="curve" smooth="yes"/>
      <point x="786.1724137931035" y="-5.0"/>
      <point x="885.551724137931" y="72.37931034482759"/>
      <point x="885.551724137931" y="217.3793103448276" type="curve" smooth="yes"/>
      <point x="885.551724137931" y="444.55172413793105"/>
      <point x="690.5172413793103" y="561.4827586206897"/>
      <point x="474.17241379310343" y="561.4827586206897" type="curve" smooth="yes"/>
      <point x="248.75862068965517" y="561.4827586206897"/>
      <point x="49.10344827586207" y="418.58620689655174"/>
      <point x="49.10344827586207" y="215.75862068965517" type="curve" smooth="yes"/>
      <point x="49.10344827586207" y="87.06896551724138"/>
      <point x="134.06896551724137" y="-5.0"/>
      <point x="254.79310344827587" y="-5.0" type="curve" smooth="yes"/>
      <point x="358.55172413793105" y="-5.0"/>
      <point x="444.1379310344828" y="56.37931034482759"/>
      <point x="444.1379310344828" y="170.41379310344828" type="curve" smooth="yes"/>
      <point x="444.1379310344828" y="247.82758620689654"/>
      <point x="387.2758620689655" y="308.51724137931035"/>
      <point x="297.48275862068965" y="308.51724137931035" type="curve" smooth="yes"/>
      <point x="200.0" y="308.51724137931035"/>
      <point x="126.89655172413794" y="235.6206896551724"/>
      <point x="97.65517241379311" y="118.3103448275862" type="curve"/>
      <point x="126.96551724137932" y="93.51724137931035" type="line"/>
      <point x="148.6206896551724" y="186.75862068965517"/>
      <point x="201.89655172413794" y="238.20689655172413"/>
      <point x="261.41379310344826" y="238.20689655172413" type="curve" smooth="yes"/>
      <point x="315.41379310344826" y="238.20689655172413"/>
      <point x="340.2068965517241" y="200.10344827586206"/>
      <point x="340.2068965517241" y="157.31034482758622" type="curve" smooth="yes"/>
      <point x="340.2068965517241" y="98.06896551724138"/>
      <point x="305.6896551724138" y="52.310344827586206"/>
      <point x="239.6551724137931" y="52.310344827586206" type="curve" smooth="yes"/>
      <point x="165.0" y="52.310344827586206"/>
      <point x="108.20689655172414" y="118.10344827586206"/>
      <point x="108.20689655172414" y="220.48275862068965" type="curve" smooth="yes"/>
      <point x="108.20689655172414" y="389.0344827586207"/>
      <point x="279.7241379310345" y="505.55172413793105"/>
      <point x="464.7931034482759" y="505.55172413793105" type="curve" smooth="yes"/>
      <point x="643.5172413793103" y="505.55172413793105"/>
      <point x="777.4827586206897" y="391.7586206896552"/>
      <point x="777.4827586206897" y="227.75862068965517" type="curve" smooth="yes"/>
      <point x="777.4827586206897" y="119.58620689655173"/>
      <point x="730.9655172413793" y="55.58620689655172"/>
      <point x="656.6206896551724" y="55.58620689655172" type="curve" smooth="yes"/>
      <point x="607.551724137931" y="55.58620689655172"/>
      <point x="575.7586206896551" y="102.86206896551724"/>
      <point x="575.7586206896551" y="178.20689655172413" type="curve" smooth="yes"/>
      <point x="575.7586206896551" y="347.6896551724138"/>
      <point x="751.448275862069" y="505.55172413793105"/>
      <point x="945.2413793103449" y="505.55172413793105" type="curve" smooth="yes"/>
      <point x="1126.655172413793" y="505.55172413793105"/>
      <point x="1226.3103448275863" y="391.9310344827586"/>
      <point x="1226.3103448275863" y="231.3793103448276" type="curve" smooth="yes"/>
      <point x="1226.3103448275863" y="121.0344827586207"/>
      <point x="1178.344827586207" y="55.58620689655172"/>
      <point x="1103.2758620689656" y="55.58620689655172" type="curve" smooth="yes"/>
      <point x="1053.4827586206898" y="55.58620689655172"/>
      <point x="1024.5862068965516" y="98.13793103448276"/>
      <point x="1024.5862068965516" y="174.93103448275863" type="curve" smooth="yes"/>
      <point x="1024.5862068965516" y="369.3448275862069"/>
      <point x="1218.7241379310344" y="500.55172413793105"/>
      <point x="1412.448275862069" y="500.55172413793105" type="curve" smooth="yes"/>
      <point x="1787.3103448275863" y="500.55172413793105" type="line"/>
      <point x="1799.5862068965516" y="556.4827586206897" type="line"/>
      <point x="1421.6206896551723" y="556.4827586206897" type="line" smooth="yes"/>
      <point x="1189.4827586206898" y="556.4827586206897"/>
      <point x="966.6551724137931" y="402.44827586206895"/>
      <point x="966.6551724137931" y="173.86206896551724" type="curve" smooth="yes"/>
      <point x="966.6551724137931" y="78.48275862068965"/>
      <point x="1012.1034482758621" y="-5.0"/>
      <point x="1124.0689655172414" y="-5.0" type="curve" smooth="yes"/>
      <point x="1233.551724137931" y="-5.0"/>
      <point x="1334.3793103448277" y="75.75862068965517"/>
      <point x="1334.3793103448277" y="222.93103448275863" type="curve" smooth="yes"/>
      <point x="1334.3793103448277" y="446.6551724137931"/>
      <point x="1173.655172413793" y="561.4827586206897"/>
      <point x="954.6206896551724" y="561.4827586206897" type="curve" smooth="yes"/>
      <point x="721.0344827586207" y="561.4827586206897"/>
      <point x="517.8275862068965" y="380.7931034482759"/>
      <point x="517.8275862068965" y="177.13793103448276" type="curve" smooth="yes"/>
      <point x="517.8275862068965" y="81.75862068965517"/>
      <point x="565.448275862069" y="-5.0"/>
    </contour>
    <contour>
      <point x="1408.344827586207" y="0.0" type="line"/>
      <point x="1519.2758620689656" y="0.0" type="line"/>
      <point x="1632.0" y="529.2758620689655" type="line"/>
      <point x="1521.344827586207" y="529.2758620689655" type="line"/>
    </contour>
  </outline>
</glyph>
<glyph name="ta-tamil" format="2">
  <advance width="854.3793103448276"/>
  <unicode hex="0BA4"/>
  <note>
uni0BA4
</note>
  <anchor x="339.7931034482759" y="0.0" name="bottom"/>
  <anchor x="635.6551724137931" y="556.4827586206897" name="imatra"/>
  <anchor x="323.0344827586207" y="-137.79310344827587" name="nukta"/>
  <anchor x="480.37931034482756" y="556.4827586206897" name="top"/>
  <anchor x="461.0" y="556.4827586206897" name="vedic"/>
  <outline>
    <contour>
      <point x="69.37931034482759" y="-255.6206896551724" type="curve"/>
      <point x="85.20689655172414" y="-181.93103448275863"/>
      <point x="115.41379310344828" y="-137.79310344827587"/>
      <point x="213.20689655172413" y="-137.79310344827587" type="curve" smooth="yes"/>
      <point x="374.9310344827586" y="-137.79310344827587" type="line" smooth="yes"/>
      <point x="611.8965517241379" y="-137.79310344827587"/>
      <point x="760.3103448275862" y="-54.241379310344826"/>
      <point x="760.3103448275862" y="129.86206896551724" type="curve" smooth="yes"/>
      <point x="760.3103448275862" y="253.75862068965517"/>
      <point x="667.2068965517242" y="320.86206896551727"/>
      <point x="529.4137931034483" y="320.86206896551727" type="curve" smooth="yes"/>
      <point x="503.9310344827586" y="320.86206896551727" type="line"/>
      <point x="542.1034482758621" y="500.55172413793105" type="line"/>
      <point x="709.1379310344828" y="500.55172413793105" type="line"/>
      <point x="720.6896551724138" y="556.4827586206897" type="line"/>
      <point x="226.48275862068965" y="556.4827586206897" type="line"/>
      <point x="169.75862068965517" y="289.58620689655174" type="line"/>
      <point x="231.41379310344828" y="289.58620689655174" type="line"/>
      <point x="275.86206896551727" y="500.55172413793105" type="line"/>
      <point x="430.8965517241379" y="500.55172413793105" type="line"/>
      <point x="392.44827586206895" y="320.86206896551727" type="line"/>
      <point x="250.82758620689654" y="320.86206896551727" type="line" smooth="yes"/>
      <point x="127.82758620689656" y="320.86206896551727"/>
      <point x="34.724137931034484" y="260.37931034482756"/>
      <point x="34.724137931034484" y="149.6551724137931" type="curve" smooth="yes"/>
      <point x="34.724137931034484" y="57.689655172413794"/>
      <point x="111.58620689655173" y="-4.0"/>
      <point x="232.0689655172414" y="-4.0" type="curve" smooth="yes"/>
      <point x="374.2068965517241" y="-4.0"/>
      <point x="449.48275862068965" y="63.241379310344826"/>
      <point x="477.7586206896552" y="196.0" type="curve" smooth="yes"/>
      <point x="492.3793103448276" y="264.9310344827586" type="line"/>
      <point x="518.5862068965517" y="264.9310344827586" type="line" smooth="yes"/>
      <point x="598.3103448275862" y="264.9310344827586"/>
      <point x="651.0344827586207" y="214.0689655172414"/>
      <point x="651.0344827586207" y="124.96551724137932" type="curve" smooth="yes"/>
      <point x="651.0344827586207" y="-11.482758620689655"/>
      <point x="558.9310344827586" y="-87.6896551724138"/>
      <point x="357.82758620689657" y="-87.6896551724138" type="curve" smooth="yes"/>
      <point x="181.48275862068965" y="-87.6896551724138" type="line" smooth="yes"/>
      <point x="64.96551724137932" y="-87.6896551724138"/>
      <point x="-15.379310344827587" y="-113.79310344827586"/>
      <point x="-15.379310344827587" y="-188.82758620689654" type="curve" smooth="yes"/>
      <point x="-15.379310344827587" y="-233.9655172413793"/>
      <point x="15.862068965517242" y="-255.6206896551724"/>
    </contour>
    <contour>
      <point x="220.6206896551724" y="52.310344827586206" type="curve" smooth="yes"/>
      <point x="149.24137931034483" y="52.310344827586206"/>
      <point x="101.65517241379311" y="89.41379310344827"/>
      <point x="101.65517241379311" y="157.20689655172413" type="curve" smooth="yes"/>
      <point x="101.65517241379311" y="229.55172413793105"/>
      <point x="157.51724137931035" y="264.9310344827586"/>
      <point x="247.6551724137931" y="264.9310344827586" type="curve" smooth="yes"/>
      <point x="380.8965517241379" y="264.9310344827586" type="line"/>
      <point x="365.55172413793105" y="190.93103448275863" type="line" smooth="yes"/>
      <point x="345.2758620689655" y="93.37931034482759"/>
      <point x="300.2068965517241" y="52.310344827586206"/>
    </contour>
  </outline>
</glyph>
<glyph name="na-tamil" format="2">
  <advance width="799.5172413793103"/>
  <unicode hex="0BA8"/>
  <note>
uni0BA8
</note>
  <anchor x="329.3448275862069" y="0.0" name="bottom"/>
  <anchor x="575.7241379310345" y="556.4827586206897" name="imatra"/>
  <anchor x="284.55172413793105" y="-193.9655172413793" name="nukta"/>
  <anchor x="451.37931034482756" y="556.4827586206897" name="top"/>
  <anchor x="468.0" y="556.4827586206897" name="vedic"/>
  <outline>
    <contour>
      <point x="65.20689655172414" y="-255.6206896551724" type="curve"/>
      <point x="81.0344827586207" y="-181.93103448275863"/>
      <point x="111.24137931034483" y="-137.79310344827587"/>
      <point x="209.0344827586207" y="-137.79310344827587" type="curve" smooth="yes"/>
      <point x="316.37931034482756" y="-137.79310344827587" type="line" smooth="yes"/>
      <point x="531.8620689655172" y="-137.79310344827587"/>
      <point x="721.7931034482758" y="-36.41379310344828"/>
      <point x="721.7931034482758" y="178.06896551724137" type="curve" smooth="yes"/>
      <point x="721.7931034482758" y="281.7241379310345"/>
      <point x="666.0344827586207" y="343.8965517241379"/>
      <point x="574.8620689655172" y="343.8965517241379" type="curve" smooth="yes"/>
      <point x="510.3103448275862" y="343.8965517241379"/>
      <point x="469.41379310344826" y="307.82758620689657"/>
      <point x="447.2068965517241" y="277.55172413793105" type="curve"/>
      <point x="494.2068965517241" y="500.55172413793105" type="line"/>
      <point x="638.4137931034483" y="500.55172413793105" type="line"/>
      <point x="650.6896551724138" y="556.4827586206897" type="line"/>
      <point x="154.06896551724137" y="556.4827586206897" type="line"/>
      <point x="36.241379310344826" y="0.0" type="line"/>
      <point x="98.72413793103448" y="0.0" type="line"/>
      <point x="204.72413793103448" y="500.55172413793105" type="line"/>
      <point x="383.17241379310343" y="500.55172413793105" type="line"/>
      <point x="277.17241379310343" y="0.0" type="line"/>
      <point x="387.9310344827586" y="0.0" type="line"/>
      <point x="427.9310344827586" y="188.0" type="line" smooth="yes"/>
      <point x="438.1034482758621" y="236.58620689655172"/>
      <point x="475.41379310344826" y="276.62068965517244"/>
      <point x="525.7241379310345" y="276.62068965517244" type="curve" smooth="yes"/>
      <point x="576.9655172413793" y="276.62068965517244"/>
      <point x="606.7586206896551" y="243.0"/>
      <point x="606.7586206896551" y="175.75862068965517" type="curve" smooth="yes"/>
      <point x="606.7586206896551" y="-0.5862068965517233"/>
      <point x="489.13793103448273" y="-87.6896551724138"/>
      <point x="308.37931034482756" y="-87.6896551724138" type="curve" smooth="yes"/>
      <point x="177.31034482758622" y="-87.6896551724138" type="line" smooth="yes"/>
      <point x="60.793103448275865" y="-87.6896551724138"/>
      <point x="-19.551724137931036" y="-113.79310344827586"/>
      <point x="-19.551724137931036" y="-188.82758620689654" type="curve" smooth="yes"/>
      <point x="-19.551724137931036" y="-233.9655172413793"/>
      <point x="11.689655172413794" y="-255.6206896551724"/>
    </contour>
  </outline>
</glyph>
<glyph name="nnna-tamil" format="2">
  <advance width="1335.2758620689656"/>
  <unicode hex="0BA9"/>
  <note>
uni0BA9
</note>
  <anchor x="606.0344827586207" y="0.0" name="bottom"/>
  <anchor x="1236.4137931034484" y="556.4827586206897" name="imatra"/>
  <anchor x="606.0344827586207" y="0.0" name="nukta"/>
  <anchor x="752.7241379310345" y="556.4827586206897" name="top"/>
  <anchor x="748.8275862068965" y="556.4827586206897" name="vedic"/>
  <outline>
    <contour>
      <point x="254.79310344827587" y="-5.0" type="curve" smooth="yes"/>
      <point x="358.55172413793105" y="-5.0"/>
      <point x="444.1379310344828" y="56.37931034482759"/>
      <point x="444.1379310344828" y="170.41379310344828" type="curve" smooth="yes"/>
      <point x="444.1379310344828" y="247.82758620689654"/>
      <point x="387.2758620689655" y="308.51724137931035"/>
      <point x="297.48275862068965" y="308.51724137931035" type="curve" smooth="yes"/>
      <point x="200.0" y="308.51724137931035"/>
      <point x="126.89655172413794" y="235.6206896551724"/>
      <point x="97.65517241379311" y="118.3103448275862" type="curve"/>
      <point x="126.96551724137932" y="93.51724137931035" type="line"/>
      <point x="148.6206896551724" y="186.75862068965517"/>
      <point x="201.89655172413794" y="238.20689655172413"/>
      <point x="261.41379310344826" y="238.20689655172413" type="curve" smooth="yes"/>
      <point x="315.41379310344826" y="238.20689655172413"/>
      <point x="340.2068965517241" y="200.10344827586206"/>
      <point x="340.2068965517241" y="157.31034482758622" type="curve" smooth="yes"/>
      <point x="340.2068965517241" y="98.06896551724138"/>
      <point x="305.6896551724138" y="52.310344827586206"/>
      <point x="239.6551724137931" y="52.310344827586206" type="curve" smooth="yes"/>
      <point x="165.0" y="52.310344827586206"/>
      <point x="108.20689655172414" y="118.10344827586206"/>
      <point x="108.20689655172414" y="220.48275862068965" type="curve" smooth="yes"/>
      <point x="108.20689655172414" y="389.0344827586207"/>
      <point x="271.55172413793105" y="505.55172413793105"/>
      <point x="457.7241379310345" y="505.55172413793105" type="curve" smooth="yes"/>
      <point x="637.1724137931035" y="505.55172413793105"/>
      <point x="781.8275862068965" y="391.7586206896552"/>
      <point x="781.8275862068965" y="227.75862068965517" type="curve" smooth="yes"/>
      <point x="781.8275862068965" y="119.58620689655173"/>
      <point x="733.8620689655172" y="55.58620689655172"/>
      <point x="658.7931034482758" y="55.58620689655172" type="curve" smooth="yes"/>
      <point x="609.0" y="55.58620689655172"/>
      <point x="580.1034482758621" y="98.13793103448276"/>
      <point x="580.1034482758621" y="174.93103448275863" type="curve" smooth="yes"/>
      <point x="580.1034482758621" y="369.3448275862069"/>
      <point x="786.5862068965517" y="500.55172413793105"/>
      <point x="988.5862068965517" y="500.55172413793105" type="curve" smooth="yes"/>
      <point x="1364.8275862068965" y="500.55172413793105" type="line"/>
      <point x="1377.103448275862" y="556.4827586206897" type="line"/>
      <point x="997.7586206896552" y="556.4827586206897" type="line" smooth="yes"/>
      <point x="757.3448275862069" y="556.4827586206897"/>
      <point x="522.1724137931035" y="402.44827586206895"/>
      <point x="522.1724137931035" y="173.86206896551724" type="curve" smooth="yes"/>
      <point x="522.1724137931035" y="78.48275862068965"/>
      <point x="567.6206896551724" y="-5.0"/>
      <point x="679.5862068965517" y="-5.0" type="curve" smooth="yes"/>
      <point x="789.0689655172414" y="-5.0"/>
      <point x="889.8965517241379" y="72.93103448275862"/>
      <point x="889.8965517241379" y="217.93103448275863" type="curve" smooth="yes"/>
      <point x="889.8965517241379" y="445.1034482758621"/>
      <point x="684.1724137931035" y="561.4827586206897"/>
      <point x="467.1034482758621" y="561.4827586206897" type="curve" smooth="yes"/>
      <point x="240.58620689655172" y="561.4827586206897"/>
      <point x="49.10344827586207" y="418.58620689655174"/>
      <point x="49.10344827586207" y="215.75862068965517" type="curve" smooth="yes"/>
      <point x="49.10344827586207" y="87.06896551724138"/>
      <point x="134.06896551724137" y="-5.0"/>
    </contour>
    <contour>
      <point x="985.8620689655172" y="0.0" type="line"/>
      <point x="1096.7931034482758" y="0.0" type="line"/>
      <point x="1209.5172413793102" y="529.2758620689655" type="line"/>
      <point x="1098.8620689655172" y="529.2758620689655" type="line"/>
    </contour>
  </outline>
</glyph>
<glyph name="pa-tamil" format="2">
  <advance width="902.1034482758621"/>
  <unicode hex="0BAA"/>
  <note>
uni0BAA
</note>
  <anchor x="391.82758620689657" y="0.0" name="bottom"/>
  <anchor x="856.4137931034483" y="556.4827586206897" name="imatra"/>
  <anchor x="391.82758620689657" y="0.0" name="nukta"/>
  <anchor x="509.0" y="556.4827586206897" name="top"/>
  <anchor x="510.1034482758621" y="556.4827586206897" name="vedic"/>
  <outline>
    <contour>
      <point x="36.241379310344826" y="0.0" type="line"/>
      <point x="747.5862068965517" y="0.0" type="line"/>
      <point x="865.8620689655172" y="556.4827586206897" type="line"/>
      <point x="754.1034482758621" y="556.4827586206897" type="line"/>
      <point x="647.8275862068965" y="55.93103448275862" type="line"/>
      <point x="158.72413793103448" y="55.93103448275862" type="line"/>
      <point x="265.0" y="556.4827586206897" type="line"/>
      <point x="154.79310344827587" y="556.4827586206897" type="line"/>
    </contour>
  </outline>
</glyph>
<glyph name="ra-tamil" format="2">
  <advance width="649.2758620689655"/>
  <unicode hex="0BB0"/>
  <note>
uni0BB0
</note>
  <anchor x="269.58620689655174" y="0.0" name="bottom"/>
  <anchor x="620.5172413793103" y="556.4827586206897" name="imatra"/>
  <anchor x="225.20689655172413" y="-207.0" name="nukta"/>
  <anchor x="413.62068965517244" y="556.4827586206897" name="top"/>
  <anchor x="425.58620689655174" y="556.4827586206897" name="vedic"/>
  <outline>
    <contour>
      <point x="94.20689655172413" y="-250.31034482758622" type="line"/>
      <point x="416.62068965517244" y="19.413793103448278" type="line"/>
      <point x="517.3448275862069" y="500.55172413793105" type="line"/>
      <point x="678.8275862068965" y="500.55172413793105" type="line"/>
      <point x="690.3793103448276" y="556.4827586206897" type="line"/>
      <point x="154.79310344827587" y="556.4827586206897" type="line"/>
      <point x="36.241379310344826" y="0.0" type="line"/>
      <point x="98.72413793103448" y="0.0" type="line"/>
      <point x="205.0" y="500.55172413793105" type="line"/>
      <point x="405.48275862068965" y="500.55172413793105" type="line"/>
      <point x="298.82758620689657" y="1.8275862068965507" type="line"/>
      <point x="57.206896551724135" y="-203.82758620689654" type="line"/>
    </contour>
  </outline>
</glyph>
<glyph name="rra-tamil" format="2">
  <advance width="862.8275862068965"/>
  <unicode hex="0BB1"/>
  <note>
uni0BB1
</note>
  <anchor x="373.2068965517241" y="0.0" name="bottom"/>
  <anchor x="320.82758620689657" y="-201.20689655172413" name="nukta"/>
  <anchor x="464.6896551724138" y="556.4827586206897" name="top"/>
  <anchor x="498.86206896551727" y="556.4827586206897" name="vedic"/>
  <outline>
    <contour>
      <point x="67.17241379310344" y="-254.24137931034483" type="curve"/>
      <point x="83.0" y="-180.55172413793105"/>
      <point x="113.20689655172414" y="-137.86206896551724"/>
      <point x="211.0" y="-137.86206896551724" type="curve" smooth="yes"/>
      <point x="338.51724137931035" y="-137.86206896551724" type="line" smooth="yes"/>
      <point x="641.8620689655172" y="-137.86206896551724"/>
      <point x="805.1724137931035" y="24.06896551724138"/>
      <point x="805.1724137931035" y="326.51724137931035" type="curve" smooth="yes"/>
      <point x="805.1724137931035" y="473.3103448275862"/>
      <point x="732.2758620689655" y="561.4827586206897"/>
      <point x="603.6206896551724" y="561.4827586206897" type="curve" smooth="yes"/>
      <point x="509.17241379310343" y="561.4827586206897"/>
      <point x="447.8965517241379" y="502.2758620689655"/>
      <point x="422.9655172413793" y="460.7586206896552" type="curve"/>
      <point x="412.9655172413793" y="503.7586206896552"/>
      <point x="373.58620689655174" y="560.4827586206897"/>
      <point x="289.37931034482756" y="560.4827586206897" type="curve" smooth="yes"/>
      <point x="200.9655172413793" y="560.4827586206897"/>
      <point x="139.86206896551724" y="498.1034482758621"/>
      <point x="119.48275862068965" y="401.2068965517241" type="curve" smooth="yes"/>
      <point x="33.86206896551724" y="0.0" type="line"/>
      <point x="96.34482758620689" y="0.0" type="line"/>
      <point x="180.68965517241378" y="398.7241379310345" type="line" smooth="yes"/>
      <point x="194.79310344827587" y="466.13793103448273"/>
      <point x="229.41379310344828" y="503.17241379310343"/>
      <point x="281.0689655172414" y="503.17241379310343" type="curve" smooth="yes"/>
      <point x="345.6896551724138" y="503.17241379310343"/>
      <point x="365.51724137931035" y="449.1034482758621"/>
      <point x="351.6896551724138" y="382.51724137931035" type="curve" smooth="yes"/>
      <point x="270.2413793103448" y="0.0" type="line"/>
      <point x="381.7241379310345" y="0.0" type="line"/>
      <point x="462.62068965517244" y="380.41379310344826" type="line" smooth="yes"/>
      <point x="479.44827586206895" y="458.6551724137931"/>
      <point x="530.9655172413793" y="504.17241379310343"/>
      <point x="589.9310344827586" y="504.17241379310343" type="curve" smooth="yes"/>
      <point x="660.0" y="504.17241379310343"/>
      <point x="694.2413793103449" y="449.7931034482759"/>
      <point x="694.2413793103449" y="343.6551724137931" type="curve" smooth="yes"/>
      <point x="694.2413793103449" y="84.3448275862069"/>
      <point x="582.7586206896551" y="-84.13793103448276"/>
      <point x="340.1379310344828" y="-84.13793103448276" type="curve" smooth="yes"/>
      <point x="179.55172413793105" y="-84.13793103448276" type="line" smooth="yes"/>
      <point x="62.758620689655174" y="-84.13793103448276"/>
      <point x="-17.586206896551726" y="-112.41379310344827"/>
      <point x="-17.586206896551726" y="-187.44827586206895" type="curve" smooth="yes"/>
      <point x="-17.586206896551726" y="-232.58620689655172"/>
      <point x="13.655172413793103" y="-254.24137931034483"/>
    </contour>
  </outline>
</glyph>
<glyph name="la-tamil" format="2">
  <advance width="1066.1379310344828"/>
  <unicode hex="0BB2"/>
  <note>
uni0BB2
</note>
  <anchor x="477.8965517241379" y="0.0" name="bottom"/>
  <anchor x="477.8965517241379" y="0.0" name="nukta"/>
  <anchor x="613.4827586206897" y="556.4827586206897" name="top"/>
  <anchor x="592.448275862069" y="556.4827586206897" name="vedic"/>
  <outline>
    <contour>
      <point x="256.7931034482759" y="-5.0" type="curve" smooth="yes"/>
      <point x="360.55172413793105" y="-5.0"/>
      <point x="446.1379310344828" y="56.37931034482759"/>
      <point x="446.1379310344828" y="170.41379310344828" type="curve" smooth="yes"/>
      <point x="446.1379310344828" y="247.82758620689654"/>
      <point x="389.2758620689655" y="308.51724137931035"/>
      <point x="299.48275862068965" y="308.51724137931035" type="curve" smooth="yes"/>
      <point x="202.0" y="308.51724137931035"/>
      <point x="128.89655172413794" y="235.6206896551724"/>
      <point x="99.65517241379311" y="118.3103448275862" type="curve"/>
      <point x="128.9655172413793" y="93.51724137931035" type="line"/>
      <point x="150.6206896551724" y="186.75862068965517"/>
      <point x="203.89655172413794" y="238.20689655172413"/>
      <point x="263.41379310344826" y="238.20689655172413" type="curve" smooth="yes"/>
      <point x="317.41379310344826" y="238.20689655172413"/>
      <point x="342.2068965517241" y="200.10344827586206"/>
      <point x="342.2068965517241" y="157.31034482758622" type="curve" smooth="yes"/>
      <point x="342.2068965517241" y="98.06896551724138"/>
      <point x="307.6896551724138" y="52.310344827586206"/>
      <point x="241.6551724137931" y="52.310344827586206" type="curve" smooth="yes"/>
      <point x="167.0" y="52.310344827586206"/>
      <point x="110.20689655172414" y="118.10344827586206"/>
      <point x="110.20689655172414" y="220.48275862068965" type="curve" smooth="yes"/>
      <point x="110.20689655172414" y="390.41379310344826"/>
      <point x="231.89655172413794" y="505.55172413793105"/>
      <point x="409.7241379310345" y="505.55172413793105" type="curve" smooth="yes"/>
      <point x="542.1379310344828" y="505.55172413793105"/>
      <point x="613.1034482758621" y="423.44827586206895"/>
      <point x="585.0" y="292.17241379310343" type="curve" smooth="yes"/>
      <point x="563.7586206896551" y="194.20689655172413" type="line" smooth="yes"/>
      <point x="539.4827586206897" y="82.79310344827586"/>
      <point x="597.1724137931035" y="-1.3793103448275865"/>
      <point x="722.7931034482758" y="-1.3793103448275865" type="curve" smooth="yes"/>
      <point x="896.5172413793103" y="-1.3793103448275865"/>
      <point x="1017.0689655172414" y="159.3793103448276"/>
      <point x="1017.0689655172414" y="347.58620689655174" type="curve" smooth="yes"/>
      <point x="1017.0689655172414" y="434.0344827586207"/>
      <point x="989.1724137931035" y="503.82758620689657"/>
      <point x="948.551724137931" y="562.2068965517242" type="curve"/>
      <point x="901.5172413793103" y="529.4827586206897" type="line"/>
      <point x="933.0689655172414" y="482.0689655172414"/>
      <point x="961.7586206896552" y="416.9310344827586"/>
      <point x="961.7586206896552" y="343.82758620689657" type="curve" smooth="yes"/>
      <point x="961.7586206896552" y="196.17241379310346"/>
      <point x="867.551724137931" y="58.172413793103445"/>
      <point x="742.7586206896552" y="58.172413793103445" type="curve" smooth="yes"/>
      <point x="671.7586206896552" y="58.172413793103445"/>
      <point x="657.5862068965517" y="117.17241379310344"/>
      <point x="673.5862068965517" y="189.3448275862069" type="curve" smooth="yes"/>
      <point x="696.0344827586207" y="293.48275862068965" type="line" smooth="yes"/>
      <point x="732.9655172413793" y="464.6551724137931"/>
      <point x="616.2068965517242" y="561.4827586206897"/>
      <point x="424.62068965517244" y="561.4827586206897" type="curve" smooth="yes"/>
      <point x="205.6206896551724" y="561.4827586206897"/>
      <point x="51.10344827586207" y="419.9655172413793"/>
      <point x="51.10344827586207" y="215.75862068965517" type="curve" smooth="yes"/>
      <point x="51.10344827586207" y="87.06896551724138"/>
      <point x="136.06896551724137" y="-5.0"/>
    </contour>
  </outline>
</glyph>
<glyph name="va-tamil" format="2">
  <advance width="1154.655172413793"/>
  <unicode hex="0BB5"/>
  <note>
uni0BB5
</note>
  <anchor x="563.448275862069" y="0.0" name="bottom"/>
  <anchor x="1022.6206896551724" y="556.4827586206897" name="imatra"/>
  <anchor x="563.448275862069" y="0.0" name="nukta"/>
  <anchor x="631.3103448275862" y="556.4827586206897" name="top"/>
  <anchor x="618.9310344827586" y="556.4827586206897" name="vedic"/>
  <outline>
    <contour>
      <point x="255.0689655172414" y="-5.0" type="curve" smooth="yes"/>
      <point x="358.82758620689657" y="-5.0"/>
      <point x="444.41379310344826" y="56.37931034482759"/>
      <point x="444.41379310344826" y="170.41379310344828" type="curve" smooth="yes"/>
      <point x="444.41379310344826" y="247.82758620689654"/>
      <point x="387.55172413793105" y="308.51724137931035"/>
      <point x="297.7586206896552" y="308.51724137931035" type="curve" smooth="yes"/>
      <point x="200.27586206896552" y="308.51724137931035"/>
      <point x="127.17241379310344" y="235.6206896551724"/>
      <point x="97.93103448275862" y="118.3103448275862" type="curve"/>
      <point x="127.24137931034483" y="93.51724137931035" type="line"/>
      <point x="148.89655172413794" y="186.75862068965517"/>
      <point x="202.17241379310346" y="238.20689655172413"/>
      <point x="261.6896551724138" y="238.20689655172413" type="curve" smooth="yes"/>
      <point x="315.6896551724138" y="238.20689655172413"/>
      <point x="340.48275862068965" y="200.10344827586206"/>
      <point x="340.48275862068965" y="157.31034482758622" type="curve" smooth="yes"/>
      <point x="340.48275862068965" y="98.06896551724138"/>
      <point x="305.9655172413793" y="52.310344827586206"/>
      <point x="239.93103448275863" y="52.310344827586206" type="curve" smooth="yes"/>
      <point x="165.27586206896552" y="52.310344827586206"/>
      <point x="108.48275862068965" y="118.10344827586206"/>
      <point x="108.48275862068965" y="220.48275862068965" type="curve" smooth="yes"/>
      <point x="108.48275862068965" y="381.51724137931035"/>
      <point x="259.2413793103448" y="505.55172413793105"/>
      <point x="425.7586206896552" y="505.55172413793105" type="curve" smooth="yes"/>
      <point x="563.0689655172414" y="505.55172413793105"/>
      <point x="655.2413793103449" y="431.82758620689657"/>
      <point x="655.2413793103449" y="298.1034482758621" type="curve" smooth="yes"/>
      <point x="655.2413793103449" y="195.0"/>
      <point x="604.3103448275862" y="119.79310344827586"/>
      <point x="529.2413793103449" y="43.275862068965516" type="curve"/>
      <point x="538.0689655172414" y="0.0" type="line"/>
      <point x="1000.1379310344828" y="0.0" type="line"/>
      <point x="1118.4137931034484" y="556.4827586206897" type="line"/>
      <point x="1006.9310344827586" y="556.4827586206897" type="line"/>
      <point x="899.9310344827586" y="55.93103448275862" type="line"/>
      <point x="629.3793103448276" y="55.93103448275862" type="line"/>
      <point x="701.6896551724138" y="115.3103448275862"/>
      <point x="766.4137931034483" y="194.86206896551724"/>
      <point x="766.4137931034483" y="311.6551724137931" type="curve" smooth="yes"/>
      <point x="766.4137931034483" y="478.82758620689657"/>
      <point x="619.7586206896551" y="561.4827586206897"/>
      <point x="440.51724137931035" y="561.4827586206897" type="curve" smooth="yes"/>
      <point x="227.31034482758622" y="561.4827586206897"/>
      <point x="49.37931034482759" y="407.44827586206895"/>
      <point x="49.37931034482759" y="215.75862068965517" type="curve" smooth="yes"/>
      <point x="49.37931034482759" y="87.06896551724138"/>
      <point x="134.3448275862069" y="-5.0"/>
    </contour>
  </outline>
</glyph>
<glyph name="sa-tamil" format="2">
  <advance width="1374.6206896551723"/>
  <unicode hex="0BB8"/>
  <note>
uni0BB8
</note>
  <anchor x="634.1034482758621" y="0.0" name="bottom"/>
  <anchor x="634.1034482758621" y="0.0" name="nukta"/>
  <anchor x="736.4137931034483" y="556.4827586206897" name="top"/>
  <anchor x="750.4827586206897" y="556.4827586206897" name="vedic"/>
  <outline>
    <contour>
      <point x="538.7586206896551" y="0.0" type="line"/>
      <point x="649.6896551724138" y="0.0" type="line"/>
      <point x="736.5862068965517" y="407.58620689655174" type="line" smooth="yes"/>
      <point x="749.4137931034483" y="465.7241379310345"/>
      <point x="784.0344827586207" y="505.1034482758621"/>
      <point x="841.5172413793103" y="505.1034482758621" type="curve" smooth="yes"/>
      <point x="895.6206896551724" y="505.1034482758621"/>
      <point x="929.0344827586207" y="468.17241379310343"/>
      <point x="914.5862068965517" y="400.9310344827586" type="curve" smooth="yes"/>
      <point x="870.8620689655172" y="194.20689655172413" type="line" smooth="yes"/>
      <point x="847.3103448275862" y="83.06896551724138"/>
      <point x="904.2758620689656" y="-1.3793103448275865"/>
      <point x="1029.896551724138" y="-1.3793103448275865" type="curve" smooth="yes"/>
      <point x="1203.6206896551723" y="-1.3793103448275865"/>
      <point x="1325.551724137931" y="159.3793103448276"/>
      <point x="1325.551724137931" y="347.58620689655174" type="curve" smooth="yes"/>
      <point x="1325.551724137931" y="434.0344827586207"/>
      <point x="1302.655172413793" y="501.82758620689657"/>
      <point x="1264.3103448275863" y="561.2068965517242" type="curve"/>
      <point x="1215.2758620689656" y="530.4827586206897" type="line"/>
      <point x="1245.551724137931" y="482.0689655172414"/>
      <point x="1270.2413793103449" y="416.9310344827586"/>
      <point x="1270.2413793103449" y="343.82758620689657" type="curve" smooth="yes"/>
      <point x="1270.2413793103449" y="196.17241379310346"/>
      <point x="1174.655172413793" y="58.172413793103445"/>
      <point x="1049.8620689655172" y="58.172413793103445" type="curve" smooth="yes"/>
      <point x="978.8620689655172" y="58.172413793103445"/>
      <point x="964.6896551724138" y="116.44827586206897"/>
      <point x="980.6896551724138" y="189.3448275862069" type="curve" smooth="yes"/>
      <point x="1021.4137931034483" y="378.0344827586207" type="line" smooth="yes"/>
      <point x="1046.7931034482758" y="494.55172413793105"/>
      <point x="973.1724137931035" y="561.4827586206897"/>
      <point x="862.0" y="561.4827586206897" type="curve" smooth="yes"/>
      <point x="757.0344827586207" y="561.4827586206897"/>
      <point x="695.3103448275862" y="493.48275862068965"/>
      <point x="679.0344827586207" y="418.82758620689657" type="curve" smooth="yes"/>
      <point x="659.7586206896551" y="330.0" type="line"/>
      <point x="612.3448275862069" y="348.48275862068965" type="line"/>
    </contour>
    <contour>
      <point x="257.51724137931035" y="-5.0" type="curve" smooth="yes"/>
      <point x="361.2758620689655" y="-5.0"/>
      <point x="446.86206896551727" y="56.37931034482759"/>
      <point x="446.86206896551727" y="170.41379310344828" type="curve" smooth="yes"/>
      <point x="446.86206896551727" y="247.82758620689654"/>
      <point x="390.0" y="308.51724137931035"/>
      <point x="300.2068965517241" y="308.51724137931035" type="curve" smooth="yes"/>
      <point x="202.72413793103448" y="308.51724137931035"/>
      <point x="129.6206896551724" y="235.6206896551724"/>
      <point x="100.37931034482759" y="118.3103448275862" type="curve"/>
      <point x="129.68965517241378" y="93.51724137931035" type="line"/>
      <point x="151.3448275862069" y="186.75862068965517"/>
      <point x="204.6206896551724" y="238.20689655172413"/>
      <point x="264.13793103448273" y="238.20689655172413" type="curve" smooth="yes"/>
      <point x="318.13793103448273" y="238.20689655172413"/>
      <point x="342.9310344827586" y="200.10344827586206"/>
      <point x="342.9310344827586" y="157.31034482758622" type="curve" smooth="yes"/>
      <point x="342.9310344827586" y="98.06896551724138"/>
      <point x="308.41379310344826" y="52.310344827586206"/>
      <point x="242.3793103448276" y="52.310344827586206" type="curve" smooth="yes"/>
      <point x="167.72413793103448" y="52.310344827586206"/>
      <point x="110.93103448275862" y="118.10344827586206"/>
      <point x="110.93103448275862" y="220.48275862068965" type="curve" smooth="yes"/>
      <point x="110.93103448275862" y="388.48275862068965"/>
      <point x="227.0344827586207" y="505.55172413793105"/>
      <point x="401.82758620689657" y="505.55172413793105" type="curve" smooth="yes"/>
      <point x="531.4137931034483" y="505.55172413793105"/>
      <point x="633.1379310344828" y="434.8965517241379"/>
      <point x="600.5862068965517" y="293.7931034482759" type="curve"/>
      <point x="667.4827586206897" y="297.41379310344826" type="line"/>
      <point x="700.4827586206897" y="464.2068965517241"/>
      <point x="581.0689655172414" y="561.7586206896551"/>
      <point x="408.7241379310345" y="561.7586206896551" type="curve" smooth="yes"/>
      <point x="198.27586206896552" y="561.7586206896551"/>
      <point x="51.827586206896555" y="418.0344827586207"/>
      <point x="51.827586206896555" y="215.75862068965517" type="curve" smooth="yes"/>
      <point x="51.827586206896555" y="87.06896551724138"/>
      <point x="136.79310344827587" y="-5.0"/>
    </contour>
  </outline>
</glyph>
<glyph name="ha-tamil" format="2">
  <advance width="1648.6896551724137"/>
  <unicode hex="0BB9"/>
  <note>
uni0BB9
</note>
  <anchor x="789.8275862068965" y="0.0" name="bottom"/>
  <anchor x="757.1034482758621" y="-151.17241379310346" name="nukta"/>
  <anchor x="908.2068965517242" y="556.4827586206897" name="top"/>
  <anchor x="887.551724137931" y="556.4827586206897" name="vedic"/>
  <outline>
    <contour>
      <point x="112.27586206896552" y="-267.55172413793105" type="curve"/>
      <point x="128.10344827586206" y="-193.86206896551724"/>
      <point x="158.31034482758622" y="-151.17241379310346"/>
      <point x="256.1034482758621" y="-151.17241379310346" type="curve" smooth="yes"/>
      <point x="1073.2068965517242" y="-151.17241379310346" type="line" smooth="yes"/>
      <point x="1382.6206896551723" y="-151.17241379310346"/>
      <point x="1593.4827586206898" y="14.068965517241379"/>
      <point x="1593.4827586206898" y="326.51724137931035" type="curve" smooth="yes"/>
      <point x="1593.4827586206898" y="473.3103448275862"/>
      <point x="1520.5862068965516" y="561.4827586206897"/>
      <point x="1391.9310344827586" y="561.4827586206897" type="curve" smooth="yes"/>
      <point x="1297.4827586206898" y="561.4827586206897"/>
      <point x="1236.2068965517242" y="502.2758620689655"/>
      <point x="1211.2758620689656" y="460.7586206896552" type="curve"/>
      <point x="1201.2758620689656" y="503.7586206896552"/>
      <point x="1161.896551724138" y="560.4827586206897"/>
      <point x="1077.6896551724137" y="560.4827586206897" type="curve" smooth="yes"/>
      <point x="989.2758620689655" y="560.4827586206897"/>
      <point x="928.8965517241379" y="498.1034482758621"/>
      <point x="907.7931034482758" y="401.2068965517241" type="curve" smooth="yes"/>
      <point x="833.2758620689655" y="55.93103448275862" type="line"/>
      <point x="629.3793103448276" y="55.93103448275862" type="line"/>
      <point x="701.6896551724138" y="115.3103448275862"/>
      <point x="766.4137931034483" y="191.9655172413793"/>
      <point x="766.4137931034483" y="308.7586206896552" type="curve" smooth="yes"/>
      <point x="766.4137931034483" y="475.9310344827586"/>
      <point x="624.8275862068965" y="561.4827586206897"/>
      <point x="437.62068965517244" y="561.4827586206897" type="curve" smooth="yes"/>
      <point x="224.41379310344828" y="561.4827586206897"/>
      <point x="49.37931034482759" y="409.62068965517244"/>
      <point x="49.37931034482759" y="215.75862068965517" type="curve" smooth="yes"/>
      <point x="49.37931034482759" y="87.06896551724138"/>
      <point x="134.3448275862069" y="-5.0"/>
      <point x="255.0689655172414" y="-5.0" type="curve" smooth="yes"/>
      <point x="358.82758620689657" y="-5.0"/>
      <point x="444.41379310344826" y="56.37931034482759"/>
      <point x="444.41379310344826" y="170.41379310344828" type="curve" smooth="yes"/>
      <point x="444.41379310344826" y="247.82758620689654"/>
      <point x="387.55172413793105" y="308.51724137931035"/>
      <point x="297.7586206896552" y="308.51724137931035" type="curve" smooth="yes"/>
      <point x="200.27586206896552" y="308.51724137931035"/>
      <point x="127.17241379310344" y="235.6206896551724"/>
      <point x="97.93103448275862" y="118.3103448275862" type="curve"/>
      <point x="127.24137931034483" y="93.51724137931035" type="line"/>
      <point x="148.89655172413794" y="186.75862068965517"/>
      <point x="202.17241379310346" y="238.20689655172413"/>
      <point x="261.6896551724138" y="238.20689655172413" type="curve" smooth="yes"/>
      <point x="315.6896551724138" y="238.20689655172413"/>
      <point x="340.48275862068965" y="200.10344827586206"/>
      <point x="340.48275862068965" y="157.31034482758622" type="curve" smooth="yes"/>
      <point x="340.48275862068965" y="98.06896551724138"/>
      <point x="305.9655172413793" y="52.310344827586206"/>
      <point x="239.93103448275863" y="52.310344827586206" type="curve" smooth="yes"/>
      <point x="165.27586206896552" y="52.310344827586206"/>
      <point x="108.48275862068965" y="118.10344827586206"/>
      <point x="108.48275862068965" y="220.48275862068965" type="curve" smooth="yes"/>
      <point x="108.48275862068965" y="381.51724137931035"/>
      <point x="259.2413793103448" y="505.55172413793105"/>
      <point x="425.7586206896552" y="505.55172413793105" type="curve" smooth="yes"/>
      <point x="555.8275862068965" y="505.55172413793105"/>
      <point x="655.2413793103449" y="428.9310344827586"/>
      <point x="655.2413793103449" y="295.2068965517241" type="curve" smooth="yes"/>
      <point x="655.2413793103449" y="192.10344827586206"/>
      <point x="604.3103448275862" y="119.79310344827586"/>
      <point x="529.2413793103449" y="43.275862068965516" type="curve"/>
      <point x="538.0689655172414" y="0.0" type="line"/>
      <point x="884.6551724137931" y="0.0" type="line"/>
      <point x="969.0" y="398.7241379310345" type="line" smooth="yes"/>
      <point x="983.1034482758621" y="466.13793103448273"/>
      <point x="1017.7241379310345" y="503.17241379310343"/>
      <point x="1069.3793103448277" y="503.17241379310343" type="curve" smooth="yes"/>
      <point x="1134.0" y="503.17241379310343"/>
      <point x="1153.8275862068965" y="449.1034482758621"/>
      <point x="1140.0" y="382.51724137931035" type="curve" smooth="yes"/>
      <point x="1058.551724137931" y="0.0" type="line"/>
      <point x="1170.0344827586207" y="0.0" type="line"/>
      <point x="1250.9310344827586" y="380.41379310344826" type="line" smooth="yes"/>
      <point x="1267.7586206896551" y="458.6551724137931"/>
      <point x="1319.2758620689656" y="504.17241379310343"/>
      <point x="1378.2413793103449" y="504.17241379310343" type="curve" smooth="yes"/>
      <point x="1448.3103448275863" y="504.17241379310343"/>
      <point x="1482.551724137931" y="449.7931034482759"/>
      <point x="1482.551724137931" y="343.6551724137931" type="curve" smooth="yes"/>
      <point x="1482.551724137931" y="72.41379310344827"/>
      <point x="1322.1379310344828" y="-96.06896551724138"/>
      <point x="1073.448275862069" y="-96.06896551724138" type="curve" smooth="yes"/>
      <point x="224.6551724137931" y="-96.06896551724138" type="line" smooth="yes"/>
      <point x="107.86206896551724" y="-96.06896551724138"/>
      <point x="27.517241379310345" y="-125.72413793103448"/>
      <point x="27.517241379310345" y="-200.75862068965517" type="curve" smooth="yes"/>
      <point x="27.517241379310345" y="-245.89655172413794"/>
      <point x="58.758620689655174" y="-267.55172413793105"/>
    </contour>
  </outline>
</glyph>
<glyph name="aaMatra-tamil" format="2">
  <advance width="666.4827586206897"/>
  <unicode hex="0BBE"/>
  <note>
uni0BBE
</note>
  <anchor x="307.0689655172414" y="0.0" name="bottom"/>
  <anchor x="306.0689655172414" y="0.0" name="nukta"/>
  <anchor x="418.62068965517244" y="556.4827586206897" name="top"/>
  <anchor x="418.62068965517244" y="556.4827586206897" name="vedic"/>
  <outline>
    <contour>
      <point x="36.241379310344826" y="0.0" type="line"/>
      <point x="98.72413793103448" y="0.0" type="line"/>
      <point x="205.0" y="500.55172413793105" type="line"/>
      <point x="418.7931034482759" y="500.55172413793105" type="line"/>
      <point x="311.7931034482759" y="0.0" type="line"/>
      <point x="422.7241379310345" y="0.0" type="line"/>
      <point x="529.0" y="500.55172413793105" type="line"/>
      <point x="696.0344827586207" y="500.55172413793105" type="line"/>
      <point x="708.0344827586207" y="556.4827586206897" type="line"/>
      <point x="154.79310344827587" y="556.4827586206897" type="line"/>
    </contour>
  </outline>
</glyph>
<glyph name="iMatra-tamil" format="2">
  <advance width="230.86206896551724"/>
  <unicode hex="0BBF"/>
  <note>
uni0BBF
</note>
  <anchor x="-40.689655172413794" y="843.3793103448276" name="top"/>
  <outline>
    <contour>
      <point x="16.310344827586206" y="0.0" type="line"/>
      <point x="78.51724137931035" y="0.0" type="line"/>
      <point x="193.9655172413793" y="541.7931034482758" type="line" smooth="yes"/>
      <point x="231.0689655172414" y="717.3103448275862"/>
      <point x="142.79310344827587" y="843.3793103448276"/>
      <point x="-40.689655172413794" y="843.3793103448276" type="curve" smooth="yes"/>
      <point x="-178.20689655172413" y="843.3793103448276"/>
      <point x="-278.0689655172414" y="754.6206896551724"/>
      <point x="-278.0689655172414" y="642.4137931034483" type="curve" smooth="yes"/>
      <point x="-278.0689655172414" y="558.3103448275862"/>
      <point x="-226.79310344827587" y="504.6896551724138"/>
      <point x="-153.55172413793105" y="504.6896551724138" type="curve" smooth="yes"/>
      <point x="-149.3793103448276" y="504.6896551724138" type="line"/>
      <point x="-138.6551724137931" y="556.4827586206897" type="line"/>
      <point x="-142.82758620689657" y="556.4827586206897" type="line" smooth="yes"/>
      <point x="-185.6551724137931" y="556.4827586206897"/>
      <point x="-212.58620689655174" y="583.448275862069"/>
      <point x="-212.58620689655174" y="628.551724137931" type="curve" smooth="yes"/>
      <point x="-212.58620689655174" y="700.551724137931"/>
      <point x="-137.10344827586206" y="744.6206896551724"/>
      <point x="-47.793103448275865" y="744.6206896551724" type="curve" smooth="yes"/>
      <point x="80.6551724137931" y="744.6206896551724"/>
      <point x="158.20689655172413" y="666.0344827586207"/>
      <point x="128.20689655172413" y="525.0344827586207" type="curve" smooth="yes"/>
    </contour>
  </outline>
</glyph>
<glyph name="iiMatra-tamil" format="2">
  <unicode hex="0BC0"/>
  <note>
uni0BC0
</note>
  <anchor x="59.55172413793103" y="556.4827586206897" name="_imatra"/>
  <anchor x="122.20689655172414" y="888.0689655172414" name="top"/>
  <outline>
    <contour>
      <point x="31.344827586206897" y="504.17241379310343" type="curve" smooth="yes"/>
      <point x="48.724137931034484" y="504.17241379310343" type="line"/>
      <point x="59.55172413793103" y="556.4827586206897" type="line"/>
      <point x="41.3448275862069" y="556.4827586206897" type="line" smooth="yes"/>
      <point x="-21.20689655172414" y="556.4827586206897"/>
      <point x="-70.44827586206897" y="597.7931034482758"/>
      <point x="-70.44827586206897" y="669.551724137931" type="curve" smooth="yes"/>
      <point x="-70.44827586206897" y="764.0344827586207"/>
      <point x="5.206896551724139" y="832.4137931034483"/>
      <point x="114.20689655172414" y="832.4137931034483" type="curve" smooth="yes"/>
      <point x="177.0" y="832.4137931034483"/>
      <point x="221.17241379310346" y="802.5862068965517"/>
      <point x="221.17241379310346" y="746.6206896551724" type="curve" smooth="yes"/>
      <point x="221.17241379310346" y="694.448275862069"/>
      <point x="185.82758620689654" y="663.1724137931035"/>
      <point x="136.20689655172413" y="663.1724137931035" type="curve" smooth="yes"/>
      <point x="50.03448275862069" y="663.1724137931035"/>
      <point x="49.41379310344828" y="768.2413793103449"/>
      <point x="113.75862068965517" y="855.6896551724138" type="curve"/>
      <point x="69.44827586206897" y="859.6896551724138" type="line"/>
      <point x="-29.379310344827587" y="734.4137931034483"/>
      <point x="2.1724137931034484" y="602.551724137931"/>
      <point x="144.48275862068965" y="602.551724137931" type="curve" smooth="yes"/>
      <point x="237.48275862068965" y="602.551724137931"/>
      <point x="309.2413793103448" y="657.9310344827586"/>
      <point x="309.2413793103448" y="747.1379310344828" type="curve" smooth="yes"/>
      <point x="309.2413793103448" y="837.5172413793103"/>
      <point x="228.68965517241378" y="888.0689655172414"/>
      <point x="122.20689655172414" y="888.0689655172414" type="curve" smooth="yes"/>
      <point x="-20.517241379310345" y="888.0689655172414"/>
      <point x="-130.6551724137931" y="790.2413793103449"/>
      <point x="-130.6551724137931" y="663.0" type="curve" smooth="yes"/>
      <point x="-130.6551724137931" y="561.7586206896551"/>
      <point x="-59.58620689655172" y="504.17241379310343"/>
    </contour>
  </outline>
</glyph>
<glyph name="uuMatra-tamil" format="2">
  <advance width="910.0689655172414"/>
  <unicode hex="0BC2"/>
  <note>
uni0BC2
</note>
  <anchor x="563.0344827586207" y="781.2758620689655" name="top"/>
  <outline>
    <contour>
      <point x="393.2413793103448" y="2.758620689655173" type="curve" smooth="yes"/>
      <point x="667.4137931034483" y="2.758620689655173"/>
      <point x="889.5862068965517" y="182.41379310344828"/>
      <point x="889.5862068965517" y="455.44827586206895" type="curve" smooth="yes"/>
      <point x="889.5862068965517" y="667.0344827586207"/>
      <point x="755.6206896551724" y="780.551724137931"/>
      <point x="563.4827586206897" y="780.551724137931" type="curve" smooth="yes"/>
      <point x="372.86206896551727" y="780.551724137931"/>
      <point x="258.9310344827586" y="657.1379310344828"/>
      <point x="230.93103448275863" y="527.4137931034483" type="curve" smooth="yes"/>
      <point x="206.20689655172413" y="413.7931034482759" type="line" smooth="yes"/>
      <point x="180.82758620689654" y="297.8965517241379"/>
      <point x="235.0689655172414" y="216.75862068965517"/>
      <point x="355.17241379310343" y="216.75862068965517" type="curve" smooth="yes"/>
      <point x="452.9655172413793" y="216.75862068965517"/>
      <point x="538.4827586206897" y="266.0689655172414"/>
      <point x="563.5862068965517" y="377.86206896551727" type="curve" smooth="yes"/>
      <point x="603.0344827586207" y="556.4827586206897" type="line"/>
      <point x="-208.55172413793105" y="556.4827586206897" type="line"/>
      <point x="-179.44827586206895" y="500.55172413793105" type="line"/>
      <point x="480.82758620689657" y="500.55172413793105" type="line"/>
      <point x="452.2068965517241" y="372.2413793103448" type="line" smooth="yes"/>
      <point x="438.2068965517241" y="310.6896551724138"/>
      <point x="396.86206896551727" y="276.2758620689655"/>
      <point x="340.7241379310345" y="276.2758620689655" type="curve" smooth="yes"/>
      <point x="276.58620689655174" y="276.2758620689655"/>
      <point x="248.58620689655172" y="326.13793103448273"/>
      <point x="266.58620689655174" y="407.9655172413793" type="curve" smooth="yes"/>
      <point x="292.0344827586207" y="526.0344827586207" type="line" smooth="yes"/>
      <point x="314.48275862068965" y="630.2758620689655"/>
      <point x="403.13793103448273" y="721.7586206896551"/>
      <point x="545.4137931034483" y="721.7586206896551" type="curve" smooth="yes"/>
      <point x="703.551724137931" y="721.7586206896551"/>
      <point x="781.8275862068965" y="625.7586206896551"/>
      <point x="781.8275862068965" y="472.6551724137931" type="curve" smooth="yes"/>
      <point x="781.8275862068965" y="234.31034482758622"/>
      <point x="620.6206896551724" y="60.896551724137936"/>
      <point x="393.2068965517241" y="60.896551724137936" type="curve" smooth="yes"/>
      <point x="269.6896551724138" y="60.896551724137936"/>
      <point x="159.13793103448276" y="104.17241379310344"/>
      <point x="88.24137931034483" y="211.6206896551724" type="curve"/>
      <point x="40.206896551724135" y="178.68965517241378" type="line"/>
      <point x="117.37931034482759" y="62.41379310344828"/>
      <point x="237.9655172413793" y="2.758620689655173"/>
    </contour>
  </outline>
</glyph>
<glyph name="eMatra-tamil" format="2">
  <advance width="867.448275862069"/>
  <unicode hex="0BC6"/>
  <note>
uni0BC6
</note>
  <outline>
    <contour>
      <point x="309.55172413793105" y="-5.0" type="curve" smooth="yes"/>
      <point x="413.3103448275862" y="-5.0"/>
      <point x="501.7241379310345" y="57.55172413793103"/>
      <point x="501.7241379310345" y="172.68965517241378" type="curve" smooth="yes"/>
      <point x="501.7241379310345" y="254.10344827586206"/>
      <point x="443.7586206896552" y="313.7931034482759"/>
      <point x="353.6896551724138" y="313.7931034482759" type="curve" smooth="yes"/>
      <point x="256.2068965517241" y="313.7931034482759"/>
      <point x="182.82758620689654" y="240.89655172413794"/>
      <point x="153.58620689655172" y="123.58620689655173" type="curve"/>
      <point x="181.44827586206895" y="98.79310344827586" type="line"/>
      <point x="203.10344827586206" y="192.0344827586207"/>
      <point x="258.1034482758621" y="243.48275862068965"/>
      <point x="317.62068965517244" y="243.48275862068965" type="curve" smooth="yes"/>
      <point x="371.62068965517244" y="243.48275862068965"/>
      <point x="397.7931034482759" y="203.75862068965517"/>
      <point x="397.7931034482759" y="159.58620689655172" type="curve" smooth="yes"/>
      <point x="397.7931034482759" y="98.41379310344827"/>
      <point x="360.44827586206895" y="52.310344827586206"/>
      <point x="294.41379310344826" y="52.310344827586206" type="curve" smooth="yes"/>
      <point x="219.75862068965517" y="52.310344827586206"/>
      <point x="148.3448275862069" y="123.20689655172414"/>
      <point x="148.3448275862069" y="285.0689655172414" type="curve" smooth="yes"/>
      <point x="148.3448275862069" y="545.9310344827586"/>
      <point x="307.2413793103448" y="739.551724137931"/>
      <point x="530.0344827586207" y="739.551724137931" type="curve" smooth="yes"/>
      <point x="692.551724137931" y="739.551724137931"/>
      <point x="789.5172413793103" y="639.6896551724138"/>
      <point x="748.4137931034483" y="447.44827586206895" type="curve" smooth="yes"/>
      <point x="652.6206896551724" y="0.0" type="line"/>
      <point x="715.1034482758621" y="0.0" type="line"/>
      <point x="812.6551724137931" y="458.2068965517241" type="line" smooth="yes"/>
      <point x="862.2068965517242" y="691.1379310344828"/>
      <point x="754.5862068965517" y="838.3793103448276"/>
      <point x="542.6896551724138" y="838.3793103448276" type="curve" smooth="yes"/>
      <point x="255.20689655172413" y="838.3793103448276"/>
      <point x="89.24137931034483" y="578.0"/>
      <point x="89.24137931034483" y="280.3448275862069" type="curve" smooth="yes"/>
      <point x="89.24137931034483" y="95.06896551724138"/>
      <point x="188.82758620689654" y="-5.0"/>
    </contour>
  </outline>
</glyph>
<glyph name="eeMatra-tamil" format="2">
  <advance width="647.448275862069"/>
  <unicode hex="0BC7"/>
  <note>
uni0BC7
</note>
  <outline>
    <contour>
      <point x="363.1034482758621" y="-5.0" type="curve" smooth="yes"/>
      <point x="477.7241379310345" y="-5.0"/>
      <point x="572.3793103448276" y="54.13793103448276"/>
      <point x="572.3793103448276" y="176.58620689655172" type="curve" smooth="yes"/>
      <point x="572.3793103448276" y="261.6896551724138"/>
      <point x="507.9310344827586" y="316.2413793103448"/>
      <point x="426.17241379310343" y="316.2413793103448" type="curve" smooth="yes"/>
      <point x="320.9655172413793" y="316.2413793103448"/>
      <point x="240.6551724137931" y="233.79310344827587"/>
      <point x="205.44827586206895" y="93.79310344827586" type="curve"/>
      <point x="236.20689655172413" y="71.89655172413794" type="line"/>
      <point x="269.2068965517241" y="187.75862068965517"/>
      <point x="317.3103448275862" y="245.20689655172413"/>
      <point x="382.48275862068965" y="245.20689655172413" type="curve" smooth="yes"/>
      <point x="434.2758620689655" y="245.20689655172413"/>
      <point x="468.7241379310345" y="214.6551724137931"/>
      <point x="468.7241379310345" y="160.86206896551724" type="curve" smooth="yes"/>
      <point x="468.7241379310345" y="91.65517241379311"/>
      <point x="418.17241379310343" y="52.310344827586206"/>
      <point x="353.62068965517244" y="52.310344827586206" type="curve" smooth="yes"/>
      <point x="246.3448275862069" y="52.310344827586206"/>
      <point x="139.10344827586206" y="173.93103448275863"/>
      <point x="139.10344827586206" y="352.7586206896552" type="curve" smooth="yes"/>
      <point x="139.10344827586206" y="539.448275862069"/>
      <point x="282.55172413793105" y="780.7931034482758"/>
      <point x="478.2758620689655" y="780.7931034482758" type="curve" smooth="yes"/>
      <point x="547.448275862069" y="780.7931034482758"/>
      <point x="582.2758620689655" y="741.0689655172414"/>
      <point x="582.2758620689655" y="689.7931034482758" type="curve" smooth="yes"/>
      <point x="582.2758620689655" y="627.7241379310345"/>
      <point x="543.9310344827586" y="587.8965517241379"/>
      <point x="483.2068965517241" y="587.8965517241379" type="curve" smooth="yes"/>
      <point x="404.82758620689657" y="587.8965517241379"/>
      <point x="378.6551724137931" y="670.1034482758621"/>
      <point x="383.2413793103448" y="777.6206896551724" type="curve"/>
      <point x="345.7586206896552" y="756.448275862069" type="line"/>
      <point x="334.7241379310345" y="626.2068965517242"/>
      <point x="380.2758620689655" y="517.5862068965517"/>
      <point x="506.1379310344828" y="517.5862068965517" type="curve" smooth="yes"/>
      <point x="602.8275862068965" y="517.5862068965517"/>
      <point x="683.9310344827586" y="580.1379310344828"/>
      <point x="683.9310344827586" y="683.1724137931035" type="curve" smooth="yes"/>
      <point x="683.9310344827586" y="787.6551724137931"/>
      <point x="605.8620689655172" y="838.1034482758621"/>
      <point x="498.8965517241379" y="838.1034482758621" type="curve" smooth="yes"/>
      <point x="255.55172413793105" y="838.1034482758621"/>
      <point x="79.72413793103448" y="578.3793103448276"/>
      <point x="79.72413793103448" y="346.37931034482756" type="curve" smooth="yes"/>
      <point x="79.72413793103448" y="137.6206896551724"/>
      <point x="212.72413793103448" y="-5.0"/>
    </contour>
  </outline>
</glyph>
